{"glyphs":{"0":{"ha":792,"x_min":56,"x_max":736,"o":"m 56 400 q 99 185 56 279 q 221 36 143 90 q 397 -18 299 -18 q 572 36 496 -18 q 692 185 649 90 q 736 401 736 281 q 692 609 736 518 q 572 752 649 700 q 397 804 496 804 q 221 752 299 804 q 99 609 143 700 q 56 400 56 518 m 126 404 q 161 581 126 504 q 258 703 196 658 q 397 747 319 747 q 535 702 475 747 q 631 578 596 657 q 665 397 665 499 q 631 212 665 293 q 535 85 596 131 q 397 39 475 39 q 258 86 319 39 q 161 216 196 133 q 126 404 126 299 z "},"1":{"ha":417,"x_min":14,"x_max":306,"o":"m 306 0 l 306 786 l 257 786 l 14 668 l 39 618 l 238 706 l 238 0 l 306 0 z "},"2":{"ha":653,"x_min":35,"x_max":625,"o":"m 304 804 q 153 780 215 804 q 53 732 92 756 l 83 685 q 140 713 108 699 q 211 738 171 728 q 301 749 251 749 q 451 701 392 749 q 510 579 510 653 q 495 498 510 535 q 445 422 481 461 q 347 331 410 383 l 35 69 l 35 0 l 625 0 l 614 54 l 104 54 l 375 272 q 490 378 444 328 q 559 479 536 429 q 582 581 582 529 q 546 696 582 646 q 447 775 510 746 q 304 804 385 804 z "},"3":{"ha":621,"x_min":0,"x_max":558,"o":"m 285 804 q 135 781 201 804 q 15 722 69 757 l 58 679 q 149 724 92 701 q 281 747 206 747 q 382 722 339 747 q 448 658 425 697 q 471 578 471 619 q 405 448 471 499 q 222 397 339 397 l 175 397 l 189 343 l 214 343 q 423 288 358 343 q 488 144 488 233 q 456 45 488 89 q 374 -24 424 1 q 268 -49 324 -49 q 143 -32 192 -49 q 46 14 94 -15 l 0 -33 q 117 -83 47 -60 q 264 -106 186 -106 q 420 -72 354 -106 q 522 19 486 -39 q 558 147 558 76 q 536 251 558 204 q 475 329 514 297 q 383 372 436 361 q 463 416 428 386 q 520 488 499 446 q 542 579 542 529 q 513 689 542 638 q 428 772 485 740 q 285 804 371 804 z "},"4":{"ha":711,"x_min":14,"x_max":683,"o":"m 683 157 l 521 157 l 521 793 l 482 793 l 14 174 l 26 103 l 453 103 l 453 -96 l 521 -96 l 521 103 l 672 103 l 683 157 m 453 653 l 453 157 l 83 157 l 453 653 z "},"5":{"ha":682,"x_min":56,"x_max":626,"o":"m 161 319 q 238 376 189 350 q 343 401 288 401 q 497 341 439 401 q 554 181 554 281 q 491 16 554 81 q 311 -49 428 -49 q 192 -32 247 -49 q 89 14 138 -15 l 56 -36 q 127 -69 89 -53 q 210 -95 165 -85 q 306 -106 256 -106 q 482 -66 411 -106 q 590 39 553 -26 q 626 181 626 104 q 597 319 626 256 q 503 420 567 382 q 338 458 440 458 q 260 444 303 458 q 179 401 217 429 l 194 732 l 568 732 l 572 786 l 132 786 l 111 319 l 161 319 z "},"6":{"ha":683,"x_min":56,"x_max":628,"o":"m 90 396 l 114 344 q 171 409 135 378 q 254 460 207 440 q 351 481 301 481 q 463 451 417 481 q 533 370 508 421 q 557 257 557 319 q 533 154 557 204 q 463 72 508 104 q 350 39 417 39 q 225 78 276 39 q 147 193 174 118 q 121 375 121 268 q 147 524 121 456 q 218 647 174 592 q 318 740 263 701 q 433 801 374 779 q 546 825 492 822 l 521 881 q 388 846 454 872 q 261 776 321 819 q 155 671 201 732 q 82 533 108 610 q 56 361 56 456 q 93 154 56 239 q 198 26 131 69 q 353 -18 265 -18 q 497 22 435 -18 q 593 127 558 63 q 628 264 628 192 q 596 397 628 335 q 502 499 564 460 q 351 538 440 538 q 230 513 281 538 q 145 455 179 488 q 90 396 111 422 z "},"7":{"ha":596,"x_min":14,"x_max":568,"o":"m 235 -96 l 568 746 l 538 786 l 14 786 l 25 732 l 500 732 l 171 -68 l 235 -96 z "},"8":{"ha":696,"x_min":56,"x_max":640,"o":"m 349 893 q 203 861 260 893 q 121 778 147 829 q 94 668 94 726 q 138 547 94 599 q 246 471 182 496 q 150 422 193 460 q 81 335 107 385 q 56 235 56 285 q 88 108 56 165 q 185 16 119 50 q 349 -18 250 -18 q 512 17 447 -18 q 608 110 576 53 q 640 235 640 168 q 614 342 640 293 q 544 426 588 392 q 451 471 501 460 q 523 516 489 488 q 579 583 557 544 q 601 668 601 621 q 576 775 601 724 q 494 860 550 826 q 349 893 439 893 m 344 836 q 488 786 442 836 q 533 672 533 736 q 511 599 533 636 q 448 535 489 563 q 349 500 407 508 q 212 563 260 513 q 164 672 164 614 q 183 751 164 714 q 243 813 203 789 q 344 836 283 836 m 349 439 q 514 365 458 425 q 569 225 569 304 q 540 130 569 172 q 460 63 510 88 q 349 39 410 39 q 235 63 286 39 q 156 130 185 88 q 126 225 126 172 q 182 365 126 304 q 349 439 238 425 z "},"9":{"ha":683,"x_min":56,"x_max":628,"o":"m 593 389 l 569 440 q 513 376 550 408 q 430 324 476 344 q 332 304 383 304 q 222 334 268 304 q 151 415 175 364 q 126 528 126 467 q 151 631 126 581 q 222 713 175 681 q 333 746 268 746 q 459 706 408 746 q 536 592 510 667 q 563 410 563 517 q 536 261 563 329 q 465 138 510 193 q 365 44 421 83 q 251 -16 310 6 q 138 -40 192 -37 l 163 -96 q 296 -61 229 -87 q 422 9 363 -35 q 528 114 482 53 q 601 253 575 175 q 628 424 628 331 q 590 631 628 547 q 486 759 553 715 q 331 803 419 803 q 188 763 250 803 q 90 658 125 722 q 56 521 56 593 q 88 388 56 451 q 181 286 119 325 q 332 247 243 247 q 453 272 403 247 q 539 331 504 297 q 593 389 574 364 z "},"\u0000":{"ha":0,"x_min":0,"x_max":0,"o":""},"\r":{"ha":0,"x_min":0,"x_max":0,"o":""}," ":{"ha":333,"x_min":0,"x_max":0,"o":""}," ":{"ha":333,"x_min":0,"x_max":0,"o":""},"‌":{"ha":0,"x_min":-35,"x_max":33,"o":"m -35 -94 l 33 -94 l 33 1528 l -35 1528 l -35 -94 z "},"‍":{"ha":0,"x_min":-157,"x_max":158,"o":"m 0 1425 l -101 1528 l -157 1472 l -54 1369 l -157 1267 l -103 1213 l -35 1272 l -35 -94 l 33 -94 l 33 1274 l 104 1213 l 158 1267 l 56 1369 l 158 1472 l 103 1528 l 0 1425 z "},"◌":{"ha":854,"x_min":69,"x_max":785,"o":"m 426 638 q 456 649 444 638 q 467 678 467 660 q 456 708 467 696 q 426 719 444 719 q 397 708 408 719 q 386 678 386 696 q 397 649 386 660 q 426 638 408 638 m 551 617 q 581 628 569 617 q 592 657 592 639 q 581 686 592 675 q 551 697 569 697 q 522 686 533 697 q 511 657 511 675 q 551 617 511 617 m 303 697 q 274 686 285 697 q 263 657 263 675 q 274 628 263 639 q 303 617 285 617 q 332 628 321 617 q 343 657 343 639 q 332 686 343 675 q 303 697 321 697 m 657 546 q 687 557 675 546 q 699 586 699 568 q 687 616 699 604 q 657 628 675 628 q 628 616 639 628 q 617 586 617 604 q 628 557 617 568 q 657 546 639 546 m 197 628 q 167 616 179 628 q 156 586 156 604 q 167 557 156 568 q 197 546 179 546 q 226 557 215 546 q 238 586 238 568 q 226 616 238 604 q 197 628 215 628 m 724 436 q 753 447 742 436 q 764 476 764 458 q 753 506 764 494 q 724 518 742 518 q 694 506 706 518 q 683 476 683 494 q 694 447 683 458 q 724 436 706 436 m 131 518 q 101 506 113 518 q 89 476 89 494 q 101 447 89 458 q 131 436 113 436 q 160 447 149 436 q 171 476 171 458 q 160 506 171 494 q 131 518 149 518 m 743 318 q 773 328 761 318 q 785 357 785 339 q 773 388 785 376 q 743 399 761 399 q 714 388 725 399 q 703 357 703 376 q 714 328 703 339 q 743 318 725 318 m 111 399 q 81 388 93 399 q 69 357 69 376 q 81 328 69 339 q 111 318 93 318 q 140 328 129 318 q 151 357 151 339 q 140 388 151 376 q 111 399 129 399 m 724 201 q 753 213 742 201 q 764 242 764 224 q 753 271 764 260 q 724 282 742 282 q 694 271 706 282 q 683 242 683 260 q 694 213 683 224 q 724 201 706 201 m 131 282 q 101 271 113 282 q 89 242 89 260 q 101 213 89 224 q 131 201 113 201 q 160 213 149 201 q 171 242 171 224 q 160 271 171 260 q 131 282 149 282 m 658 90 q 688 101 676 90 q 700 131 700 113 q 688 160 700 149 q 658 171 676 171 q 629 160 640 171 q 618 131 618 149 q 629 101 618 113 q 658 90 640 90 m 196 171 q 166 160 178 171 q 154 131 154 149 q 166 101 154 113 q 196 90 178 90 q 225 101 214 90 q 236 131 236 113 q 225 160 236 149 q 196 171 214 171 m 303 103 q 274 91 285 103 q 263 61 263 79 q 274 32 263 43 q 303 21 285 21 q 332 32 321 21 q 343 61 343 43 q 332 91 343 79 q 303 103 321 103 m 551 21 q 581 32 569 21 q 592 61 592 43 q 581 91 592 79 q 551 103 569 103 q 522 91 533 103 q 511 61 511 79 q 522 32 511 43 q 551 21 533 21 m 426 0 q 456 11 444 0 q 467 40 467 22 q 456 70 467 58 q 426 82 444 82 q 397 70 408 82 q 386 40 386 58 q 397 11 386 22 q 426 0 408 0 z "},"A":{"ha":794,"x_min":14,"x_max":781,"o":"m 579 350 l 208 350 l 390 853 l 579 350 m 357 944 l 14 0 l 82 0 l 189 296 l 599 296 l 711 -8 l 781 7 l 421 944 l 357 944 z "},"B":{"ha":785,"x_min":139,"x_max":729,"o":"m 374 0 q 511 13 447 0 q 624 56 575 26 q 701 136 674 86 q 729 261 729 186 q 676 418 729 360 q 536 503 622 476 q 635 579 593 531 q 676 699 676 628 q 633 847 676 793 q 513 922 589 900 q 336 944 436 944 l 139 944 l 139 0 l 374 0 m 353 890 q 485 872 429 890 q 573 812 542 854 q 604 697 604 769 q 567 591 604 631 q 468 535 529 551 q 335 517 407 518 l 208 517 l 208 890 l 353 890 m 406 463 q 588 413 519 463 q 657 258 657 364 q 622 141 657 186 q 526 75 586 96 q 390 54 465 54 l 208 54 l 208 463 l 406 463 z "},"C":{"ha":768,"x_min":69,"x_max":726,"o":"m 726 913 q 658 942 701 931 q 572 958 615 953 q 500 964 529 964 q 318 926 399 964 q 183 819 238 888 q 99 661 128 751 q 69 467 69 571 q 95 283 69 371 q 172 128 121 196 q 303 20 224 60 q 492 -19 383 -19 q 576 -12 532 -19 q 661 6 621 -6 q 726 32 701 18 l 693 82 q 608 53 656 65 q 485 40 560 40 q 341 75 404 40 q 235 169 278 110 q 169 306 192 229 q 146 468 146 383 q 192 699 146 601 q 319 851 239 797 q 497 904 399 904 q 581 899 547 904 q 643 884 615 893 q 699 863 671 875 l 726 913 z "},"D":{"ha":919,"x_min":139,"x_max":850,"o":"m 446 0 q 674 65 585 0 q 806 238 763 129 q 850 478 850 347 q 810 713 850 607 q 683 881 771 818 q 450 944 596 944 l 139 944 l 139 0 l 446 0 m 461 890 q 640 833 569 890 q 744 683 710 776 q 779 476 779 589 q 738 260 779 356 q 622 109 696 164 q 447 54 547 54 l 207 54 l 207 890 l 461 890 z "},"E":{"ha":688,"x_min":139,"x_max":660,"o":"m 660 0 l 651 54 l 207 54 l 207 457 l 547 457 l 540 511 l 207 511 l 207 890 l 628 890 l 621 944 l 139 944 l 139 0 l 660 0 z "},"F":{"ha":643,"x_min":139,"x_max":615,"o":"m 525 506 l 207 506 l 207 890 l 615 890 l 606 944 l 139 944 l 139 0 l 207 0 l 207 451 l 533 451 l 525 506 z "},"G":{"ha":853,"x_min":69,"x_max":769,"o":"m 486 421 l 699 421 l 699 72 q 622 50 664 60 q 529 40 579 40 q 331 95 418 40 q 195 247 244 150 q 146 467 146 343 q 175 643 146 563 q 258 783 204 724 q 383 874 311 842 q 542 907 456 907 q 626 902 592 907 q 688 888 660 897 q 743 867 715 879 l 769 913 q 701 942 744 931 q 613 958 657 953 q 539 964 568 964 q 351 927 438 964 q 202 824 265 890 q 104 666 139 757 q 69 467 69 575 q 125 219 69 329 q 284 44 181 108 q 531 -19 388 -19 q 615 -11 571 -19 q 701 12 660 -3 q 767 43 742 26 l 767 475 l 494 475 l 486 421 z "},"H":{"ha":910,"x_min":139,"x_max":771,"o":"m 771 0 l 771 944 l 703 944 l 703 506 l 207 506 l 207 951 l 139 944 l 139 0 l 207 0 l 207 451 l 703 451 l 703 0 l 771 0 z "},"I":{"ha":346,"x_min":139,"x_max":207,"o":"m 207 0 l 207 944 l 139 944 l 139 0 l 207 0 z "},"J":{"ha":329,"x_min":14,"x_max":204,"o":"m 136 68 q 125 -17 136 13 q 88 -62 114 -46 q 14 -97 61 -79 l 47 -142 q 148 -96 114 -121 q 193 -34 182 -71 q 204 58 204 3 l 204 944 l 136 944 l 136 68 z "},"K":{"ha":806,"x_min":139,"x_max":792,"o":"m 706 0 l 328 503 l 207 374 l 207 0 l 139 0 l 139 944 l 207 944 l 207 451 l 674 965 l 721 921 l 374 551 l 792 0 l 706 0 z "},"L":{"ha":682,"x_min":139,"x_max":668,"o":"m 661 54 l 207 54 l 207 944 l 139 944 l 139 0 l 668 0 l 661 54 z "},"M":{"ha":1004,"x_min":139,"x_max":865,"o":"m 518 346 l 797 786 l 797 0 l 865 0 l 865 944 l 828 944 l 501 442 l 169 944 l 139 944 l 139 0 l 207 0 l 207 779 l 490 340 l 518 346 z "},"N":{"ha":914,"x_min":139,"x_max":775,"o":"m 207 0 l 207 797 l 226 757 l 738 0 l 775 0 l 775 944 l 707 944 l 707 154 l 660 236 l 178 944 l 139 944 l 139 0 l 207 0 z "},"O":{"ha":982,"x_min":69,"x_max":913,"o":"m 488 -19 q 272 43 367 -19 q 124 216 178 106 q 69 468 69 326 q 124 725 69 613 q 276 902 179 838 q 496 967 372 967 q 711 904 617 967 q 859 731 806 842 q 913 479 913 621 q 858 222 913 335 q 707 45 803 110 q 488 -19 611 -19 m 485 38 q 667 94 588 38 q 791 251 746 151 q 836 478 836 350 q 792 700 836 603 q 672 853 749 797 q 497 908 596 908 q 316 851 396 908 q 191 696 236 794 q 146 469 146 597 q 190 247 146 344 q 310 93 233 149 q 485 38 386 38 z "},"P":{"ha":761,"x_min":139,"x_max":706,"o":"m 207 0 l 207 367 l 350 367 q 488 384 424 367 q 601 437 553 401 q 678 528 650 472 q 706 660 706 583 q 661 825 706 763 q 540 916 617 888 q 365 944 464 944 l 139 944 l 139 0 l 207 0 m 382 889 q 515 865 458 889 q 604 791 572 842 q 636 658 636 740 q 600 527 636 581 q 503 447 564 474 q 367 421 442 421 l 207 421 l 207 889 l 382 889 z "},"Q":{"ha":982,"x_min":69,"x_max":913,"o":"m 610 290 l 563 244 l 858 -33 l 903 1 l 610 290 m 496 967 q 276 902 372 967 q 124 725 179 838 q 69 468 69 613 q 124 216 69 326 q 272 43 178 106 q 488 -19 367 -19 q 707 45 611 -19 q 858 222 803 110 q 913 479 913 335 q 859 731 913 621 q 711 904 806 842 q 496 967 617 967 m 146 469 q 191 696 146 597 q 316 851 236 794 q 497 908 396 908 q 672 853 596 908 q 792 700 749 797 q 836 478 836 603 q 791 251 836 350 q 667 94 746 151 q 485 38 588 38 q 310 93 386 38 q 190 247 233 149 q 146 469 146 344 z "},"R":{"ha":794,"x_min":139,"x_max":781,"o":"m 368 889 q 501 868 440 889 q 599 800 563 847 q 636 672 636 753 q 594 545 636 594 q 488 474 553 496 q 353 451 424 451 l 207 451 l 207 889 l 368 889 m 139 944 l 139 0 l 207 0 l 207 397 l 350 397 q 414 401 382 397 q 476 411 446 404 l 704 0 l 781 0 l 535 429 q 658 519 610 458 q 706 675 706 579 q 661 834 706 775 q 540 919 617 893 q 365 944 464 944 l 139 944 z "},"S":{"ha":700,"x_min":69,"x_max":644,"o":"m 76 40 q 118 20 89 31 q 185 1 147 10 q 262 -13 224 -8 q 329 -18 300 -18 q 502 12 432 -18 q 608 95 572 42 q 644 218 644 149 q 628 304 644 265 q 581 376 613 343 q 503 438 550 410 q 393 493 456 467 q 255 564 311 528 q 170 642 199 600 q 142 736 142 683 q 200 859 142 808 q 358 910 258 910 q 442 903 407 910 q 506 885 478 896 q 558 863 535 874 l 589 913 q 486 950 547 933 q 356 967 425 967 q 203 938 267 967 q 104 858 139 908 q 69 743 69 807 q 86 651 69 693 q 135 576 103 610 q 214 513 167 542 q 322 458 261 483 q 463 389 407 424 q 546 314 518 354 q 574 222 574 274 q 545 133 574 175 q 463 66 517 92 q 328 40 408 40 q 238 49 282 40 q 158 70 194 57 q 97 94 122 83 l 76 40 z "},"T":{"ha":742,"x_min":14,"x_max":728,"o":"m 721 944 l 14 944 l 14 890 l 336 890 l 336 0 l 404 0 l 404 890 l 728 890 l 721 944 z "},"U":{"ha":914,"x_min":125,"x_max":789,"o":"m 193 944 l 125 944 l 125 332 q 164 153 125 232 q 277 28 203 74 q 457 -17 351 -17 q 639 28 565 -17 q 751 153 713 74 q 789 332 789 232 l 789 944 l 721 944 l 721 328 q 690 182 721 247 q 599 78 658 117 q 457 40 540 40 q 318 78 378 40 q 226 182 258 117 q 193 328 193 247 l 193 944 z "},"V":{"ha":794,"x_min":14,"x_max":781,"o":"m 83 951 l 14 936 l 374 -1 l 438 -1 l 781 943 l 713 943 l 404 90 l 83 951 z "},"W":{"ha":1128,"x_min":14,"x_max":1114,"o":"m 1114 943 l 868 -1 l 804 -1 l 565 824 l 354 -1 l 290 -1 l 14 936 l 83 951 l 321 110 l 532 943 l 600 943 l 835 110 l 1046 943 l 1114 943 z "},"X":{"ha":726,"x_min":14,"x_max":713,"o":"m 94 0 l 363 432 l 631 0 l 713 0 l 414 468 l 713 944 l 638 944 l 376 526 l 119 960 l 53 928 l 329 486 l 14 0 l 94 0 z "},"Y":{"ha":736,"x_min":14,"x_max":722,"o":"m 394 0 l 394 381 l 722 944 l 643 944 l 360 446 l 82 957 l 14 928 l 326 374 l 326 0 l 394 0 z "},"Z":{"ha":749,"x_min":42,"x_max":707,"o":"m 693 54 l 110 54 l 707 876 l 700 944 l 65 944 l 79 890 l 643 890 l 42 69 l 50 0 l 700 0 l 693 54 z "},"a":{"ha":660,"x_min":72,"x_max":568,"o":"m 143 189 q 185 295 143 251 q 318 339 226 339 l 500 339 l 500 151 q 419 72 468 104 q 304 39 369 39 q 218 59 254 39 q 163 113 182 79 q 143 189 143 147 m 146 588 q 229 621 188 607 q 339 635 271 635 q 460 589 421 635 q 500 474 500 543 l 500 390 l 313 390 q 140 338 207 390 q 72 189 72 285 q 128 42 72 101 q 299 -18 185 -18 q 416 8 363 -18 q 504 72 469 33 l 515 0 l 568 0 l 568 472 q 542 588 568 539 q 464 665 515 638 q 335 692 413 692 q 266 684 307 692 q 185 664 225 676 q 119 633 146 651 l 146 588 z "},"b":{"ha":711,"x_min":111,"x_max":656,"o":"m 150 0 l 179 82 l 179 981 l 111 967 l 111 0 l 150 0 m 172 536 q 252 606 208 576 q 365 635 296 635 q 490 594 442 635 q 561 484 538 553 q 585 332 585 415 q 559 187 585 254 q 483 79 533 119 q 358 39 433 39 q 247 67 294 39 q 165 128 200 94 l 138 82 q 192 39 157 63 q 269 -1 226 15 q 356 -18 313 -18 q 522 28 456 -18 q 622 153 589 74 q 656 333 656 233 q 624 519 656 439 q 529 646 593 600 q 365 692 465 692 q 280 678 319 692 q 206 641 240 665 q 144 583 172 617 l 172 536 z "},"c":{"ha":624,"x_min":56,"x_max":574,"o":"m 539 86 q 466 53 503 68 q 360 39 429 39 q 233 80 285 39 q 153 190 181 121 q 126 342 126 260 q 156 488 126 421 q 239 594 185 554 q 367 635 293 635 q 471 619 431 635 q 546 588 511 604 l 574 633 q 510 664 547 651 q 435 684 472 676 q 369 692 397 692 q 200 646 271 692 q 92 521 129 600 q 56 340 56 442 q 90 155 56 236 q 193 28 125 74 q 360 -18 261 -18 q 426 -11 389 -18 q 501 9 464 -4 q 567 39 539 22 l 539 86 z "},"d":{"ha":711,"x_min":56,"x_max":600,"o":"m 532 74 l 563 0 l 600 0 l 600 979 l 532 967 l 532 74 m 539 138 q 459 68 503 97 q 346 39 415 39 q 222 80 271 39 q 150 190 174 121 q 126 342 126 260 q 152 488 126 421 q 228 594 178 554 q 353 635 279 635 q 464 607 417 635 q 546 546 511 579 l 574 592 q 521 635 556 613 q 443 675 486 658 q 356 692 400 692 q 190 646 257 692 q 89 521 122 600 q 56 340 56 442 q 87 155 56 236 q 183 28 118 74 q 346 -18 247 -18 q 431 -5 392 -18 q 505 33 471 8 q 567 90 539 58 l 539 138 z "},"e":{"ha":667,"x_min":56,"x_max":611,"o":"m 611 336 l 611 347 q 577 524 611 446 q 485 647 543 601 q 350 692 426 692 q 185 646 251 692 q 88 521 119 600 q 56 340 56 442 q 90 155 56 236 q 194 28 124 74 q 375 -18 265 -18 q 442 -12 403 -18 q 522 6 482 -6 q 590 35 563 18 l 563 86 q 483 53 528 68 q 364 39 438 39 q 228 80 281 39 q 152 188 176 121 q 126 336 128 256 l 611 336 m 129 388 q 160 510 136 454 q 229 601 185 567 q 340 635 274 635 q 449 601 407 635 q 512 510 490 567 q 539 388 533 454 l 129 388 z "},"f":{"ha":367,"x_min":28,"x_max":367,"o":"m 28 601 l 129 601 l 129 0 l 197 0 l 197 601 l 349 601 l 319 653 l 197 653 l 197 804 q 219 886 197 854 q 293 918 240 918 q 324 914 307 918 q 350 906 342 910 l 367 957 q 344 965 358 961 q 312 972 329 969 q 275 975 294 975 q 192 951 225 975 q 144 884 160 928 q 129 782 129 840 l 129 653 l 28 653 l 28 601 z "},"g":{"ha":706,"x_min":56,"x_max":600,"o":"m 600 674 l 563 674 l 532 572 l 532 -100 q 474 -223 532 -183 q 331 -262 415 -262 q 222 -249 267 -262 q 131 -214 178 -235 l 104 -262 q 153 -285 124 -275 q 217 -303 183 -296 q 282 -315 251 -311 q 333 -319 313 -319 q 481 -289 422 -319 q 570 -206 540 -258 q 600 -86 600 -153 l 600 674 m 539 138 q 459 68 503 97 q 346 39 415 39 q 222 80 271 39 q 150 190 174 121 q 126 342 126 260 q 152 488 126 421 q 228 594 178 554 q 353 635 279 635 q 464 607 417 635 q 546 546 511 579 l 574 592 q 521 635 556 613 q 443 675 486 658 q 356 692 400 692 q 190 646 257 692 q 89 521 122 600 q 56 340 56 442 q 87 155 56 236 q 183 28 118 74 q 346 -18 247 -18 q 431 -5 392 -18 q 505 33 471 8 q 567 90 539 58 l 539 138 z "},"h":{"ha":708,"x_min":111,"x_max":617,"o":"m 179 499 q 259 569 218 539 q 341 617 300 600 q 422 635 382 635 q 524 586 499 635 q 549 468 549 538 l 549 0 l 617 0 l 617 468 q 597 583 617 533 q 533 663 576 633 q 417 692 489 692 q 331 674 375 692 q 247 629 286 657 q 178 568 207 601 l 179 499 m 179 0 l 179 981 l 111 967 l 111 0 l 179 0 z "},"i":{"ha":263,"x_min":78,"x_max":185,"o":"m 165 0 l 165 674 l 97 674 l 97 0 l 165 0 m 131 833 q 169 849 154 833 q 185 886 185 864 q 169 924 185 908 q 131 939 153 939 q 92 924 107 939 q 78 886 78 908 q 92 849 78 864 q 131 833 107 833 z "},"j":{"ha":286,"x_min":0,"x_max":194,"o":"m 140 833 q 113 840 125 833 q 94 860 100 847 q 88 886 88 872 q 102 924 88 908 q 140 939 117 939 q 178 924 163 939 q 194 886 194 908 q 179 849 194 864 q 140 833 164 833 m 175 674 l 175 -86 q 165 -185 175 -144 q 124 -254 156 -226 q 25 -304 92 -282 l 0 -254 q 69 -215 47 -236 q 99 -161 92 -194 q 107 -75 107 -128 l 107 674 l 175 674 z "},"k":{"ha":624,"x_min":111,"x_max":624,"o":"m 179 0 l 179 286 l 282 389 l 542 0 l 624 0 l 328 435 l 543 649 l 492 692 l 179 367 l 179 981 l 111 967 l 111 0 l 179 0 z "},"l":{"ha":290,"x_min":111,"x_max":179,"o":"m 179 0 l 179 981 l 111 967 l 111 0 l 179 0 z "},"m":{"ha":1078,"x_min":97,"x_max":986,"o":"m 165 0 l 165 499 q 244 569 204 539 q 325 617 285 600 q 401 635 365 635 q 473 613 449 635 q 506 553 497 590 q 514 468 514 515 l 514 0 l 582 0 l 582 468 q 564 583 582 533 q 506 663 546 633 q 396 692 465 692 q 317 674 361 692 q 233 629 274 657 q 164 568 193 601 l 150 674 l 97 674 l 97 0 l 165 0 m 569 499 q 649 569 608 539 q 729 617 689 600 q 806 635 769 635 q 877 613 853 635 q 910 553 901 590 q 918 468 918 515 l 918 0 l 986 0 l 986 468 q 968 583 986 533 q 910 663 950 633 q 800 692 869 692 q 722 674 765 692 q 638 629 678 657 q 568 568 597 601 l 569 499 z "},"n":{"ha":694,"x_min":97,"x_max":603,"o":"m 165 0 l 165 499 q 245 569 204 539 q 327 617 286 600 q 408 635 368 635 q 510 586 485 635 q 535 468 535 538 l 535 0 l 603 0 l 603 468 q 583 583 603 533 q 519 663 563 633 q 403 692 475 692 q 317 674 361 692 q 233 629 272 657 q 164 568 193 601 l 150 674 l 97 674 l 97 0 l 165 0 z "},"o":{"ha":726,"x_min":56,"x_max":671,"o":"m 360 -18 q 192 29 260 -17 q 90 156 125 75 q 56 340 56 236 q 92 519 56 440 q 199 645 129 599 q 368 692 269 692 q 535 645 468 692 q 637 518 603 599 q 671 333 671 438 q 634 154 671 233 q 528 29 597 75 q 360 -18 458 -17 m 360 39 q 488 79 435 39 q 571 187 542 119 q 600 332 600 254 q 573 484 600 415 q 494 594 546 553 q 367 635 443 635 q 239 594 293 635 q 156 488 185 554 q 126 342 126 421 q 153 190 126 260 q 233 80 181 121 q 360 39 285 39 z "},"p":{"ha":706,"x_min":106,"x_max":650,"o":"m 174 -289 l 174 581 l 144 674 l 106 674 l 106 -304 l 174 -289 m 167 536 q 247 606 203 576 q 360 635 290 635 q 484 594 436 635 q 556 484 532 553 q 579 332 579 415 q 553 187 579 254 q 478 79 528 119 q 353 39 428 39 q 242 67 289 39 q 160 128 194 94 l 132 82 q 186 39 151 63 q 264 -1 221 15 q 350 -18 307 -18 q 517 28 450 -18 q 617 153 583 74 q 650 333 650 233 q 619 519 650 439 q 524 646 588 600 q 360 692 460 692 q 274 678 314 692 q 201 641 235 665 q 139 583 167 617 l 167 536 z "},"q":{"ha":706,"x_min":56,"x_max":600,"o":"m 563 674 l 532 582 l 532 -304 l 600 -289 l 600 674 l 563 674 m 539 138 q 459 68 503 97 q 346 39 415 39 q 222 80 271 39 q 150 190 174 121 q 126 342 126 260 q 152 488 126 421 q 228 594 178 554 q 353 635 279 635 q 464 607 417 635 q 546 546 511 579 l 574 592 q 521 635 556 613 q 443 675 486 658 q 356 692 400 692 q 190 646 257 692 q 89 521 122 600 q 56 340 56 442 q 87 155 56 236 q 183 28 118 74 q 346 -18 247 -18 q 431 -5 392 -18 q 505 33 471 8 q 567 90 539 58 l 539 138 z "},"r":{"ha":419,"x_min":97,"x_max":406,"o":"m 165 0 l 165 496 q 231 553 192 525 q 317 601 271 582 q 406 621 364 621 l 382 674 q 305 656 347 674 q 224 613 263 638 q 161 567 186 588 l 136 674 l 97 674 l 97 0 l 165 0 z "},"s":{"ha":564,"x_min":58,"x_max":508,"o":"m 58 35 q 122 6 85 18 q 197 -12 158 -6 q 263 -18 235 -18 q 450 32 392 -18 q 508 171 508 82 q 480 255 508 218 q 406 319 451 292 q 304 369 360 347 q 185 431 235 397 q 135 511 135 464 q 178 597 135 560 q 292 635 221 635 q 395 618 354 635 q 464 588 436 601 l 492 636 q 435 665 469 653 q 366 685 401 678 q 301 692 331 692 q 128 638 188 692 q 69 506 69 585 q 97 427 69 463 q 169 365 124 392 q 265 318 214 339 q 356 276 315 299 q 419 226 396 253 q 443 165 443 199 q 422 99 443 128 q 360 55 400 71 q 265 39 321 39 q 198 47 231 39 q 137 68 165 56 q 83 92 108 81 l 58 35 z "},"t":{"ha":406,"x_min":28,"x_max":364,"o":"m 318 653 l 196 653 l 196 865 l 128 835 l 128 653 l 28 653 l 28 601 l 128 601 l 128 161 q 146 63 128 103 q 197 3 164 24 q 272 -18 229 -18 q 308 -15 290 -18 q 340 -8 325 -12 q 364 -1 354 -4 l 347 51 q 323 44 340 49 q 290 39 306 39 q 217 80 239 39 q 196 171 196 121 l 196 601 l 347 601 l 318 653 z "},"u":{"ha":694,"x_min":92,"x_max":597,"o":"m 529 674 l 529 175 q 449 105 490 136 q 367 56 408 74 q 286 39 326 39 q 185 88 210 39 q 160 206 160 136 l 160 674 l 92 674 l 92 206 q 112 91 92 142 q 176 11 132 40 q 292 -18 219 -18 q 378 -1 333 -18 q 463 44 422 15 q 531 106 503 72 l 544 0 l 597 0 l 597 674 l 529 674 z "},"v":{"ha":597,"x_min":14,"x_max":583,"o":"m 333 0 l 583 674 l 514 674 l 300 78 l 78 683 l 14 658 l 268 0 l 333 0 z "},"w":{"ha":892,"x_min":14,"x_max":878,"o":"m 678 0 l 878 674 l 808 674 l 647 89 l 472 674 l 414 674 l 243 89 l 78 682 l 14 657 l 213 0 l 278 0 l 438 568 l 613 0 l 678 0 z "},"x":{"ha":563,"x_min":14,"x_max":549,"o":"m 92 0 l 272 288 l 454 0 l 531 0 l 326 322 l 549 674 l 474 674 l 290 371 l 101 686 l 42 658 l 238 339 l 14 0 l 92 0 z "},"y":{"ha":597,"x_min":14,"x_max":583,"o":"m 225 -136 q 195 -188 214 -167 q 150 -224 176 -210 q 88 -251 124 -239 l 94 -304 q 176 -274 139 -294 q 239 -224 213 -254 q 279 -156 265 -193 l 583 674 l 514 674 l 300 78 l 78 682 l 14 657 l 268 0 l 225 -136 z "},"z":{"ha":600,"x_min":39,"x_max":561,"o":"m 557 674 l 79 674 l 101 622 l 486 622 l 39 43 l 50 0 l 553 0 l 539 51 l 110 51 l 561 629 l 557 674 z "},"ﬁ":{"ha":629,"x_min":28,"x_max":551,"o":"m 28 601 l 129 601 l 129 0 l 197 0 l 197 601 l 349 601 l 319 653 l 197 653 l 197 804 q 219 886 197 854 q 293 918 240 918 q 324 914 307 918 q 350 906 342 910 l 367 957 q 344 965 358 961 q 312 972 329 969 q 275 975 294 975 q 192 951 225 975 q 144 884 160 928 q 129 782 129 840 l 129 653 l 28 653 l 28 601 m 532 0 l 532 674 l 464 674 l 464 0 l 532 0 m 497 833 q 536 849 521 833 q 551 886 551 864 q 535 924 551 908 q 497 939 519 939 q 459 924 474 939 q 444 886 444 908 q 459 849 444 864 q 497 833 474 833 z "},"ﬂ":{"ha":657,"x_min":28,"x_max":546,"o":"m 28 601 l 129 601 l 129 0 l 197 0 l 197 601 l 349 601 l 319 653 l 197 653 l 197 804 q 219 886 197 854 q 293 918 240 918 q 324 914 307 918 q 350 906 342 910 l 367 957 q 344 965 358 961 q 312 972 329 969 q 275 975 294 975 q 192 951 225 975 q 144 884 160 928 q 129 782 129 840 l 129 653 l 28 653 l 28 601 m 546 0 l 546 981 l 478 967 l 478 0 l 546 0 z "},"`":{"ha":190,"x_min":14,"x_max":176,"o":"m 132 818 l 176 833 l 99 1031 l 14 1031 l 132 818 z "},"¨":{"ha":351,"x_min":14,"x_max":338,"o":"m 65 858 q 101 873 86 858 q 117 910 117 888 q 101 946 117 932 q 65 960 86 960 q 28 946 42 960 q 14 910 14 932 q 28 873 14 888 q 65 858 42 858 m 286 858 q 322 873 307 858 q 338 910 338 888 q 322 946 338 932 q 286 960 307 960 q 249 946 263 960 q 235 910 235 932 q 249 873 235 888 q 286 858 263 858 z "},"¯":{"ha":363,"x_min":14,"x_max":349,"o":"m 14 889 l 349 889 l 340 940 l 14 940 l 14 889 z "},"´":{"ha":190,"x_min":14,"x_max":176,"o":"m 58 818 l 176 1031 l 92 1031 l 14 833 l 58 818 z "},"ˆ":{"ha":376,"x_min":14,"x_max":363,"o":"m 190 982 l 306 818 l 363 838 l 217 1031 l 161 1031 l 14 832 l 71 818 l 190 982 z "},"ˇ":{"ha":376,"x_min":14,"x_max":363,"o":"m 190 867 l 71 1031 l 14 1017 l 161 818 l 217 818 l 363 1011 l 306 1031 l 190 867 z "},"˘":{"ha":389,"x_min":14,"x_max":375,"o":"m 318 1015 q 285 926 318 964 q 194 889 253 889 q 103 928 136 889 q 71 1015 71 967 l 14 1015 q 35 928 14 969 q 96 860 56 886 q 194 835 136 835 q 295 860 256 835 q 355 928 335 886 q 375 1015 375 969 l 318 1015 z "},"˙":{"ha":135,"x_min":14,"x_max":121,"o":"m 67 858 q 105 874 89 858 q 121 911 121 889 q 105 949 121 933 q 67 964 89 964 q 28 949 43 964 q 14 911 14 933 q 28 874 14 889 q 67 858 43 858 z "},"˚":{"ha":274,"x_min":14,"x_max":260,"o":"m 138 1054 q 76 1039 104 1054 q 31 997 49 1024 q 14 938 14 971 q 51 857 14 889 q 138 825 88 825 q 199 840 171 825 q 243 880 226 854 q 260 938 260 906 q 243 997 260 971 q 199 1039 226 1024 q 138 1054 171 1054 m 138 867 q 88 887 107 867 q 68 938 68 907 q 88 990 68 969 q 138 1011 107 1011 q 187 990 168 1011 q 206 938 206 969 q 187 887 206 907 q 138 867 168 867 z "},"˜":{"ha":415,"x_min":14,"x_max":401,"o":"m 349 971 q 331 918 346 939 q 286 897 315 897 q 251 908 268 897 q 219 938 235 918 q 181 967 204 957 q 129 976 158 976 q 72 963 99 976 q 30 922 46 950 q 14 850 14 894 l 68 850 q 85 903 71 882 q 131 924 100 924 q 167 914 149 924 q 203 885 185 904 q 242 855 221 865 q 286 844 263 844 q 344 858 318 844 q 385 899 369 871 q 401 971 401 928 l 349 971 z "},"˝":{"ha":368,"x_min":14,"x_max":354,"o":"m 58 818 l 176 1031 l 92 1031 l 14 833 l 58 818 m 236 818 l 354 1031 l 269 1031 l 192 833 l 236 818 z "},"˛":{"ha":285,"x_min":14,"x_max":271,"o":"m 100 6 q 56 -42 75 -15 q 25 -99 36 -69 q 14 -154 14 -128 q 33 -224 14 -193 q 85 -271 53 -254 q 160 -287 118 -287 q 224 -276 194 -287 q 271 -246 253 -264 l 240 -208 q 205 -230 224 -222 q 164 -237 186 -237 q 108 -217 138 -237 q 78 -156 78 -197 q 86 -98 78 -125 q 110 -47 94 -71 q 151 0 126 -22 l 100 6 z "},"¸":{"ha":286,"x_min":14,"x_max":272,"o":"m 76 -107 q 151 -120 121 -107 q 198 -153 182 -133 q 214 -192 214 -172 q 187 -237 214 -218 q 117 -257 160 -257 q 71 -250 94 -257 q 35 -237 47 -243 l 14 -281 q 64 -299 32 -292 q 121 -307 96 -307 q 201 -292 167 -307 q 253 -251 235 -278 q 272 -189 272 -224 q 258 -140 272 -164 q 216 -97 244 -115 q 146 -71 188 -78 l 181 18 l 124 18 l 76 -107 z "},"":{"ha":0,"x_min":14,"x_max":156,"o":"m 101 -29 q 73 -37 85 -29 q 55 -57 61 -44 q 49 -83 49 -69 q 61 -117 49 -97 q 99 -136 74 -136 q 74 -202 97 -174 q 14 -250 50 -231 l 36 -285 q 101 -236 75 -265 q 142 -169 128 -207 q 156 -89 156 -131 q 141 -49 156 -68 q 101 -29 126 -29 z "},"Þ":{"ha":761,"x_min":139,"x_max":706,"o":"m 365 833 q 540 805 464 833 q 661 714 617 776 q 706 549 706 651 q 678 417 706 472 q 601 326 650 361 q 488 273 553 290 q 350 256 424 256 l 207 256 l 207 0 l 139 0 l 139 944 l 207 944 l 207 833 l 365 833 m 367 310 q 503 336 442 310 q 600 416 564 363 q 636 547 636 469 q 604 680 636 629 q 515 754 572 731 q 382 778 458 778 l 207 778 l 207 310 l 367 310 z "},"Ð":{"ha":919,"x_min":14,"x_max":850,"o":"m 372 436 l 358 490 l 14 490 l 28 436 l 372 436 m 446 0 q 674 65 585 0 q 806 238 763 129 q 850 478 850 347 q 810 713 850 607 q 683 881 771 818 q 450 944 596 944 l 139 944 l 139 0 l 446 0 m 461 890 q 640 833 569 890 q 744 683 710 776 q 779 476 779 589 q 738 260 779 356 q 622 109 696 164 q 447 54 547 54 l 207 54 l 207 890 l 461 890 z "},"Æ":{"ha":1151,"x_min":14,"x_max":1124,"o":"m 603 0 l 1124 0 l 1115 54 l 671 54 l 671 457 l 1011 457 l 1004 511 l 671 511 l 671 890 l 1092 890 l 1085 944 l 592 944 l 14 7 l 83 -7 l 264 296 l 603 296 l 603 0 m 603 849 l 603 350 l 297 350 l 603 849 z "},"Đ":{"ha":919,"x_min":14,"x_max":850,"o":"m 372 436 l 358 490 l 14 490 l 28 436 l 372 436 m 446 0 q 674 65 585 0 q 806 238 763 129 q 850 478 850 347 q 810 713 850 607 q 683 881 771 818 q 450 944 596 944 l 139 944 l 139 0 l 446 0 m 461 890 q 640 833 569 890 q 744 683 710 776 q 779 476 779 589 q 738 260 779 356 q 622 109 696 164 q 447 54 547 54 l 207 54 l 207 890 l 461 890 z "},"Ł":{"ha":682,"x_min":14,"x_max":668,"o":"m 139 0 l 139 388 l 44 304 l 14 354 l 139 463 l 139 944 l 207 944 l 207 522 l 360 656 l 390 608 l 207 447 l 207 54 l 661 54 l 668 0 l 139 0 z "},"Œ":{"ha":1239,"x_min":69,"x_max":1211,"o":"m 726 913 q 658 942 701 931 q 572 958 615 953 q 500 964 529 964 q 318 926 399 964 q 183 819 238 888 q 99 661 128 751 q 69 467 69 571 q 95 283 69 371 q 172 128 121 196 q 303 20 224 60 q 492 -19 383 -19 q 576 -12 532 -19 q 661 6 621 -6 q 726 32 701 18 l 693 82 q 608 53 656 65 q 485 40 560 40 q 341 75 404 40 q 235 169 278 110 q 169 306 192 229 q 146 468 146 383 q 192 699 146 601 q 319 851 239 797 q 497 904 399 904 q 581 899 547 904 q 643 884 615 893 q 699 863 671 875 l 726 913 m 1211 0 l 1203 54 l 758 54 l 758 457 l 1099 457 l 1092 511 l 758 511 l 758 890 l 1179 890 l 1172 944 l 690 944 l 690 0 l 1211 0 z "},"Ø":{"ha":982,"x_min":69,"x_max":913,"o":"m 488 -19 q 272 43 367 -19 q 124 216 178 106 q 69 468 69 326 q 124 725 69 613 q 276 902 179 838 q 496 967 372 967 q 711 904 617 967 q 859 731 806 842 q 913 479 913 621 q 858 222 913 335 q 707 45 803 110 q 488 -19 611 -19 m 485 38 q 667 94 588 38 q 791 251 746 151 q 836 478 836 350 q 792 700 836 603 q 672 853 749 797 q 497 908 596 908 q 316 851 396 908 q 191 696 236 794 q 146 469 146 597 q 190 247 146 344 q 310 93 233 149 q 485 38 386 38 m 349 51 l 288 81 l 633 892 l 700 874 l 349 51 z "},"ß":{"ha":756,"x_min":111,"x_max":693,"o":"m 111 0 l 181 0 l 181 657 q 203 773 181 721 q 273 856 226 825 q 388 888 319 888 q 518 838 463 888 q 574 697 574 789 q 522 563 574 610 q 344 517 469 517 l 307 517 l 307 463 l 369 463 q 552 413 483 463 q 621 258 621 364 q 585 141 621 186 q 490 75 550 96 q 356 54 431 54 l 285 54 l 285 0 l 338 0 q 517 24 436 0 q 645 105 597 47 q 693 261 693 163 q 669 369 693 322 q 603 449 644 417 q 513 494 563 481 q 584 541 554 513 q 630 610 614 569 q 646 699 646 650 q 610 834 646 779 q 515 917 575 889 q 383 944 456 944 q 236 910 297 944 q 143 811 175 875 q 111 657 111 747 l 111 0 z "},"ð":{"ha":726,"x_min":56,"x_max":671,"o":"m 671 333 q 640 556 671 450 q 547 752 610 661 q 388 916 485 843 q 158 1042 292 989 l 140 997 q 361 864 272 939 q 502 702 450 789 q 577 522 554 615 q 600 332 600 428 q 571 187 600 254 q 488 79 542 119 q 360 39 435 39 q 233 80 285 39 q 153 190 181 121 q 126 342 126 260 q 156 488 126 421 q 239 594 185 554 q 367 635 293 635 q 447 622 408 635 q 522 585 486 608 q 586 529 557 561 l 617 558 q 548 629 583 600 q 469 675 513 658 q 368 692 426 692 q 199 645 269 692 q 92 519 129 599 q 56 340 56 440 q 90 156 56 236 q 192 29 125 75 q 360 -18 260 -17 q 528 29 458 -17 q 634 154 597 75 q 671 333 671 233 m 151 794 l 522 982 l 497 1031 l 125 847 l 151 794 z "},"þ":{"ha":706,"x_min":106,"x_max":650,"o":"m 360 692 q 524 646 460 692 q 619 519 588 600 q 650 333 650 439 q 617 153 650 233 q 517 28 583 74 q 350 -18 450 -18 q 256 2 303 -18 q 174 46 208 22 l 174 -289 l 106 -304 l 106 967 l 174 981 l 174 619 q 258 672 211 653 q 360 692 304 692 m 353 39 q 478 79 428 39 q 553 187 528 119 q 579 332 579 254 q 556 484 579 415 q 484 594 532 553 q 360 635 436 635 q 251 608 293 635 q 174 544 208 582 l 174 115 q 251 62 207 85 q 353 39 296 39 z "},"ƒ":{"ha":407,"x_min":0,"x_max":407,"o":"m 68 653 l 68 601 l 169 601 l 169 79 q 148 -3 169 29 q 74 -35 126 -35 q 42 -31 60 -35 q 17 -22 25 -26 l 0 -74 q 24 -81 10 -76 q 56 -89 38 -86 q 92 -92 74 -92 q 174 -67 142 -92 q 222 0 207 -43 q 238 101 238 43 l 238 601 l 389 601 l 360 653 l 238 653 l 238 804 q 259 886 238 854 q 333 918 281 918 q 365 914 347 918 q 390 906 382 910 l 407 957 q 384 965 399 961 q 352 972 369 969 q 315 975 335 975 q 233 951 265 975 q 185 884 201 928 q 169 782 169 840 l 169 653 l 68 653 z "},"æ":{"ha":1104,"x_min":72,"x_max":1049,"o":"m 1049 336 l 564 336 q 590 188 565 256 q 666 80 614 121 q 801 39 718 39 q 920 53 875 39 q 1000 86 965 68 l 1028 35 q 960 6 1000 18 q 880 -12 919 -6 q 813 -18 840 -18 q 653 16 718 -18 q 550 110 589 50 q 493 43 526 72 q 413 -2 460 14 q 299 -18 365 -18 q 128 42 185 -18 q 72 189 72 101 q 140 338 72 285 q 313 390 207 390 l 500 390 l 500 474 q 460 589 500 543 q 339 635 421 635 q 229 621 271 635 q 146 588 188 607 l 119 633 q 185 664 146 651 q 266 684 225 676 q 335 692 307 692 q 474 659 419 692 q 550 569 528 626 q 645 659 586 626 q 788 692 704 692 q 924 646 865 692 q 1016 522 983 600 q 1049 344 1049 443 l 1049 336 m 567 388 l 976 388 q 949 510 971 454 q 886 601 928 567 q 778 635 844 635 q 667 601 711 635 q 598 510 622 567 q 567 388 574 454 m 500 339 l 318 339 q 218 323 257 343 q 161 267 179 303 q 143 189 143 231 q 163 113 143 147 q 218 59 182 79 q 304 39 254 39 q 401 56 361 39 q 472 103 442 74 q 522 167 501 132 q 505 248 510 204 q 500 339 500 292 z "},"đ":{"ha":711,"x_min":56,"x_max":694,"o":"m 539 138 l 567 90 q 505 33 539 58 q 431 -5 471 8 q 346 -18 392 -18 q 183 28 247 -18 q 87 155 118 74 q 56 340 56 236 q 89 521 56 442 q 190 646 122 600 q 356 692 257 692 q 443 675 400 692 q 521 635 486 658 q 574 592 556 613 l 546 546 q 464 607 511 579 q 353 635 417 635 q 228 594 279 635 q 152 488 178 554 q 126 342 126 421 q 150 190 126 260 q 222 80 174 121 q 346 39 271 39 q 459 68 415 39 q 539 138 503 97 m 600 806 l 600 0 l 563 0 l 532 74 l 532 806 l 350 806 l 336 854 l 532 854 l 532 967 l 600 979 l 600 854 l 681 854 l 694 806 l 600 806 z "},"œ":{"ha":1053,"x_min":56,"x_max":997,"o":"m 997 336 l 513 336 q 538 188 514 256 q 615 80 563 121 q 750 39 667 39 q 869 53 824 39 q 949 86 914 68 l 976 35 q 908 6 949 18 q 828 -12 868 -6 q 761 -18 789 -18 q 651 -3 700 -18 q 565 38 603 11 q 507 8 538 21 q 440 -11 476 -4 q 360 -18 404 -18 q 193 28 261 -18 q 90 155 125 74 q 56 340 56 236 q 92 521 56 442 q 200 646 129 600 q 369 692 271 692 q 442 685 408 692 q 507 667 476 679 q 564 640 538 656 q 640 678 597 664 q 736 692 683 692 q 873 645 814 692 q 965 519 932 599 q 997 340 997 440 l 997 336 m 515 388 l 925 388 q 898 510 919 454 q 835 601 876 567 q 726 635 793 635 q 615 601 660 635 q 547 510 571 567 q 515 388 522 454 m 126 342 q 153 190 126 260 q 233 80 181 121 q 360 39 285 39 q 456 51 421 39 q 522 78 492 63 q 462 193 482 126 q 442 340 442 260 q 462 486 442 419 q 521 600 482 553 q 456 624 492 614 q 367 635 419 635 q 239 594 293 635 q 156 488 185 554 q 126 342 126 421 z "},"ĺ":{"ha":290,"x_min":111,"x_max":279,"o":"m 179 0 l 179 950 l 111 936 l 111 0 l 179 0 m 161 1026 l 279 1239 l 194 1239 l 117 1042 l 161 1026 z "},"ł":{"ha":376,"x_min":0,"x_max":376,"o":"m 346 656 l 222 547 l 222 981 l 154 967 l 154 488 l 0 354 l 31 304 l 154 413 l 154 0 l 222 0 l 222 472 l 376 608 l 346 656 z "},"ı":{"ha":263,"x_min":97,"x_max":165,"o":"m 165 0 l 165 674 l 97 674 l 97 0 l 165 0 z "},"ø":{"ha":726,"x_min":56,"x_max":671,"o":"m 360 -18 q 192 29 260 -17 q 90 156 125 75 q 56 340 56 236 q 92 519 56 440 q 199 645 129 599 q 368 692 269 692 q 535 645 468 692 q 637 518 603 599 q 671 333 671 438 q 634 154 671 233 q 528 29 597 75 q 360 -18 458 -17 m 360 39 q 488 79 435 39 q 571 187 542 119 q 600 332 600 254 q 573 484 600 415 q 494 594 546 553 q 367 635 443 635 q 239 594 293 635 q 156 488 185 554 q 126 342 126 421 q 153 190 126 260 q 233 80 181 121 q 360 39 285 39 m 253 39 l 197 68 l 482 617 l 533 579 l 253 39 z "},"À":{"ha":794,"x_min":14,"x_max":781,"o":"m 579 350 l 208 350 l 390 853 l 579 350 m 357 944 l 14 0 l 82 0 l 189 296 l 599 296 l 711 -8 l 781 7 l 421 944 l 357 944 m 397 1026 l 442 1042 l 364 1239 l 279 1239 l 397 1026 z "},"Á":{"ha":794,"x_min":14,"x_max":781,"o":"m 579 350 l 208 350 l 390 853 l 579 350 m 357 944 l 14 0 l 82 0 l 189 296 l 599 296 l 711 -8 l 781 7 l 421 944 l 357 944 m 390 1026 l 508 1239 l 424 1239 l 346 1042 l 390 1026 z "},"Â":{"ha":794,"x_min":14,"x_max":781,"o":"m 579 350 l 208 350 l 390 853 l 579 350 m 357 944 l 14 0 l 82 0 l 189 296 l 599 296 l 711 -8 l 781 7 l 421 944 l 357 944 m 400 1192 l 515 1028 l 572 1047 l 426 1240 l 371 1240 l 224 1042 l 281 1028 l 400 1192 z "},"Ã":{"ha":794,"x_min":14,"x_max":781,"o":"m 579 350 l 208 350 l 390 853 l 579 350 m 357 944 l 14 0 l 82 0 l 189 296 l 599 296 l 711 -8 l 781 7 l 421 944 l 357 944 m 524 1179 q 506 1126 521 1147 q 461 1106 490 1106 q 426 1116 443 1106 q 394 1146 410 1126 q 356 1175 379 1165 q 304 1185 333 1185 q 247 1172 274 1185 q 205 1131 221 1158 q 189 1058 189 1103 l 243 1058 q 260 1111 246 1090 q 306 1132 275 1132 q 342 1122 324 1132 q 378 1093 360 1113 q 417 1063 396 1074 q 461 1053 438 1053 q 519 1066 493 1053 q 560 1108 544 1079 q 576 1179 576 1136 l 524 1179 z "},"Ä":{"ha":794,"x_min":14,"x_max":781,"o":"m 579 350 l 208 350 l 390 853 l 579 350 m 357 944 l 14 0 l 82 0 l 189 296 l 599 296 l 711 -8 l 781 7 l 421 944 l 357 944 m 276 1067 q 313 1081 297 1067 q 328 1118 328 1096 q 313 1154 328 1140 q 276 1168 297 1168 q 239 1154 253 1168 q 225 1118 225 1140 q 239 1081 225 1096 q 276 1067 253 1067 m 497 1067 q 533 1081 518 1067 q 549 1118 549 1096 q 533 1154 549 1140 q 497 1168 518 1168 q 460 1154 474 1168 q 446 1118 446 1140 q 460 1081 446 1096 q 497 1067 474 1067 z "},"Å":{"ha":794,"x_min":14,"x_max":781,"o":"m 579 350 l 208 350 l 390 853 l 579 350 m 357 944 l 14 0 l 82 0 l 189 296 l 599 296 l 711 -8 l 781 7 l 421 944 l 357 944 m 388 1263 q 326 1247 354 1263 q 281 1206 299 1232 q 264 1146 264 1179 q 301 1065 264 1097 q 388 1033 338 1033 q 449 1048 421 1033 q 493 1088 476 1063 q 510 1146 510 1114 q 493 1206 510 1179 q 449 1247 476 1232 q 388 1263 421 1263 m 388 1075 q 338 1095 357 1075 q 318 1146 318 1115 q 338 1199 318 1178 q 388 1219 357 1219 q 437 1199 418 1219 q 456 1146 456 1178 q 437 1095 456 1115 q 388 1075 418 1075 z "},"Ă":{"ha":794,"x_min":14,"x_max":781,"o":"m 579 350 l 208 350 l 390 853 l 579 350 m 357 944 l 14 0 l 82 0 l 189 296 l 599 296 l 711 -8 l 781 7 l 421 944 l 357 944 m 515 1224 q 483 1135 515 1172 q 392 1097 450 1097 q 301 1136 333 1097 q 268 1224 268 1175 l 211 1224 q 232 1136 211 1178 q 293 1069 253 1094 q 392 1043 333 1043 q 492 1069 453 1043 q 552 1136 532 1094 q 572 1224 572 1178 l 515 1224 z "},"Ą":{"ha":794,"x_min":14,"x_max":896,"o":"m 725 13 q 681 -35 700 -7 q 650 -92 661 -62 q 639 -147 639 -121 q 658 -217 639 -186 q 710 -264 678 -247 q 785 -281 743 -281 q 829 -275 808 -281 q 867 -260 850 -269 q 896 -239 885 -250 l 865 -201 q 830 -223 849 -215 q 789 -231 811 -231 q 733 -210 763 -231 q 703 -149 703 -190 q 712 -91 703 -118 q 738 -40 721 -64 q 781 7 756 -15 l 725 13 m 579 350 l 208 350 l 390 853 l 579 350 m 357 944 l 14 0 l 82 0 l 189 296 l 599 296 l 711 -8 l 781 7 l 421 944 l 357 944 z "},"Ā":{"ha":794,"x_min":14,"x_max":781,"o":"m 579 350 l 208 350 l 390 853 l 579 350 m 357 944 l 14 0 l 82 0 l 189 296 l 599 296 l 711 -8 l 781 7 l 421 944 l 357 944 m 219 1097 l 554 1097 l 547 1149 l 219 1149 l 219 1097 z "},"Ç":{"ha":768,"x_min":69,"x_max":726,"o":"m 726 913 q 658 942 701 931 q 572 958 615 953 q 500 964 529 964 q 318 926 399 964 q 183 819 238 888 q 99 661 128 751 q 69 467 69 571 q 95 283 69 371 q 172 128 121 196 q 303 20 224 60 q 492 -19 383 -19 q 576 -12 532 -19 q 661 6 621 -6 q 726 32 701 18 l 693 82 q 608 53 656 65 q 485 40 560 40 q 341 75 404 40 q 235 169 278 110 q 169 306 192 229 q 146 468 146 383 q 192 699 146 601 q 319 851 239 797 q 497 904 399 904 q 581 899 547 904 q 643 884 615 893 q 699 863 671 875 l 726 913 m 424 -107 q 499 -120 468 -107 q 545 -153 529 -133 q 561 -192 561 -172 q 534 -237 561 -218 q 464 -257 507 -257 q 418 -250 442 -257 q 382 -237 394 -243 l 361 -281 q 411 -299 379 -292 q 468 -307 443 -307 q 548 -292 514 -307 q 601 -251 582 -278 q 619 -189 619 -224 q 606 -140 619 -164 q 563 -97 592 -115 q 493 -71 535 -78 l 528 18 l 471 18 l 424 -107 z "},"Ć":{"ha":768,"x_min":69,"x_max":726,"o":"m 726 913 q 658 942 701 931 q 572 958 615 953 q 500 964 529 964 q 318 926 399 964 q 183 819 238 888 q 99 661 128 751 q 69 467 69 571 q 95 283 69 371 q 172 128 121 196 q 303 20 224 60 q 492 -19 383 -19 q 576 -12 532 -19 q 661 6 621 -6 q 726 32 701 18 l 693 82 q 608 53 656 65 q 485 40 560 40 q 341 75 404 40 q 235 169 278 110 q 169 306 192 229 q 146 468 146 383 q 192 699 146 601 q 319 851 239 797 q 497 904 399 904 q 581 899 547 904 q 643 884 615 893 q 699 863 671 875 l 726 913 m 500 1026 l 618 1239 l 533 1239 l 456 1042 l 500 1026 z "},"Č":{"ha":768,"x_min":69,"x_max":726,"o":"m 726 913 q 658 942 701 931 q 572 958 615 953 q 500 964 529 964 q 318 926 399 964 q 183 819 238 888 q 99 661 128 751 q 69 467 69 571 q 95 283 69 371 q 172 128 121 196 q 303 20 224 60 q 492 -19 383 -19 q 576 -12 532 -19 q 661 6 621 -6 q 726 32 701 18 l 693 82 q 608 53 656 65 q 485 40 560 40 q 341 75 404 40 q 235 169 278 110 q 169 306 192 229 q 146 468 146 383 q 192 699 146 601 q 319 851 239 797 q 497 904 399 904 q 581 899 547 904 q 643 884 615 893 q 699 863 671 875 l 726 913 m 504 1075 l 385 1239 l 328 1225 l 475 1026 l 531 1026 l 676 1219 l 619 1239 l 504 1075 z "},"Ď":{"ha":919,"x_min":139,"x_max":850,"o":"m 446 0 q 674 65 585 0 q 806 238 763 129 q 850 478 850 347 q 810 713 850 607 q 683 881 771 818 q 450 944 596 944 l 139 944 l 139 0 l 446 0 m 461 890 q 640 833 569 890 q 744 683 710 776 q 779 476 779 589 q 738 260 779 356 q 622 109 696 164 q 447 54 547 54 l 207 54 l 207 890 l 461 890 m 431 1075 l 311 1239 l 254 1225 l 401 1026 l 457 1026 l 603 1219 l 546 1239 l 431 1075 z "},"È":{"ha":688,"x_min":139,"x_max":660,"o":"m 660 0 l 651 54 l 207 54 l 207 457 l 547 457 l 540 511 l 207 511 l 207 890 l 628 890 l 621 944 l 139 944 l 139 0 l 660 0 m 389 1026 l 433 1042 l 356 1239 l 271 1239 l 389 1026 z "},"É":{"ha":688,"x_min":139,"x_max":660,"o":"m 660 0 l 651 54 l 207 54 l 207 457 l 547 457 l 540 511 l 207 511 l 207 890 l 628 890 l 621 944 l 139 944 l 139 0 l 660 0 m 382 1026 l 500 1239 l 415 1239 l 338 1042 l 382 1026 z "},"Ê":{"ha":688,"x_min":139,"x_max":660,"o":"m 660 0 l 651 54 l 207 54 l 207 457 l 547 457 l 540 511 l 207 511 l 207 890 l 628 890 l 621 944 l 139 944 l 139 0 l 660 0 m 392 1192 l 507 1028 l 564 1047 l 418 1240 l 363 1240 l 215 1042 l 272 1028 l 392 1192 z "},"Ë":{"ha":688,"x_min":139,"x_max":660,"o":"m 660 0 l 651 54 l 207 54 l 207 457 l 547 457 l 540 511 l 207 511 l 207 890 l 628 890 l 621 944 l 139 944 l 139 0 l 660 0 m 268 1067 q 304 1081 289 1067 q 319 1118 319 1096 q 304 1154 319 1140 q 268 1168 289 1168 q 231 1154 244 1168 q 217 1118 217 1140 q 231 1081 217 1096 q 268 1067 244 1067 m 489 1067 q 525 1081 510 1067 q 540 1118 540 1096 q 525 1154 540 1140 q 489 1168 510 1168 q 451 1154 465 1168 q 438 1118 438 1140 q 451 1081 438 1096 q 489 1067 465 1067 z "},"Ē":{"ha":688,"x_min":139,"x_max":660,"o":"m 660 0 l 651 54 l 207 54 l 207 457 l 547 457 l 540 511 l 207 511 l 207 890 l 628 890 l 621 944 l 139 944 l 139 0 l 660 0 m 211 1097 l 546 1097 l 539 1149 l 211 1149 l 211 1097 z "},"Ė":{"ha":688,"x_min":139,"x_max":660,"o":"m 660 0 l 651 54 l 207 54 l 207 457 l 547 457 l 540 511 l 207 511 l 207 890 l 628 890 l 621 944 l 139 944 l 139 0 l 660 0 m 379 1067 q 417 1082 401 1067 q 433 1119 433 1097 q 417 1157 433 1142 q 379 1172 401 1172 q 341 1157 356 1172 q 326 1119 326 1142 q 341 1082 326 1097 q 379 1067 356 1067 z "},"Ę":{"ha":688,"x_min":139,"x_max":671,"o":"m 660 0 l 651 54 l 207 54 l 207 457 l 547 457 l 540 511 l 207 511 l 207 890 l 628 890 l 621 944 l 139 944 l 139 0 l 660 0 m 500 6 q 456 -42 475 -15 q 425 -99 436 -69 q 414 -154 414 -128 q 433 -224 414 -193 q 485 -271 453 -254 q 560 -287 518 -287 q 624 -276 594 -287 q 671 -246 653 -264 l 640 -208 q 605 -230 624 -222 q 564 -237 586 -237 q 508 -217 538 -237 q 478 -156 478 -197 q 486 -98 478 -125 q 510 -47 494 -71 q 551 0 526 -22 l 500 6 z "},"Ě":{"ha":688,"x_min":139,"x_max":660,"o":"m 660 0 l 651 54 l 207 54 l 207 457 l 547 457 l 540 511 l 207 511 l 207 890 l 628 890 l 621 944 l 139 944 l 139 0 l 660 0 m 386 1075 l 267 1239 l 210 1225 l 357 1026 l 413 1026 l 558 1219 l 501 1239 l 386 1075 z "},"Ğ":{"ha":853,"x_min":69,"x_max":769,"o":"m 486 421 l 699 421 l 699 72 q 622 50 664 60 q 529 40 579 40 q 331 95 418 40 q 195 247 244 150 q 146 467 146 343 q 175 643 146 563 q 258 783 204 724 q 383 874 311 842 q 542 907 456 907 q 626 902 592 907 q 688 888 660 897 q 743 867 715 879 l 769 913 q 701 942 744 931 q 613 958 657 953 q 539 964 568 964 q 351 927 438 964 q 202 824 265 890 q 104 666 139 757 q 69 467 69 575 q 125 219 69 329 q 284 44 181 108 q 531 -19 388 -19 q 615 -11 571 -19 q 701 12 660 -3 q 767 43 742 26 l 767 475 l 494 475 l 486 421 m 664 1224 q 631 1135 664 1172 q 540 1097 599 1097 q 449 1136 482 1097 q 417 1224 417 1175 l 360 1224 q 381 1136 360 1178 q 442 1069 401 1094 q 540 1043 482 1043 q 641 1069 601 1043 q 701 1136 681 1094 q 721 1224 721 1178 l 664 1224 z "},"Ì":{"ha":346,"x_min":63,"x_max":225,"o":"m 207 0 l 207 944 l 139 944 l 139 0 l 207 0 m 181 1026 l 225 1042 l 147 1239 l 63 1239 l 181 1026 z "},"Í":{"ha":346,"x_min":129,"x_max":292,"o":"m 207 0 l 207 944 l 139 944 l 139 0 l 207 0 m 174 1026 l 292 1239 l 207 1239 l 129 1042 l 174 1026 z "},"Î":{"ha":346,"x_min":7,"x_max":356,"o":"m 207 0 l 207 944 l 139 944 l 139 0 l 207 0 m 183 1192 l 299 1028 l 356 1047 l 210 1240 l 154 1240 l 7 1042 l 64 1028 l 183 1192 z "},"Ï":{"ha":346,"x_min":8,"x_max":332,"o":"m 207 0 l 207 944 l 139 944 l 139 0 l 207 0 m 60 1067 q 96 1081 81 1067 q 111 1118 111 1096 q 96 1154 111 1140 q 60 1168 81 1168 q 22 1154 36 1168 q 8 1118 8 1140 q 22 1081 8 1096 q 60 1067 36 1067 m 281 1067 q 317 1081 301 1067 q 332 1118 332 1096 q 317 1154 332 1140 q 281 1168 301 1168 q 243 1154 257 1168 q 229 1118 229 1140 q 243 1081 229 1096 q 281 1067 257 1067 z "},"Ī":{"ha":346,"x_min":3,"x_max":338,"o":"m 207 0 l 207 944 l 139 944 l 139 0 l 207 0 m 3 1097 l 338 1097 l 331 1149 l 3 1149 l 3 1097 z "},"Į":{"ha":346,"x_min":69,"x_max":326,"o":"m 142 6 q 92 -65 115 -25 q 69 -154 69 -104 q 89 -224 69 -193 q 141 -271 108 -254 q 215 -287 174 -287 q 279 -276 250 -287 q 326 -246 308 -264 l 296 -208 q 260 -230 279 -222 q 219 -237 242 -237 q 163 -217 193 -237 q 133 -156 133 -197 q 142 -98 133 -125 q 166 -47 150 -71 q 207 0 182 -22 l 142 6 m 207 0 l 207 944 l 139 944 l 139 0 l 207 0 z "},"İ":{"ha":346,"x_min":118,"x_max":225,"o":"m 207 0 l 207 944 l 139 944 l 139 0 l 207 0 m 171 1067 q 209 1082 193 1067 q 225 1119 225 1097 q 209 1157 225 1142 q 171 1172 193 1172 q 133 1157 147 1172 q 118 1119 118 1142 q 133 1082 118 1097 q 171 1067 147 1067 z "},"Ĺ":{"ha":682,"x_min":139,"x_max":668,"o":"m 661 54 l 207 54 l 207 944 l 139 944 l 139 0 l 668 0 l 661 54 m 214 1026 l 332 1239 l 247 1239 l 169 1042 l 214 1026 z "},"Ľ":{"ha":682,"x_min":139,"x_max":668,"o":"m 661 54 l 207 54 l 207 944 l 139 944 l 139 0 l 668 0 l 661 54 m 514 975 q 485 967 497 975 q 467 947 474 960 q 461 921 461 935 q 467 900 461 913 q 483 878 472 888 q 511 868 494 868 q 486 802 510 831 q 426 754 463 774 l 449 719 q 514 768 488 739 q 554 835 540 797 q 568 915 568 874 q 553 956 568 936 q 514 975 539 975 z "},"Ñ":{"ha":914,"x_min":139,"x_max":775,"o":"m 207 0 l 207 797 l 226 757 l 738 0 l 775 0 l 775 944 l 707 944 l 707 154 l 660 236 l 178 944 l 139 944 l 139 0 l 207 0 m 592 1179 q 574 1126 589 1147 q 529 1106 558 1106 q 494 1116 511 1106 q 463 1146 478 1126 q 424 1175 447 1165 q 372 1185 401 1185 q 315 1172 342 1185 q 273 1131 289 1158 q 257 1058 257 1103 l 311 1058 q 328 1111 314 1090 q 374 1132 343 1132 q 410 1122 392 1132 q 446 1093 428 1113 q 485 1063 464 1074 q 529 1053 506 1053 q 587 1066 561 1053 q 628 1108 613 1079 q 644 1179 644 1136 l 592 1179 z "},"Ń":{"ha":914,"x_min":139,"x_max":775,"o":"m 207 0 l 207 797 l 226 757 l 738 0 l 775 0 l 775 944 l 707 944 l 707 154 l 660 236 l 178 944 l 139 944 l 139 0 l 207 0 m 458 1026 l 576 1239 l 492 1239 l 414 1042 l 458 1026 z "},"Ň":{"ha":914,"x_min":139,"x_max":775,"o":"m 207 0 l 207 797 l 226 757 l 738 0 l 775 0 l 775 944 l 707 944 l 707 154 l 660 236 l 178 944 l 139 944 l 139 0 l 207 0 m 463 1075 l 343 1239 l 286 1225 l 433 1026 l 489 1026 l 635 1219 l 578 1239 l 463 1075 z "},"Ò":{"ha":982,"x_min":69,"x_max":913,"o":"m 488 -19 q 272 43 367 -19 q 124 216 178 106 q 69 468 69 326 q 124 725 69 613 q 276 902 179 838 q 496 967 372 967 q 711 904 617 967 q 859 731 806 842 q 913 479 913 621 q 858 222 913 335 q 707 45 803 110 q 488 -19 611 -19 m 485 38 q 667 94 588 38 q 791 251 746 151 q 836 478 836 350 q 792 700 836 603 q 672 853 749 797 q 497 908 596 908 q 316 851 396 908 q 191 696 236 794 q 146 469 146 597 q 190 247 146 344 q 310 93 233 149 q 485 38 386 38 m 503 1026 l 547 1042 l 469 1239 l 385 1239 l 503 1026 z "},"Ó":{"ha":982,"x_min":69,"x_max":913,"o":"m 488 -19 q 272 43 367 -19 q 124 216 178 106 q 69 468 69 326 q 124 725 69 613 q 276 902 179 838 q 496 967 372 967 q 711 904 617 967 q 859 731 806 842 q 913 479 913 621 q 858 222 913 335 q 707 45 803 110 q 488 -19 611 -19 m 485 38 q 667 94 588 38 q 791 251 746 151 q 836 478 836 350 q 792 700 836 603 q 672 853 749 797 q 497 908 596 908 q 316 851 396 908 q 191 696 236 794 q 146 469 146 597 q 190 247 146 344 q 310 93 233 149 q 485 38 386 38 m 496 1026 l 614 1239 l 529 1239 l 451 1042 l 496 1026 z "},"Ô":{"ha":982,"x_min":69,"x_max":913,"o":"m 488 -19 q 272 43 367 -19 q 124 216 178 106 q 69 468 69 326 q 124 725 69 613 q 276 902 179 838 q 496 967 372 967 q 711 904 617 967 q 859 731 806 842 q 913 479 913 621 q 858 222 913 335 q 707 45 803 110 q 488 -19 611 -19 m 485 38 q 667 94 588 38 q 791 251 746 151 q 836 478 836 350 q 792 700 836 603 q 672 853 749 797 q 497 908 596 908 q 316 851 396 908 q 191 696 236 794 q 146 469 146 597 q 190 247 146 344 q 310 93 233 149 q 485 38 386 38 m 506 1192 l 621 1028 l 678 1047 l 532 1240 l 476 1240 l 329 1042 l 386 1028 l 506 1192 z "},"Õ":{"ha":982,"x_min":69,"x_max":913,"o":"m 488 -19 q 272 43 367 -19 q 124 216 178 106 q 69 468 69 326 q 124 725 69 613 q 276 902 179 838 q 496 967 372 967 q 711 904 617 967 q 859 731 806 842 q 913 479 913 621 q 858 222 913 335 q 707 45 803 110 q 488 -19 611 -19 m 485 38 q 667 94 588 38 q 791 251 746 151 q 836 478 836 350 q 792 700 836 603 q 672 853 749 797 q 497 908 596 908 q 316 851 396 908 q 191 696 236 794 q 146 469 146 597 q 190 247 146 344 q 310 93 233 149 q 485 38 386 38 m 629 1179 q 611 1126 626 1147 q 567 1106 596 1106 q 532 1116 549 1106 q 500 1146 515 1126 q 462 1175 485 1165 q 410 1185 439 1185 q 353 1172 379 1185 q 310 1131 326 1158 q 294 1058 294 1103 l 349 1058 q 366 1111 351 1090 q 411 1132 381 1132 q 447 1122 429 1132 q 483 1093 465 1113 q 522 1063 501 1074 q 567 1053 543 1053 q 624 1066 599 1053 q 666 1108 650 1079 q 682 1179 682 1136 l 629 1179 z "},"Ö":{"ha":982,"x_min":69,"x_max":913,"o":"m 488 -19 q 272 43 367 -19 q 124 216 178 106 q 69 468 69 326 q 124 725 69 613 q 276 902 179 838 q 496 967 372 967 q 711 904 617 967 q 859 731 806 842 q 913 479 913 621 q 858 222 913 335 q 707 45 803 110 q 488 -19 611 -19 m 485 38 q 667 94 588 38 q 791 251 746 151 q 836 478 836 350 q 792 700 836 603 q 672 853 749 797 q 497 908 596 908 q 316 851 396 908 q 191 696 236 794 q 146 469 146 597 q 190 247 146 344 q 310 93 233 149 q 485 38 386 38 m 382 1067 q 418 1081 403 1067 q 433 1118 433 1096 q 418 1154 433 1140 q 382 1168 403 1168 q 344 1154 358 1168 q 331 1118 331 1140 q 344 1081 331 1096 q 382 1067 358 1067 m 603 1067 q 639 1081 624 1067 q 654 1118 654 1096 q 639 1154 654 1140 q 603 1168 624 1168 q 565 1154 579 1168 q 551 1118 551 1140 q 565 1081 551 1096 q 603 1067 579 1067 z "},"Ō":{"ha":982,"x_min":69,"x_max":913,"o":"m 488 -19 q 272 43 367 -19 q 124 216 178 106 q 69 468 69 326 q 124 725 69 613 q 276 902 179 838 q 496 967 372 967 q 711 904 617 967 q 859 731 806 842 q 913 479 913 621 q 858 222 913 335 q 707 45 803 110 q 488 -19 611 -19 m 485 38 q 667 94 588 38 q 791 251 746 151 q 836 478 836 350 q 792 700 836 603 q 672 853 749 797 q 497 908 596 908 q 316 851 396 908 q 191 696 236 794 q 146 469 146 597 q 190 247 146 344 q 310 93 233 149 q 485 38 386 38 m 325 1097 l 660 1097 l 653 1149 l 325 1149 l 325 1097 z "},"Ő":{"ha":982,"x_min":69,"x_max":913,"o":"m 488 -19 q 272 43 367 -19 q 124 216 178 106 q 69 468 69 326 q 124 725 69 613 q 276 902 179 838 q 496 967 372 967 q 711 904 617 967 q 859 731 806 842 q 913 479 913 621 q 858 222 913 335 q 707 45 803 110 q 488 -19 611 -19 m 485 38 q 667 94 588 38 q 791 251 746 151 q 836 478 836 350 q 792 700 836 603 q 672 853 749 797 q 497 908 596 908 q 316 851 396 908 q 191 696 236 794 q 146 469 146 597 q 190 247 146 344 q 310 93 233 149 q 485 38 386 38 m 413 1026 l 531 1239 l 446 1239 l 368 1042 l 413 1026 m 590 1026 l 708 1239 l 624 1239 l 546 1042 l 590 1026 z "},"Ŕ":{"ha":794,"x_min":139,"x_max":781,"o":"m 368 889 q 501 868 440 889 q 599 800 563 847 q 636 672 636 753 q 594 545 636 594 q 488 474 553 496 q 353 451 424 451 l 207 451 l 207 889 l 368 889 m 139 944 l 139 0 l 207 0 l 207 397 l 350 397 q 414 401 382 397 q 476 411 446 404 l 704 0 l 781 0 l 535 429 q 658 519 610 458 q 706 675 706 579 q 661 834 706 775 q 540 919 617 893 q 365 944 464 944 l 139 944 m 365 1026 l 483 1239 l 399 1239 l 321 1042 l 365 1026 z "},"Ř":{"ha":794,"x_min":139,"x_max":781,"o":"m 368 889 q 501 868 440 889 q 599 800 563 847 q 636 672 636 753 q 594 545 636 594 q 488 474 553 496 q 353 451 424 451 l 207 451 l 207 889 l 368 889 m 139 944 l 139 0 l 207 0 l 207 397 l 350 397 q 414 401 382 397 q 476 411 446 404 l 704 0 l 781 0 l 535 429 q 658 519 610 458 q 706 675 706 579 q 661 834 706 775 q 540 919 617 893 q 365 944 464 944 l 139 944 m 369 1075 l 250 1239 l 193 1225 l 340 1026 l 396 1026 l 542 1219 l 485 1239 l 369 1075 z "},"Ś":{"ha":700,"x_min":69,"x_max":644,"o":"m 76 40 q 118 20 89 31 q 185 1 147 10 q 262 -13 224 -8 q 329 -18 300 -18 q 502 12 432 -18 q 608 95 572 42 q 644 218 644 149 q 628 304 644 265 q 581 376 613 343 q 503 438 550 410 q 393 493 456 467 q 255 564 311 528 q 170 642 199 600 q 142 736 142 683 q 200 859 142 808 q 358 910 258 910 q 442 903 407 910 q 506 885 478 896 q 558 863 535 874 l 589 913 q 486 950 547 933 q 356 967 425 967 q 203 938 267 967 q 104 858 139 908 q 69 743 69 807 q 86 651 69 693 q 135 576 103 610 q 214 513 167 542 q 322 458 261 483 q 463 389 407 424 q 546 314 518 354 q 574 222 574 274 q 545 133 574 175 q 463 66 517 92 q 328 40 408 40 q 238 49 282 40 q 158 70 194 57 q 97 94 122 83 l 76 40 m 356 1026 l 474 1239 l 389 1239 l 311 1042 l 356 1026 z "},"Š":{"ha":700,"x_min":69,"x_max":644,"o":"m 76 40 q 118 20 89 31 q 185 1 147 10 q 262 -13 224 -8 q 329 -18 300 -18 q 502 12 432 -18 q 608 95 572 42 q 644 218 644 149 q 628 304 644 265 q 581 376 613 343 q 503 438 550 410 q 393 493 456 467 q 255 564 311 528 q 170 642 199 600 q 142 736 142 683 q 200 859 142 808 q 358 910 258 910 q 442 903 407 910 q 506 885 478 896 q 558 863 535 874 l 589 913 q 486 950 547 933 q 356 967 425 967 q 203 938 267 967 q 104 858 139 908 q 69 743 69 807 q 86 651 69 693 q 135 576 103 610 q 214 513 167 542 q 322 458 261 483 q 463 389 407 424 q 546 314 518 354 q 574 222 574 274 q 545 133 574 175 q 463 66 517 92 q 328 40 408 40 q 238 49 282 40 q 158 70 194 57 q 97 94 122 83 l 76 40 m 360 1075 l 240 1239 l 183 1225 l 331 1026 l 386 1026 l 532 1219 l 475 1239 l 360 1075 z "},"Ť":{"ha":742,"x_min":14,"x_max":728,"o":"m 721 944 l 14 944 l 14 890 l 336 890 l 336 0 l 404 0 l 404 890 l 728 890 l 721 944 m 374 1075 l 254 1239 l 197 1225 l 344 1026 l 400 1026 l 546 1219 l 489 1239 l 374 1075 z "},"Ù":{"ha":914,"x_min":125,"x_max":789,"o":"m 193 944 l 125 944 l 125 332 q 164 153 125 232 q 277 28 203 74 q 457 -17 351 -17 q 639 28 565 -17 q 751 153 713 74 q 789 332 789 232 l 789 944 l 721 944 l 721 328 q 690 182 721 247 q 599 78 658 117 q 457 40 540 40 q 318 78 378 40 q 226 182 258 117 q 193 328 193 247 l 193 944 m 464 1026 l 508 1042 l 431 1239 l 346 1239 l 464 1026 z "},"Ú":{"ha":914,"x_min":125,"x_max":789,"o":"m 193 944 l 125 944 l 125 332 q 164 153 125 232 q 277 28 203 74 q 457 -17 351 -17 q 639 28 565 -17 q 751 153 713 74 q 789 332 789 232 l 789 944 l 721 944 l 721 328 q 690 182 721 247 q 599 78 658 117 q 457 40 540 40 q 318 78 378 40 q 226 182 258 117 q 193 328 193 247 l 193 944 m 457 1026 l 575 1239 l 490 1239 l 413 1042 l 457 1026 z "},"Û":{"ha":914,"x_min":125,"x_max":789,"o":"m 193 944 l 125 944 l 125 332 q 164 153 125 232 q 277 28 203 74 q 457 -17 351 -17 q 639 28 565 -17 q 751 153 713 74 q 789 332 789 232 l 789 944 l 721 944 l 721 328 q 690 182 721 247 q 599 78 658 117 q 457 40 540 40 q 318 78 378 40 q 226 182 258 117 q 193 328 193 247 l 193 944 m 467 1192 l 582 1028 l 639 1047 l 493 1240 l 438 1240 l 290 1042 l 347 1028 l 467 1192 z "},"Ü":{"ha":914,"x_min":125,"x_max":789,"o":"m 193 944 l 125 944 l 125 332 q 164 153 125 232 q 277 28 203 74 q 457 -17 351 -17 q 639 28 565 -17 q 751 153 713 74 q 789 332 789 232 l 789 944 l 721 944 l 721 328 q 690 182 721 247 q 599 78 658 117 q 457 40 540 40 q 318 78 378 40 q 226 182 258 117 q 193 328 193 247 l 193 944 m 343 1067 q 379 1081 364 1067 q 394 1118 394 1096 q 379 1154 394 1140 q 343 1168 364 1168 q 306 1154 319 1168 q 292 1118 292 1140 q 306 1081 292 1096 q 343 1067 319 1067 m 564 1067 q 600 1081 585 1067 q 615 1118 615 1096 q 600 1154 615 1140 q 564 1168 585 1168 q 526 1154 540 1168 q 513 1118 513 1140 q 526 1081 513 1096 q 564 1067 540 1067 z "},"Ū":{"ha":914,"x_min":125,"x_max":789,"o":"m 193 944 l 125 944 l 125 332 q 164 153 125 232 q 277 28 203 74 q 457 -17 351 -17 q 639 28 565 -17 q 751 153 713 74 q 789 332 789 232 l 789 944 l 721 944 l 721 328 q 690 182 721 247 q 599 78 658 117 q 457 40 540 40 q 318 78 378 40 q 226 182 258 117 q 193 328 193 247 l 193 944 m 286 1097 l 621 1097 l 614 1149 l 286 1149 l 286 1097 z "},"Ů":{"ha":914,"x_min":125,"x_max":789,"o":"m 193 944 l 125 944 l 125 332 q 164 153 125 232 q 277 28 203 74 q 457 -17 351 -17 q 639 28 565 -17 q 751 153 713 74 q 789 332 789 232 l 789 944 l 721 944 l 721 328 q 690 182 721 247 q 599 78 658 117 q 457 40 540 40 q 318 78 378 40 q 226 182 258 117 q 193 328 193 247 l 193 944 m 454 1263 q 393 1247 421 1263 q 348 1206 365 1232 q 331 1146 331 1179 q 367 1065 331 1097 q 454 1033 404 1033 q 515 1048 488 1033 q 560 1088 543 1063 q 576 1146 576 1114 q 560 1206 576 1179 q 515 1247 543 1232 q 454 1263 488 1263 m 454 1075 q 404 1095 424 1075 q 385 1146 385 1115 q 404 1199 385 1178 q 454 1219 424 1219 q 503 1199 485 1219 q 522 1146 522 1178 q 503 1095 522 1115 q 454 1075 485 1075 z "},"Ű":{"ha":914,"x_min":125,"x_max":789,"o":"m 193 944 l 125 944 l 125 332 q 164 153 125 232 q 277 28 203 74 q 457 -17 351 -17 q 639 28 565 -17 q 751 153 713 74 q 789 332 789 232 l 789 944 l 721 944 l 721 328 q 690 182 721 247 q 599 78 658 117 q 457 40 540 40 q 318 78 378 40 q 226 182 258 117 q 193 328 193 247 l 193 944 m 374 1026 l 492 1239 l 407 1239 l 329 1042 l 374 1026 m 551 1026 l 669 1239 l 585 1239 l 507 1042 l 551 1026 z "},"Ų":{"ha":914,"x_min":125,"x_max":789,"o":"m 193 944 l 125 944 l 125 332 q 164 153 125 232 q 277 28 203 74 q 457 -17 351 -17 q 639 28 565 -17 q 751 153 713 74 q 789 332 789 232 l 789 944 l 721 944 l 721 328 q 690 182 721 247 q 599 78 658 117 q 457 40 540 40 q 318 78 378 40 q 226 182 258 117 q 193 328 193 247 l 193 944 m 429 6 q 385 -42 404 -15 q 354 -99 365 -69 q 343 -154 343 -128 q 363 -224 343 -193 q 415 -271 382 -254 q 489 -287 447 -287 q 553 -276 524 -287 q 600 -246 582 -264 l 569 -208 q 534 -230 553 -222 q 493 -237 515 -237 q 437 -217 467 -237 q 407 -156 407 -197 q 415 -98 407 -125 q 440 -47 424 -71 q 481 0 456 -22 l 429 6 z "},"Ý":{"ha":736,"x_min":14,"x_max":722,"o":"m 394 0 l 394 381 l 722 944 l 643 944 l 360 446 l 82 957 l 14 928 l 326 374 l 326 0 l 394 0 m 360 1026 l 478 1239 l 393 1239 l 315 1042 l 360 1026 z "},"Ÿ":{"ha":736,"x_min":14,"x_max":722,"o":"m 394 0 l 394 381 l 722 944 l 643 944 l 360 446 l 82 957 l 14 928 l 326 374 l 326 0 l 394 0 m 246 1067 q 282 1081 267 1067 q 297 1118 297 1096 q 282 1154 297 1140 q 246 1168 267 1168 q 208 1154 222 1168 q 194 1118 194 1140 q 208 1081 194 1096 q 246 1067 222 1067 m 467 1067 q 503 1081 488 1067 q 518 1118 518 1096 q 503 1154 518 1140 q 467 1168 488 1168 q 429 1154 443 1168 q 415 1118 415 1140 q 429 1081 415 1096 q 467 1067 443 1067 z "},"Ź":{"ha":749,"x_min":42,"x_max":707,"o":"m 693 54 l 110 54 l 707 876 l 700 944 l 65 944 l 79 890 l 643 890 l 42 69 l 50 0 l 700 0 l 693 54 m 372 1026 l 490 1239 l 406 1239 l 328 1042 l 372 1026 z "},"Ż":{"ha":749,"x_min":42,"x_max":707,"o":"m 693 54 l 110 54 l 707 876 l 700 944 l 65 944 l 79 890 l 643 890 l 42 69 l 50 0 l 700 0 l 693 54 m 369 1067 q 408 1082 392 1067 q 424 1119 424 1097 q 408 1157 424 1142 q 369 1172 392 1172 q 331 1157 346 1172 q 317 1119 317 1142 q 331 1082 317 1097 q 369 1067 346 1067 z "},"Ž":{"ha":749,"x_min":42,"x_max":707,"o":"m 693 54 l 110 54 l 707 876 l 700 944 l 65 944 l 79 890 l 643 890 l 42 69 l 50 0 l 700 0 l 693 54 m 376 1075 l 257 1239 l 200 1225 l 347 1026 l 403 1026 l 549 1219 l 492 1239 l 376 1075 z "},"Ş":{"ha":700,"x_min":69,"x_max":644,"o":"m 76 40 q 118 20 89 31 q 185 1 147 10 q 262 -13 224 -8 q 329 -18 300 -18 q 502 12 432 -18 q 608 95 572 42 q 644 218 644 149 q 628 304 644 265 q 581 376 613 343 q 503 438 550 410 q 393 493 456 467 q 255 564 311 528 q 170 642 199 600 q 142 736 142 683 q 200 859 142 808 q 358 910 258 910 q 442 903 407 910 q 506 885 478 896 q 558 863 535 874 l 589 913 q 486 950 547 933 q 356 967 425 967 q 203 938 267 967 q 104 858 139 908 q 69 743 69 807 q 86 651 69 693 q 135 576 103 610 q 214 513 167 542 q 322 458 261 483 q 463 389 407 424 q 546 314 518 354 q 574 222 574 274 q 545 133 574 175 q 463 66 517 92 q 328 40 408 40 q 238 49 282 40 q 158 70 194 57 q 97 94 122 83 l 76 40 m 261 -107 q 336 -120 306 -107 q 383 -153 367 -133 q 399 -192 399 -172 q 372 -237 399 -218 q 301 -257 344 -257 q 256 -250 279 -257 q 219 -237 232 -243 l 199 -281 q 249 -299 217 -292 q 306 -307 281 -307 q 385 -292 351 -307 q 438 -251 419 -278 q 457 -189 457 -224 q 443 -140 457 -164 q 401 -97 429 -115 q 331 -71 372 -78 l 365 18 l 308 18 l 261 -107 z "},"Ţ":{"ha":742,"x_min":14,"x_max":728,"o":"m 721 944 l 14 944 l 14 890 l 336 890 l 336 0 l 404 0 l 404 890 l 728 890 l 721 944 m 303 -107 q 378 -120 347 -107 q 424 -153 408 -133 q 440 -192 440 -172 q 413 -237 440 -218 q 343 -257 386 -257 q 297 -250 321 -257 q 261 -237 274 -243 l 240 -281 q 290 -299 258 -292 q 347 -307 322 -307 q 427 -292 393 -307 q 480 -251 461 -278 q 499 -189 499 -224 q 485 -140 499 -164 q 442 -97 471 -115 q 372 -71 414 -78 l 407 18 l 350 18 l 303 -107 z "},"Ș":{"ha":700,"x_min":69,"x_max":644,"o":"m 76 40 q 118 20 89 31 q 185 1 147 10 q 262 -13 224 -8 q 329 -18 300 -18 q 502 12 432 -18 q 608 95 572 42 q 644 218 644 149 q 628 304 644 265 q 581 376 613 343 q 503 438 550 410 q 393 493 456 467 q 255 564 311 528 q 170 642 199 600 q 142 736 142 683 q 200 859 142 808 q 358 910 258 910 q 442 903 407 910 q 506 885 478 896 q 558 863 535 874 l 589 913 q 486 950 547 933 q 356 967 425 967 q 203 938 267 967 q 104 858 139 908 q 69 743 69 807 q 86 651 69 693 q 135 576 103 610 q 214 513 167 542 q 322 458 261 483 q 463 389 407 424 q 546 314 518 354 q 574 222 574 274 q 545 133 574 175 q 463 66 517 92 q 328 40 408 40 q 238 49 282 40 q 158 70 194 57 q 97 94 122 83 l 76 40 m 331 -32 q 302 -40 314 -32 q 284 -60 290 -47 q 278 -86 278 -72 q 290 -119 278 -100 q 328 -139 303 -139 q 303 -205 326 -176 q 243 -253 279 -233 l 265 -287 q 331 -239 304 -268 q 371 -172 357 -210 q 385 -92 385 -133 q 370 -51 385 -71 q 331 -32 356 -32 z "},"à":{"ha":660,"x_min":72,"x_max":568,"o":"m 143 189 q 185 295 143 251 q 318 339 226 339 l 500 339 l 500 151 q 419 72 468 104 q 304 39 369 39 q 218 59 254 39 q 163 113 182 79 q 143 189 143 147 m 146 588 q 229 621 188 607 q 339 635 271 635 q 460 589 421 635 q 500 474 500 543 l 500 390 l 313 390 q 140 338 207 390 q 72 189 72 285 q 128 42 72 101 q 299 -18 185 -18 q 416 8 363 -18 q 504 72 469 33 l 515 0 l 568 0 l 568 472 q 542 588 568 539 q 464 665 515 638 q 335 692 413 692 q 266 684 307 692 q 185 664 225 676 q 119 633 146 651 l 146 588 m 338 818 l 382 833 l 304 1031 l 219 1031 l 338 818 z "},"á":{"ha":660,"x_min":72,"x_max":568,"o":"m 143 189 q 185 295 143 251 q 318 339 226 339 l 500 339 l 500 151 q 419 72 468 104 q 304 39 369 39 q 218 59 254 39 q 163 113 182 79 q 143 189 143 147 m 146 588 q 229 621 188 607 q 339 635 271 635 q 460 589 421 635 q 500 474 500 543 l 500 390 l 313 390 q 140 338 207 390 q 72 189 72 285 q 128 42 72 101 q 299 -18 185 -18 q 416 8 363 -18 q 504 72 469 33 l 515 0 l 568 0 l 568 472 q 542 588 568 539 q 464 665 515 638 q 335 692 413 692 q 266 684 307 692 q 185 664 225 676 q 119 633 146 651 l 146 588 m 318 818 l 436 1031 l 351 1031 l 274 833 l 318 818 z "},"â":{"ha":660,"x_min":72,"x_max":568,"o":"m 143 189 q 185 295 143 251 q 318 339 226 339 l 500 339 l 500 151 q 419 72 468 104 q 304 39 369 39 q 218 59 254 39 q 163 113 182 79 q 143 189 143 147 m 146 588 q 229 621 188 607 q 339 635 271 635 q 460 589 421 635 q 500 474 500 543 l 500 390 l 313 390 q 140 338 207 390 q 72 189 72 285 q 128 42 72 101 q 299 -18 185 -18 q 416 8 363 -18 q 504 72 469 33 l 515 0 l 568 0 l 568 472 q 542 588 568 539 q 464 665 515 638 q 335 692 413 692 q 266 684 307 692 q 185 664 225 676 q 119 633 146 651 l 146 588 m 349 982 l 464 818 l 521 838 l 375 1031 l 319 1031 l 172 832 l 229 818 l 349 982 z "},"ã":{"ha":660,"x_min":72,"x_max":568,"o":"m 143 189 q 185 295 143 251 q 318 339 226 339 l 500 339 l 500 151 q 419 72 468 104 q 304 39 369 39 q 218 59 254 39 q 163 113 182 79 q 143 189 143 147 m 146 588 q 229 621 188 607 q 339 635 271 635 q 460 589 421 635 q 500 474 500 543 l 500 390 l 313 390 q 140 338 207 390 q 72 189 72 285 q 128 42 72 101 q 299 -18 185 -18 q 416 8 363 -18 q 504 72 469 33 l 515 0 l 568 0 l 568 472 q 542 588 568 539 q 464 665 515 638 q 335 692 413 692 q 266 684 307 692 q 185 664 225 676 q 119 633 146 651 l 146 588 m 475 971 q 457 918 472 939 q 413 897 442 897 q 378 908 394 897 q 346 938 361 918 q 308 967 331 957 q 256 976 285 976 q 199 963 225 976 q 156 922 172 950 q 140 850 140 894 l 194 850 q 212 903 197 882 q 257 924 226 924 q 293 914 275 924 q 329 885 311 904 q 368 855 347 865 q 413 844 389 844 q 470 858 444 844 q 512 899 496 871 q 528 971 528 928 l 475 971 z "},"ä":{"ha":660,"x_min":72,"x_max":568,"o":"m 143 189 q 185 295 143 251 q 318 339 226 339 l 500 339 l 500 151 q 419 72 468 104 q 304 39 369 39 q 218 59 254 39 q 163 113 182 79 q 143 189 143 147 m 146 588 q 229 621 188 607 q 339 635 271 635 q 460 589 421 635 q 500 474 500 543 l 500 390 l 313 390 q 140 338 207 390 q 72 189 72 285 q 128 42 72 101 q 299 -18 185 -18 q 416 8 363 -18 q 504 72 469 33 l 515 0 l 568 0 l 568 472 q 542 588 568 539 q 464 665 515 638 q 335 692 413 692 q 266 684 307 692 q 185 664 225 676 q 119 633 146 651 l 146 588 m 228 858 q 264 873 249 858 q 279 910 279 888 q 264 946 279 932 q 228 960 249 960 q 190 946 204 960 q 176 910 176 932 q 190 873 176 888 q 228 858 204 858 m 449 858 q 485 873 469 858 q 500 910 500 888 q 485 946 500 932 q 449 960 469 960 q 411 946 425 960 q 397 910 397 932 q 411 873 397 888 q 449 858 425 858 z "},"å":{"ha":660,"x_min":72,"x_max":568,"o":"m 143 189 q 185 295 143 251 q 318 339 226 339 l 500 339 l 500 151 q 419 72 468 104 q 304 39 369 39 q 218 59 254 39 q 163 113 182 79 q 143 189 143 147 m 146 588 q 229 621 188 607 q 339 635 271 635 q 460 589 421 635 q 500 474 500 543 l 500 390 l 313 390 q 140 338 207 390 q 72 189 72 285 q 128 42 72 101 q 299 -18 185 -18 q 416 8 363 -18 q 504 72 469 33 l 515 0 l 568 0 l 568 472 q 542 588 568 539 q 464 665 515 638 q 335 692 413 692 q 266 684 307 692 q 185 664 225 676 q 119 633 146 651 l 146 588 m 331 1054 q 269 1039 297 1054 q 224 997 242 1024 q 207 938 207 971 q 244 857 207 889 q 331 825 281 825 q 392 840 364 825 q 436 880 419 854 q 453 938 453 906 q 436 997 453 971 q 392 1039 419 1024 q 331 1054 364 1054 m 331 867 q 281 887 300 867 q 261 938 261 907 q 281 990 261 969 q 331 1011 300 1011 q 380 990 361 1011 q 399 938 399 969 q 380 887 399 907 q 331 867 361 867 z "},"ā":{"ha":660,"x_min":72,"x_max":568,"o":"m 143 189 q 185 295 143 251 q 318 339 226 339 l 500 339 l 500 151 q 419 72 468 104 q 304 39 369 39 q 218 59 254 39 q 163 113 182 79 q 143 189 143 147 m 146 588 q 229 621 188 607 q 339 635 271 635 q 460 589 421 635 q 500 474 500 543 l 500 390 l 313 390 q 140 338 207 390 q 72 189 72 285 q 128 42 72 101 q 299 -18 185 -18 q 416 8 363 -18 q 504 72 469 33 l 515 0 l 568 0 l 568 472 q 542 588 568 539 q 464 665 515 638 q 335 692 413 692 q 266 684 307 692 q 185 664 225 676 q 119 633 146 651 l 146 588 m 164 889 l 499 889 l 490 940 l 164 940 l 164 889 z "},"ă":{"ha":660,"x_min":72,"x_max":568,"o":"m 143 189 q 185 295 143 251 q 318 339 226 339 l 500 339 l 500 151 q 419 72 468 104 q 304 39 369 39 q 218 59 254 39 q 163 113 182 79 q 143 189 143 147 m 146 588 q 229 621 188 607 q 339 635 271 635 q 460 589 421 635 q 500 474 500 543 l 500 390 l 313 390 q 140 338 207 390 q 72 189 72 285 q 128 42 72 101 q 299 -18 185 -18 q 416 8 363 -18 q 504 72 469 33 l 515 0 l 568 0 l 568 472 q 542 588 568 539 q 464 665 515 638 q 335 692 413 692 q 266 684 307 692 q 185 664 225 676 q 119 633 146 651 l 146 588 m 454 1015 q 422 926 454 964 q 331 889 389 889 q 240 928 272 889 q 207 1015 207 967 l 150 1015 q 171 928 150 969 q 232 860 192 886 q 331 835 272 835 q 431 860 392 835 q 491 928 471 886 q 511 1015 511 969 l 454 1015 z "},"ą":{"ha":660,"x_min":72,"x_max":688,"o":"m 517 6 q 472 -42 492 -15 q 442 -99 453 -69 q 431 -154 431 -128 q 450 -224 431 -193 q 502 -271 469 -254 q 576 -287 535 -287 q 640 -276 611 -287 q 688 -246 669 -264 l 657 -208 q 622 -230 640 -222 q 581 -237 603 -237 q 524 -217 554 -237 q 494 -156 494 -197 q 503 -98 494 -125 q 527 -47 511 -71 q 568 0 543 -22 l 517 6 m 143 189 q 185 295 143 251 q 318 339 226 339 l 500 339 l 500 151 q 419 72 468 104 q 304 39 369 39 q 218 59 254 39 q 163 113 182 79 q 143 189 143 147 m 146 588 q 229 621 188 607 q 339 635 271 635 q 460 589 421 635 q 500 474 500 543 l 500 390 l 313 390 q 140 338 207 390 q 72 189 72 285 q 128 42 72 101 q 299 -18 185 -18 q 416 8 363 -18 q 504 72 469 33 l 515 0 l 568 0 l 568 472 q 542 588 568 539 q 464 665 515 638 q 335 692 413 692 q 266 684 307 692 q 185 664 225 676 q 119 633 146 651 l 146 588 z "},"ç":{"ha":624,"x_min":56,"x_max":574,"o":"m 539 86 q 466 53 503 68 q 360 39 429 39 q 233 80 285 39 q 153 190 181 121 q 126 342 126 260 q 156 488 126 421 q 239 594 185 554 q 367 635 293 635 q 471 619 431 635 q 546 588 511 604 l 574 633 q 510 664 547 651 q 435 684 472 676 q 369 692 397 692 q 200 646 271 692 q 92 521 129 600 q 56 340 56 442 q 90 155 56 236 q 193 28 125 74 q 360 -18 261 -18 q 426 -11 389 -18 q 501 9 464 -4 q 567 39 539 22 l 539 86 m 292 -107 q 367 -120 336 -107 q 413 -153 397 -133 q 429 -192 429 -172 q 402 -237 429 -218 q 332 -257 375 -257 q 286 -250 310 -257 q 250 -237 263 -243 l 229 -281 q 279 -299 247 -292 q 336 -307 311 -307 q 416 -292 382 -307 q 469 -251 450 -278 q 488 -189 488 -224 q 474 -140 488 -164 q 431 -97 460 -115 q 361 -71 403 -78 l 396 18 l 339 18 l 292 -107 z "},"ć":{"ha":624,"x_min":56,"x_max":574,"o":"m 539 86 q 466 53 503 68 q 360 39 429 39 q 233 80 285 39 q 153 190 181 121 q 126 342 126 260 q 156 488 126 421 q 239 594 185 554 q 367 635 293 635 q 471 619 431 635 q 546 588 511 604 l 574 633 q 510 664 547 651 q 435 684 472 676 q 369 692 397 692 q 200 646 271 692 q 92 521 129 600 q 56 340 56 442 q 90 155 56 236 q 193 28 125 74 q 360 -18 261 -18 q 426 -11 389 -18 q 501 9 464 -4 q 567 39 539 22 l 539 86 m 325 818 l 443 1031 l 358 1031 l 281 833 l 325 818 z "},"č":{"ha":624,"x_min":56,"x_max":574,"o":"m 539 86 q 466 53 503 68 q 360 39 429 39 q 233 80 285 39 q 153 190 181 121 q 126 342 126 260 q 156 488 126 421 q 239 594 185 554 q 367 635 293 635 q 471 619 431 635 q 546 588 511 604 l 574 633 q 510 664 547 651 q 435 684 472 676 q 369 692 397 692 q 200 646 271 692 q 92 521 129 600 q 56 340 56 442 q 90 155 56 236 q 193 28 125 74 q 360 -18 261 -18 q 426 -11 389 -18 q 501 9 464 -4 q 567 39 539 22 l 539 86 m 338 867 l 218 1031 l 161 1017 l 308 818 l 364 818 l 510 1011 l 453 1031 l 338 867 z "},"ď":{"ha":883,"x_min":56,"x_max":842,"o":"m 788 975 q 759 967 771 975 q 741 947 747 960 q 735 921 735 935 q 740 900 735 913 q 757 878 746 888 q 785 868 768 868 q 760 802 783 831 q 700 754 736 774 l 722 719 q 788 768 761 739 q 828 835 814 797 q 842 915 842 874 q 827 956 842 936 q 788 975 813 975 m 532 74 l 563 0 l 600 0 l 600 979 l 532 967 l 532 74 m 539 138 q 459 68 503 97 q 346 39 415 39 q 222 80 271 39 q 150 190 174 121 q 126 342 126 260 q 152 488 126 421 q 228 594 178 554 q 353 635 279 635 q 464 607 417 635 q 546 546 511 579 l 574 592 q 521 635 556 613 q 443 675 486 658 q 356 692 400 692 q 190 646 257 692 q 89 521 122 600 q 56 340 56 442 q 87 155 56 236 q 183 28 118 74 q 346 -18 247 -18 q 431 -5 392 -18 q 505 33 471 8 q 567 90 539 58 l 539 138 z "},"è":{"ha":667,"x_min":56,"x_max":611,"o":"m 611 336 l 611 347 q 577 524 611 446 q 485 647 543 601 q 350 692 426 692 q 185 646 251 692 q 88 521 119 600 q 56 340 56 442 q 90 155 56 236 q 194 28 124 74 q 375 -18 265 -18 q 442 -12 403 -18 q 522 6 482 -6 q 590 35 563 18 l 563 86 q 483 53 528 68 q 364 39 438 39 q 228 80 281 39 q 152 188 176 121 q 126 336 128 256 l 611 336 m 129 388 q 160 510 136 454 q 229 601 185 567 q 340 635 274 635 q 449 601 407 635 q 512 510 490 567 q 539 388 533 454 l 129 388 m 351 818 l 396 833 l 318 1031 l 233 1031 l 351 818 z "},"é":{"ha":667,"x_min":56,"x_max":611,"o":"m 611 336 l 611 347 q 577 524 611 446 q 485 647 543 601 q 350 692 426 692 q 185 646 251 692 q 88 521 119 600 q 56 340 56 442 q 90 155 56 236 q 194 28 124 74 q 375 -18 265 -18 q 442 -12 403 -18 q 522 6 482 -6 q 590 35 563 18 l 563 86 q 483 53 528 68 q 364 39 438 39 q 228 80 281 39 q 152 188 176 121 q 126 336 128 256 l 611 336 m 129 388 q 160 510 136 454 q 229 601 185 567 q 340 635 274 635 q 449 601 407 635 q 512 510 490 567 q 539 388 533 454 l 129 388 m 332 818 l 450 1031 l 365 1031 l 288 833 l 332 818 z "},"ê":{"ha":667,"x_min":56,"x_max":611,"o":"m 611 336 l 611 347 q 577 524 611 446 q 485 647 543 601 q 350 692 426 692 q 185 646 251 692 q 88 521 119 600 q 56 340 56 442 q 90 155 56 236 q 194 28 124 74 q 375 -18 265 -18 q 442 -12 403 -18 q 522 6 482 -6 q 590 35 563 18 l 563 86 q 483 53 528 68 q 364 39 438 39 q 228 80 281 39 q 152 188 176 121 q 126 336 128 256 l 611 336 m 129 388 q 160 510 136 454 q 229 601 185 567 q 340 635 274 635 q 449 601 407 635 q 512 510 490 567 q 539 388 533 454 l 129 388 m 363 982 l 478 818 l 535 838 l 389 1031 l 333 1031 l 186 832 l 243 818 l 363 982 z "},"ë":{"ha":667,"x_min":56,"x_max":611,"o":"m 611 336 l 611 347 q 577 524 611 446 q 485 647 543 601 q 350 692 426 692 q 185 646 251 692 q 88 521 119 600 q 56 340 56 442 q 90 155 56 236 q 194 28 124 74 q 375 -18 265 -18 q 442 -12 403 -18 q 522 6 482 -6 q 590 35 563 18 l 563 86 q 483 53 528 68 q 364 39 438 39 q 228 80 281 39 q 152 188 176 121 q 126 336 128 256 l 611 336 m 129 388 q 160 510 136 454 q 229 601 185 567 q 340 635 274 635 q 449 601 407 635 q 512 510 490 567 q 539 388 533 454 l 129 388 m 242 858 q 278 873 263 858 q 293 910 293 888 q 278 946 293 932 q 242 960 263 960 q 204 946 218 960 q 190 910 190 932 q 204 873 190 888 q 242 858 218 858 m 463 858 q 499 873 483 858 q 514 910 514 888 q 499 946 514 932 q 463 960 483 960 q 425 946 439 960 q 411 910 411 932 q 425 873 411 888 q 463 858 439 858 z "},"ē":{"ha":667,"x_min":56,"x_max":611,"o":"m 611 336 l 611 347 q 577 524 611 446 q 485 647 543 601 q 350 692 426 692 q 185 646 251 692 q 88 521 119 600 q 56 340 56 442 q 90 155 56 236 q 194 28 124 74 q 375 -18 265 -18 q 442 -12 403 -18 q 522 6 482 -6 q 590 35 563 18 l 563 86 q 483 53 528 68 q 364 39 438 39 q 228 80 281 39 q 152 188 176 121 q 126 336 128 256 l 611 336 m 129 388 q 160 510 136 454 q 229 601 185 567 q 340 635 274 635 q 449 601 407 635 q 512 510 490 567 q 539 388 533 454 l 129 388 m 178 889 l 513 889 l 504 940 l 178 940 l 178 889 z "},"ė":{"ha":667,"x_min":56,"x_max":611,"o":"m 611 336 l 611 347 q 577 524 611 446 q 485 647 543 601 q 350 692 426 692 q 185 646 251 692 q 88 521 119 600 q 56 340 56 442 q 90 155 56 236 q 194 28 124 74 q 375 -18 265 -18 q 442 -12 403 -18 q 522 6 482 -6 q 590 35 563 18 l 563 86 q 483 53 528 68 q 364 39 438 39 q 228 80 281 39 q 152 188 176 121 q 126 336 128 256 l 611 336 m 129 388 q 160 510 136 454 q 229 601 185 567 q 340 635 274 635 q 449 601 407 635 q 512 510 490 567 q 539 388 533 454 l 129 388 m 344 858 q 383 874 367 858 q 399 911 399 889 q 383 949 399 933 q 344 964 367 964 q 306 949 321 964 q 292 911 292 933 q 306 874 292 889 q 344 858 321 858 z "},"ę":{"ha":667,"x_min":56,"x_max":611,"o":"m 611 336 l 611 347 q 577 524 611 446 q 485 647 543 601 q 350 692 426 692 q 185 646 251 692 q 88 521 119 600 q 56 340 56 442 q 90 155 56 236 q 194 28 124 74 q 375 -18 265 -18 q 442 -12 403 -18 q 522 6 482 -6 q 590 35 563 18 l 563 86 q 483 53 528 68 q 364 39 438 39 q 228 80 281 39 q 152 188 176 121 q 126 336 128 256 l 611 336 m 129 388 q 160 510 136 454 q 229 601 185 567 q 340 635 274 635 q 449 601 407 635 q 512 510 490 567 q 539 388 533 454 l 129 388 m 429 6 q 385 -42 404 -15 q 354 -99 365 -69 q 343 -154 343 -128 q 363 -224 343 -193 q 415 -271 382 -254 q 489 -287 447 -287 q 553 -276 524 -287 q 600 -246 582 -264 l 569 -208 q 534 -230 553 -222 q 493 -237 515 -237 q 437 -217 467 -237 q 407 -156 407 -197 q 415 -98 407 -125 q 440 -47 424 -71 q 481 0 456 -22 l 429 6 z "},"ě":{"ha":667,"x_min":56,"x_max":611,"o":"m 611 336 l 611 347 q 577 524 611 446 q 485 647 543 601 q 350 692 426 692 q 185 646 251 692 q 88 521 119 600 q 56 340 56 442 q 90 155 56 236 q 194 28 124 74 q 375 -18 265 -18 q 442 -12 403 -18 q 522 6 482 -6 q 590 35 563 18 l 563 86 q 483 53 528 68 q 364 39 438 39 q 228 80 281 39 q 152 188 176 121 q 126 336 128 256 l 611 336 m 129 388 q 160 510 136 454 q 229 601 185 567 q 340 635 274 635 q 449 601 407 635 q 512 510 490 567 q 539 388 533 454 l 129 388 m 344 867 l 225 1031 l 168 1017 l 315 818 l 371 818 l 517 1011 l 460 1031 l 344 867 z "},"ğ":{"ha":706,"x_min":56,"x_max":600,"o":"m 600 674 l 563 674 l 532 572 l 532 -100 q 474 -223 532 -183 q 331 -262 415 -262 q 222 -249 267 -262 q 131 -214 178 -235 l 104 -262 q 153 -285 124 -275 q 217 -303 183 -296 q 282 -315 251 -311 q 333 -319 313 -319 q 481 -289 422 -319 q 570 -206 540 -258 q 600 -86 600 -153 l 600 674 m 539 138 q 459 68 503 97 q 346 39 415 39 q 222 80 271 39 q 150 190 174 121 q 126 342 126 260 q 152 488 126 421 q 228 594 178 554 q 353 635 279 635 q 464 607 417 635 q 546 546 511 579 l 574 592 q 521 635 556 613 q 443 675 486 658 q 356 692 400 692 q 190 646 257 692 q 89 521 122 600 q 56 340 56 442 q 87 155 56 236 q 183 28 118 74 q 346 -18 247 -18 q 431 -5 392 -18 q 505 33 471 8 q 567 90 539 58 l 539 138 m 471 1015 q 438 926 471 964 q 347 889 406 889 q 256 928 289 889 q 224 1015 224 967 l 167 1015 q 188 928 167 969 q 249 860 208 886 q 347 835 289 835 q 448 860 408 835 q 508 928 488 886 q 528 1015 528 969 l 471 1015 z "},"ì":{"ha":263,"x_min":19,"x_max":182,"o":"m 165 0 l 165 674 l 97 674 l 97 0 l 165 0 m 138 818 l 182 833 l 104 1031 l 19 1031 l 138 818 z "},"í":{"ha":263,"x_min":74,"x_max":236,"o":"m 165 0 l 165 674 l 97 674 l 97 0 l 165 0 m 118 818 l 236 1031 l 151 1031 l 74 833 l 118 818 z "},"î":{"ha":263,"x_min":-28,"x_max":321,"o":"m 165 0 l 165 674 l 97 674 l 97 0 l 165 0 m 149 982 l 264 818 l 321 838 l 175 1031 l 119 1031 l -28 832 l 29 818 l 149 982 z "},"ï":{"ha":263,"x_min":-24,"x_max":300,"o":"m 165 0 l 165 674 l 97 674 l 97 0 l 165 0 m 28 858 q 64 873 49 858 q 79 910 79 888 q 64 946 79 932 q 28 960 49 960 q -10 946 4 960 q -24 910 -24 932 q -10 873 -24 888 q 28 858 4 858 m 249 858 q 285 873 269 858 q 300 910 300 888 q 285 946 300 932 q 249 960 269 960 q 211 946 225 960 q 197 910 197 932 q 211 873 197 888 q 249 858 225 858 z "},"ī":{"ha":263,"x_min":-36,"x_max":299,"o":"m 165 0 l 165 674 l 97 674 l 97 0 l 165 0 m -36 889 l 299 889 l 290 940 l -36 940 l -36 889 z "},"į":{"ha":263,"x_min":28,"x_max":285,"o":"m 100 6 q 51 -65 74 -25 q 28 -154 28 -104 q 47 -224 28 -193 q 99 -271 67 -254 q 174 -287 132 -287 q 238 -276 208 -287 q 285 -246 267 -264 l 254 -208 q 219 -230 238 -222 q 178 -237 200 -237 q 122 -217 151 -237 q 92 -156 92 -197 q 100 -98 92 -125 q 124 -47 108 -71 q 165 0 140 -22 l 100 6 m 165 0 l 165 674 l 97 674 l 97 0 l 165 0 m 131 858 q 169 874 153 858 q 185 911 185 889 q 169 949 185 933 q 131 964 153 964 q 92 949 107 964 q 78 911 78 933 q 92 874 78 889 q 131 858 107 858 z "},"ľ":{"ha":463,"x_min":111,"x_max":421,"o":"m 367 975 q 338 967 350 975 q 320 947 326 960 q 314 921 314 935 q 319 900 314 913 q 336 878 325 888 q 364 868 347 868 q 339 802 363 831 q 279 754 315 774 l 301 719 q 367 768 340 739 q 407 835 393 797 q 421 915 421 874 q 406 956 421 936 q 367 975 392 975 m 179 0 l 179 981 l 111 967 l 111 0 l 179 0 z "},"ñ":{"ha":694,"x_min":97,"x_max":603,"o":"m 165 0 l 165 499 q 245 569 204 539 q 327 617 286 600 q 408 635 368 635 q 510 586 485 635 q 535 468 535 538 l 535 0 l 603 0 l 603 468 q 583 583 603 533 q 519 663 563 633 q 403 692 475 692 q 317 674 361 692 q 233 629 272 657 q 164 568 193 601 l 150 674 l 97 674 l 97 0 l 165 0 m 503 971 q 485 918 500 939 q 440 897 469 897 q 406 908 422 897 q 374 938 389 918 q 335 967 358 957 q 283 976 313 976 q 226 963 253 976 q 184 922 200 950 q 168 850 168 894 l 222 850 q 240 903 225 882 q 285 924 254 924 q 321 914 303 924 q 357 885 339 904 q 396 855 375 865 q 440 844 417 844 q 498 858 472 844 q 540 899 524 871 q 556 971 556 928 l 503 971 z "},"ń":{"ha":694,"x_min":97,"x_max":603,"o":"m 165 0 l 165 499 q 245 569 204 539 q 327 617 286 600 q 408 635 368 635 q 510 586 485 635 q 535 468 535 538 l 535 0 l 603 0 l 603 468 q 583 583 603 533 q 519 663 563 633 q 403 692 475 692 q 317 674 361 692 q 233 629 272 657 q 164 568 193 601 l 150 674 l 97 674 l 97 0 l 165 0 m 346 818 l 464 1031 l 379 1031 l 301 833 l 346 818 z "},"ň":{"ha":694,"x_min":97,"x_max":603,"o":"m 165 0 l 165 499 q 245 569 204 539 q 327 617 286 600 q 408 635 368 635 q 510 586 485 635 q 535 468 535 538 l 535 0 l 603 0 l 603 468 q 583 583 603 533 q 519 663 563 633 q 403 692 475 692 q 317 674 361 692 q 233 629 272 657 q 164 568 193 601 l 150 674 l 97 674 l 97 0 l 165 0 m 358 867 l 239 1031 l 182 1017 l 329 818 l 385 818 l 531 1011 l 474 1031 l 358 867 z "},"ò":{"ha":726,"x_min":56,"x_max":671,"o":"m 360 -18 q 192 29 260 -17 q 90 156 125 75 q 56 340 56 236 q 92 519 56 440 q 199 645 129 599 q 368 692 269 692 q 535 645 468 692 q 637 518 603 599 q 671 333 671 438 q 634 154 671 233 q 528 29 597 75 q 360 -18 458 -17 m 360 39 q 488 79 435 39 q 571 187 542 119 q 600 332 600 254 q 573 484 600 415 q 494 594 546 553 q 367 635 443 635 q 239 594 293 635 q 156 488 185 554 q 126 342 126 421 q 153 190 126 260 q 233 80 181 121 q 360 39 285 39 m 372 818 l 417 833 l 339 1031 l 254 1031 l 372 818 z "},"ó":{"ha":726,"x_min":56,"x_max":671,"o":"m 360 -18 q 192 29 260 -17 q 90 156 125 75 q 56 340 56 236 q 92 519 56 440 q 199 645 129 599 q 368 692 269 692 q 535 645 468 692 q 637 518 603 599 q 671 333 671 438 q 634 154 671 233 q 528 29 597 75 q 360 -18 458 -17 m 360 39 q 488 79 435 39 q 571 187 542 119 q 600 332 600 254 q 573 484 600 415 q 494 594 546 553 q 367 635 443 635 q 239 594 293 635 q 156 488 185 554 q 126 342 126 421 q 153 190 126 260 q 233 80 181 121 q 360 39 285 39 m 353 818 l 471 1031 l 386 1031 l 308 833 l 353 818 z "},"ô":{"ha":726,"x_min":56,"x_max":671,"o":"m 360 -18 q 192 29 260 -17 q 90 156 125 75 q 56 340 56 236 q 92 519 56 440 q 199 645 129 599 q 368 692 269 692 q 535 645 468 692 q 637 518 603 599 q 671 333 671 438 q 634 154 671 233 q 528 29 597 75 q 360 -18 458 -17 m 360 39 q 488 79 435 39 q 571 187 542 119 q 600 332 600 254 q 573 484 600 415 q 494 594 546 553 q 367 635 443 635 q 239 594 293 635 q 156 488 185 554 q 126 342 126 421 q 153 190 126 260 q 233 80 181 121 q 360 39 285 39 m 383 982 l 499 818 l 556 838 l 410 1031 l 354 1031 l 207 832 l 264 818 l 383 982 z "},"õ":{"ha":726,"x_min":56,"x_max":671,"o":"m 360 -18 q 192 29 260 -17 q 90 156 125 75 q 56 340 56 236 q 92 519 56 440 q 199 645 129 599 q 368 692 269 692 q 535 645 468 692 q 637 518 603 599 q 671 333 671 438 q 634 154 671 233 q 528 29 597 75 q 360 -18 458 -17 m 360 39 q 488 79 435 39 q 571 187 542 119 q 600 332 600 254 q 573 484 600 415 q 494 594 546 553 q 367 635 443 635 q 239 594 293 635 q 156 488 185 554 q 126 342 126 421 q 153 190 126 260 q 233 80 181 121 q 360 39 285 39 m 510 971 q 492 918 507 939 q 447 897 476 897 q 413 908 429 897 q 381 938 396 918 q 342 967 365 957 q 290 976 319 976 q 233 963 260 976 q 191 922 207 950 q 175 850 175 894 l 229 850 q 247 903 232 882 q 292 924 261 924 q 328 914 310 924 q 364 885 346 904 q 403 855 382 865 q 447 844 424 844 q 505 858 479 844 q 547 899 531 871 q 563 971 563 928 l 510 971 z "},"ö":{"ha":726,"x_min":56,"x_max":671,"o":"m 360 -18 q 192 29 260 -17 q 90 156 125 75 q 56 340 56 236 q 92 519 56 440 q 199 645 129 599 q 368 692 269 692 q 535 645 468 692 q 637 518 603 599 q 671 333 671 438 q 634 154 671 233 q 528 29 597 75 q 360 -18 458 -17 m 360 39 q 488 79 435 39 q 571 187 542 119 q 600 332 600 254 q 573 484 600 415 q 494 594 546 553 q 367 635 443 635 q 239 594 293 635 q 156 488 185 554 q 126 342 126 421 q 153 190 126 260 q 233 80 181 121 q 360 39 285 39 m 263 858 q 299 873 283 858 q 314 910 314 888 q 299 946 314 932 q 263 960 283 960 q 225 946 239 960 q 211 910 211 932 q 225 873 211 888 q 263 858 239 858 m 483 858 q 519 873 504 858 q 535 910 535 888 q 519 946 535 932 q 483 960 504 960 q 446 946 460 960 q 432 910 432 932 q 446 873 432 888 q 483 858 460 858 z "},"ō":{"ha":726,"x_min":56,"x_max":671,"o":"m 360 -18 q 192 29 260 -17 q 90 156 125 75 q 56 340 56 236 q 92 519 56 440 q 199 645 129 599 q 368 692 269 692 q 535 645 468 692 q 637 518 603 599 q 671 333 671 438 q 634 154 671 233 q 528 29 597 75 q 360 -18 458 -17 m 360 39 q 488 79 435 39 q 571 187 542 119 q 600 332 600 254 q 573 484 600 415 q 494 594 546 553 q 367 635 443 635 q 239 594 293 635 q 156 488 185 554 q 126 342 126 421 q 153 190 126 260 q 233 80 181 121 q 360 39 285 39 m 199 889 l 533 889 l 525 940 l 199 940 l 199 889 z "},"ő":{"ha":726,"x_min":56,"x_max":671,"o":"m 360 -18 q 192 29 260 -17 q 90 156 125 75 q 56 340 56 236 q 92 519 56 440 q 199 645 129 599 q 368 692 269 692 q 535 645 468 692 q 637 518 603 599 q 671 333 671 438 q 634 154 671 233 q 528 29 597 75 q 360 -18 458 -17 m 360 39 q 488 79 435 39 q 571 187 542 119 q 600 332 600 254 q 573 484 600 415 q 494 594 546 553 q 367 635 443 635 q 239 594 293 635 q 156 488 185 554 q 126 342 126 421 q 153 190 126 260 q 233 80 181 121 q 360 39 285 39 m 288 818 l 406 1031 l 321 1031 l 243 833 l 288 818 m 465 818 l 583 1031 l 499 1031 l 421 833 l 465 818 z "},"ŕ":{"ha":419,"x_min":97,"x_max":406,"o":"m 165 0 l 165 496 q 231 553 192 525 q 317 601 271 582 q 406 621 364 621 l 382 674 q 305 656 347 674 q 224 613 263 638 q 161 567 186 588 l 136 674 l 97 674 l 97 0 l 165 0 m 200 818 l 318 1031 l 233 1031 l 156 833 l 200 818 z "},"ř":{"ha":419,"x_min":36,"x_max":406,"o":"m 165 0 l 165 496 q 231 553 192 525 q 317 601 271 582 q 406 621 364 621 l 382 674 q 305 656 347 674 q 224 613 263 638 q 161 567 186 588 l 136 674 l 97 674 l 97 0 l 165 0 m 213 867 l 93 1031 l 36 1017 l 183 818 l 239 818 l 385 1011 l 328 1031 l 213 867 z "},"ś":{"ha":564,"x_min":58,"x_max":508,"o":"m 58 35 q 122 6 85 18 q 197 -12 158 -6 q 263 -18 235 -18 q 450 32 392 -18 q 508 171 508 82 q 480 255 508 218 q 406 319 451 292 q 304 369 360 347 q 185 431 235 397 q 135 511 135 464 q 178 597 135 560 q 292 635 221 635 q 395 618 354 635 q 464 588 436 601 l 492 636 q 435 665 469 653 q 366 685 401 678 q 301 692 331 692 q 128 638 188 692 q 69 506 69 585 q 97 427 69 463 q 169 365 124 392 q 265 318 214 339 q 356 276 315 299 q 419 226 396 253 q 443 165 443 199 q 422 99 443 128 q 360 55 400 71 q 265 39 321 39 q 198 47 231 39 q 137 68 165 56 q 83 92 108 81 l 58 35 m 285 818 l 403 1031 l 318 1031 l 240 833 l 285 818 z "},"š":{"ha":564,"x_min":58,"x_max":508,"o":"m 58 35 q 122 6 85 18 q 197 -12 158 -6 q 263 -18 235 -18 q 450 32 392 -18 q 508 171 508 82 q 480 255 508 218 q 406 319 451 292 q 304 369 360 347 q 185 431 235 397 q 135 511 135 464 q 178 597 135 560 q 292 635 221 635 q 395 618 354 635 q 464 588 436 601 l 492 636 q 435 665 469 653 q 366 685 401 678 q 301 692 331 692 q 128 638 188 692 q 69 506 69 585 q 97 427 69 463 q 169 365 124 392 q 265 318 214 339 q 356 276 315 299 q 419 226 396 253 q 443 165 443 199 q 422 99 443 128 q 360 55 400 71 q 265 39 321 39 q 198 47 231 39 q 137 68 165 56 q 83 92 108 81 l 58 35 m 297 867 l 178 1031 l 121 1017 l 268 818 l 324 818 l 469 1011 l 413 1031 l 297 867 z "},"ť":{"ha":572,"x_min":28,"x_max":531,"o":"m 476 975 q 448 967 460 975 q 430 947 436 960 q 424 921 424 935 q 429 900 424 913 q 446 878 435 888 q 474 868 457 868 q 449 802 472 831 q 389 754 425 774 l 411 719 q 476 768 450 739 q 517 835 503 797 q 531 915 531 874 q 516 956 531 936 q 476 975 501 975 m 318 653 l 196 653 l 196 865 l 128 835 l 128 653 l 28 653 l 28 601 l 128 601 l 128 161 q 146 63 128 103 q 197 3 164 24 q 272 -18 229 -18 q 308 -15 290 -18 q 340 -8 325 -12 q 364 -1 354 -4 l 347 51 q 323 44 340 49 q 290 39 306 39 q 217 80 239 39 q 196 171 196 121 l 196 601 l 347 601 l 318 653 z "},"ù":{"ha":694,"x_min":92,"x_max":597,"o":"m 529 674 l 529 175 q 449 105 490 136 q 367 56 408 74 q 286 39 326 39 q 185 88 210 39 q 160 206 160 136 l 160 674 l 92 674 l 92 206 q 112 91 92 142 q 176 11 132 40 q 292 -18 219 -18 q 378 -1 333 -18 q 463 44 422 15 q 531 106 503 72 l 544 0 l 597 0 l 597 674 l 529 674 m 347 818 l 392 833 l 314 1031 l 229 1031 l 347 818 z "},"ú":{"ha":694,"x_min":92,"x_max":597,"o":"m 529 674 l 529 175 q 449 105 490 136 q 367 56 408 74 q 286 39 326 39 q 185 88 210 39 q 160 206 160 136 l 160 674 l 92 674 l 92 206 q 112 91 92 142 q 176 11 132 40 q 292 -18 219 -18 q 378 -1 333 -18 q 463 44 422 15 q 531 106 503 72 l 544 0 l 597 0 l 597 674 l 529 674 m 328 818 l 446 1031 l 361 1031 l 283 833 l 328 818 z "},"û":{"ha":694,"x_min":92,"x_max":597,"o":"m 529 674 l 529 175 q 449 105 490 136 q 367 56 408 74 q 286 39 326 39 q 185 88 210 39 q 160 206 160 136 l 160 674 l 92 674 l 92 206 q 112 91 92 142 q 176 11 132 40 q 292 -18 219 -18 q 378 -1 333 -18 q 463 44 422 15 q 531 106 503 72 l 544 0 l 597 0 l 597 674 l 529 674 m 358 982 l 474 818 l 531 838 l 385 1031 l 329 1031 l 182 832 l 239 818 l 358 982 z "},"ü":{"ha":694,"x_min":92,"x_max":597,"o":"m 529 674 l 529 175 q 449 105 490 136 q 367 56 408 74 q 286 39 326 39 q 185 88 210 39 q 160 206 160 136 l 160 674 l 92 674 l 92 206 q 112 91 92 142 q 176 11 132 40 q 292 -18 219 -18 q 378 -1 333 -18 q 463 44 422 15 q 531 106 503 72 l 544 0 l 597 0 l 597 674 l 529 674 m 238 858 q 274 873 258 858 q 289 910 289 888 q 274 946 289 932 q 238 960 258 960 q 200 946 214 960 q 186 910 186 932 q 200 873 186 888 q 238 858 214 858 m 458 858 q 494 873 479 858 q 510 910 510 888 q 494 946 510 932 q 458 960 479 960 q 421 946 435 960 q 407 910 407 932 q 421 873 407 888 q 458 858 435 858 z "},"ū":{"ha":694,"x_min":92,"x_max":597,"o":"m 529 674 l 529 175 q 449 105 490 136 q 367 56 408 74 q 286 39 326 39 q 185 88 210 39 q 160 206 160 136 l 160 674 l 92 674 l 92 206 q 112 91 92 142 q 176 11 132 40 q 292 -18 219 -18 q 378 -1 333 -18 q 463 44 422 15 q 531 106 503 72 l 544 0 l 597 0 l 597 674 l 529 674 m 174 889 l 508 889 l 500 940 l 174 940 l 174 889 z "},"ů":{"ha":694,"x_min":92,"x_max":597,"o":"m 529 674 l 529 175 q 449 105 490 136 q 367 56 408 74 q 286 39 326 39 q 185 88 210 39 q 160 206 160 136 l 160 674 l 92 674 l 92 206 q 112 91 92 142 q 176 11 132 40 q 292 -18 219 -18 q 378 -1 333 -18 q 463 44 422 15 q 531 106 503 72 l 544 0 l 597 0 l 597 674 l 529 674 m 340 1054 q 279 1039 307 1054 q 234 997 251 1024 q 217 938 217 971 q 253 857 217 889 q 340 825 290 825 q 401 840 374 825 q 446 880 429 854 q 463 938 463 906 q 446 997 463 971 q 401 1039 429 1024 q 340 1054 374 1054 m 340 867 q 290 887 310 867 q 271 938 271 907 q 290 990 271 969 q 340 1011 310 1011 q 390 990 371 1011 q 408 938 408 969 q 390 887 408 907 q 340 867 371 867 z "},"ű":{"ha":694,"x_min":92,"x_max":597,"o":"m 529 674 l 529 175 q 449 105 490 136 q 367 56 408 74 q 286 39 326 39 q 185 88 210 39 q 160 206 160 136 l 160 674 l 92 674 l 92 206 q 112 91 92 142 q 176 11 132 40 q 292 -18 219 -18 q 378 -1 333 -18 q 463 44 422 15 q 531 106 503 72 l 544 0 l 597 0 l 597 674 l 529 674 m 263 818 l 381 1031 l 296 1031 l 218 833 l 263 818 m 440 818 l 558 1031 l 474 1031 l 396 833 l 440 818 z "},"ų":{"ha":694,"x_min":92,"x_max":717,"o":"m 546 6 q 501 -42 521 -15 q 471 -99 482 -69 q 460 -154 460 -128 q 479 -224 460 -193 q 531 -271 499 -254 q 606 -287 564 -287 q 669 -276 640 -287 q 717 -246 699 -264 l 686 -208 q 651 -230 669 -222 q 610 -237 632 -237 q 553 -217 583 -237 q 524 -156 524 -197 q 532 -98 524 -125 q 556 -47 540 -71 q 597 0 572 -22 l 546 6 m 529 674 l 529 175 q 449 105 490 136 q 367 56 408 74 q 286 39 326 39 q 185 88 210 39 q 160 206 160 136 l 160 674 l 92 674 l 92 206 q 112 91 92 142 q 176 11 132 40 q 292 -18 219 -18 q 378 -1 333 -18 q 463 44 422 15 q 531 106 503 72 l 544 0 l 597 0 l 597 674 l 529 674 z "},"ý":{"ha":597,"x_min":14,"x_max":583,"o":"m 225 -136 q 195 -188 214 -167 q 150 -224 176 -210 q 88 -251 124 -239 l 94 -304 q 176 -274 139 -294 q 239 -224 213 -254 q 279 -156 265 -193 l 583 674 l 514 674 l 300 78 l 78 682 l 14 657 l 268 0 l 225 -136 m 278 818 l 396 1031 l 311 1031 l 233 833 l 278 818 z "},"ÿ":{"ha":597,"x_min":14,"x_max":583,"o":"m 225 -136 q 195 -188 214 -167 q 150 -224 176 -210 q 88 -251 124 -239 l 94 -304 q 176 -274 139 -294 q 239 -224 213 -254 q 279 -156 265 -193 l 583 674 l 514 674 l 300 78 l 78 682 l 14 657 l 268 0 l 225 -136 m 188 858 q 224 873 208 858 q 239 910 239 888 q 224 946 239 932 q 188 960 208 960 q 150 946 164 960 q 136 910 136 932 q 150 873 136 888 q 188 858 164 858 m 408 858 q 444 873 429 858 q 460 910 460 888 q 444 946 460 932 q 408 960 429 960 q 371 946 385 960 q 357 910 357 932 q 371 873 357 888 q 408 858 385 858 z "},"ź":{"ha":600,"x_min":39,"x_max":561,"o":"m 557 674 l 79 674 l 101 622 l 486 622 l 39 43 l 50 0 l 553 0 l 539 51 l 110 51 l 561 629 l 557 674 m 299 818 l 417 1031 l 332 1031 l 254 833 l 299 818 z "},"ż":{"ha":600,"x_min":39,"x_max":561,"o":"m 557 674 l 79 674 l 101 622 l 486 622 l 39 43 l 50 0 l 553 0 l 539 51 l 110 51 l 561 629 l 557 674 m 311 858 q 349 874 333 858 q 365 911 365 889 q 349 949 365 933 q 311 964 333 964 q 273 949 288 964 q 258 911 258 933 q 273 874 258 889 q 311 858 288 858 z "},"ž":{"ha":600,"x_min":39,"x_max":561,"o":"m 557 674 l 79 674 l 101 622 l 486 622 l 39 43 l 50 0 l 553 0 l 539 51 l 110 51 l 561 629 l 557 674 m 311 867 l 192 1031 l 135 1017 l 282 818 l 338 818 l 483 1011 l 426 1031 l 311 867 z "},"ş":{"ha":564,"x_min":58,"x_max":508,"o":"m 58 35 q 122 6 85 18 q 197 -12 158 -6 q 263 -18 235 -18 q 450 32 392 -18 q 508 171 508 82 q 480 255 508 218 q 406 319 451 292 q 304 369 360 347 q 185 431 235 397 q 135 511 135 464 q 178 597 135 560 q 292 635 221 635 q 395 618 354 635 q 464 588 436 601 l 492 636 q 435 665 469 653 q 366 685 401 678 q 301 692 331 692 q 128 638 188 692 q 69 506 69 585 q 97 427 69 463 q 169 365 124 392 q 265 318 214 339 q 356 276 315 299 q 419 226 396 253 q 443 165 443 199 q 422 99 443 128 q 360 55 400 71 q 265 39 321 39 q 198 47 231 39 q 137 68 165 56 q 83 92 108 81 l 58 35 m 194 -107 q 269 -120 239 -107 q 316 -153 300 -133 q 332 -192 332 -172 q 305 -237 332 -218 q 235 -257 278 -257 q 189 -250 213 -257 q 153 -237 165 -243 l 132 -281 q 182 -299 150 -292 q 239 -307 214 -307 q 319 -292 285 -307 q 372 -251 353 -278 q 390 -189 390 -224 q 376 -140 390 -164 q 334 -97 363 -115 q 264 -71 306 -78 l 299 18 l 242 18 l 194 -107 z "},"ţ":{"ha":406,"x_min":28,"x_max":388,"o":"m 318 653 l 196 653 l 196 865 l 128 835 l 128 653 l 28 653 l 28 601 l 128 601 l 128 161 q 146 63 128 103 q 197 3 164 24 q 272 -18 229 -18 q 308 -15 290 -18 q 340 -8 325 -12 q 364 -1 354 -4 l 347 51 q 323 44 340 49 q 290 39 306 39 q 217 80 239 39 q 196 171 196 121 l 196 601 l 347 601 l 318 653 m 192 -107 q 267 -120 236 -107 q 313 -153 297 -133 q 329 -192 329 -172 q 302 -237 329 -218 q 232 -257 275 -257 q 186 -250 210 -257 q 150 -237 163 -243 l 129 -281 q 179 -299 147 -292 q 236 -307 211 -307 q 316 -292 282 -307 q 369 -251 350 -278 q 388 -189 388 -224 q 374 -140 388 -164 q 331 -97 360 -115 q 261 -71 303 -78 l 296 18 l 239 18 l 192 -107 z "},"ș":{"ha":564,"x_min":58,"x_max":508,"o":"m 58 35 q 122 6 85 18 q 197 -12 158 -6 q 263 -18 235 -18 q 450 32 392 -18 q 508 171 508 82 q 480 255 508 218 q 406 319 451 292 q 304 369 360 347 q 185 431 235 397 q 135 511 135 464 q 178 597 135 560 q 292 635 221 635 q 395 618 354 635 q 464 588 436 601 l 492 636 q 435 665 469 653 q 366 685 401 678 q 301 692 331 692 q 128 638 188 692 q 69 506 69 585 q 97 427 69 463 q 169 365 124 392 q 265 318 214 339 q 356 276 315 299 q 419 226 396 253 q 443 165 443 199 q 422 99 443 128 q 360 55 400 71 q 265 39 321 39 q 198 47 231 39 q 137 68 165 56 q 83 92 108 81 l 58 35 m 264 -35 q 235 -42 247 -35 q 217 -62 224 -50 q 211 -89 211 -75 q 224 -122 211 -103 q 261 -142 236 -142 q 236 -208 260 -179 q 176 -256 213 -236 l 199 -290 q 264 -242 238 -271 q 304 -174 290 -212 q 318 -94 318 -136 q 303 -54 318 -74 q 264 -35 289 -35 z "},"­":{"ha":167,"x_min":0,"x_max":0,"o":""},"µ":{"ha":708,"x_min":106,"x_max":611,"o":"m 174 -289 l 174 581 l 106 553 l 106 -304 l 174 -289 m 543 674 l 543 175 q 463 105 504 136 q 381 56 422 74 q 300 39 340 39 q 199 88 224 39 q 174 206 174 136 l 174 674 l 106 674 l 106 206 q 126 91 106 142 q 190 11 146 40 q 306 -18 233 -18 q 392 -1 347 -18 q 476 44 436 15 q 544 106 517 72 l 558 0 l 611 0 l 611 674 l 543 674 z "},"ˉ":{"ha":363,"x_min":14,"x_max":349,"o":"m 14 903 l 349 903 l 340 957 l 14 957 l 14 903 z "},"ℓ":{"ha":469,"x_min":14,"x_max":428,"o":"m 31 257 q 59 276 44 267 q 90 298 74 286 q 121 321 106 310 l 121 176 q 143 73 121 117 q 206 6 165 29 q 297 -17 246 -17 q 325 -13 310 -17 q 355 -3 340 -10 q 378 8 369 3 l 361 60 q 337 48 353 56 q 299 40 321 40 q 239 59 264 40 q 201 107 214 78 q 189 169 189 136 l 189 381 q 305 508 250 439 q 394 651 360 578 q 428 797 428 725 q 408 892 428 853 q 353 953 389 932 q 271 975 318 975 q 192 953 226 975 q 140 889 158 931 q 121 786 121 847 l 121 404 q 86 376 104 390 q 50 348 68 361 q 14 322 32 335 l 31 257 m 189 468 l 189 786 q 213 886 189 854 q 272 918 236 918 q 333 887 307 918 q 358 794 358 856 q 309 626 358 711 q 189 468 260 542 z "},"Ω":{"ha":975,"x_min":69,"x_max":906,"o":"m 833 469 q 820 352 833 414 q 783 232 807 290 q 725 129 758 174 q 651 61 692 85 l 644 0 l 897 0 l 903 54 l 736 54 q 826 161 789 93 q 885 310 864 229 q 906 468 906 390 q 857 719 906 607 q 716 899 808 832 q 490 967 624 967 q 265 899 360 967 q 120 719 171 832 q 69 468 69 607 q 90 310 69 390 q 149 161 111 229 q 238 54 188 93 l 72 54 l 78 0 l 335 0 l 328 61 q 254 129 288 85 q 197 232 221 174 q 159 352 172 290 q 146 469 146 414 q 190 690 146 592 q 313 847 235 789 q 490 906 392 906 q 667 847 590 906 q 789 690 744 789 q 833 469 833 592 z "},"∆":{"ha":794,"x_min":14,"x_max":781,"o":"m 357 944 l 14 0 l 781 0 l 781 15 l 421 944 l 357 944 m 690 54 l 101 54 l 390 853 l 690 54 z "},"∕":{"ha":521,"x_min":14,"x_max":507,"o":"m 442 986 l 14 0 l 78 -6 l 507 981 l 442 986 z "},"∙":{"ha":254,"x_min":42,"x_max":213,"o":"m 128 368 q 170 380 151 368 q 201 411 189 392 q 213 453 213 431 q 201 497 213 478 q 170 528 189 517 q 128 539 151 539 q 84 528 104 539 q 53 497 64 517 q 42 453 42 478 q 53 411 42 431 q 84 380 64 392 q 128 368 104 368 z "},"₺":{"ha":682,"x_min":0,"x_max":654,"o":"m 175 0 l 243 0 q 393 36 319 0 q 526 136 467 72 q 619 283 585 200 q 654 460 654 367 l 590 460 q 560 310 590 383 q 478 180 529 238 q 365 88 426 122 q 243 54 304 54 l 243 554 l 478 638 l 468 690 l 243 611 l 243 704 l 478 788 l 468 840 l 243 761 l 243 981 l 175 967 l 175 736 l 0 675 l 8 621 l 175 679 l 175 586 l 0 525 l 8 471 l 175 529 l 175 0 z "},"₽":{"ha":761,"x_min":51,"x_max":706,"o":"m 608 283 l 51 283 l 58 229 l 615 229 l 608 283 m 207 0 l 207 367 l 350 367 q 488 384 424 367 q 601 437 553 401 q 678 528 650 472 q 706 660 706 583 q 661 825 706 763 q 540 916 617 888 q 365 944 464 944 l 139 944 l 139 0 l 207 0 m 382 889 q 515 865 458 889 q 604 791 572 842 q 636 658 636 740 q 600 527 636 581 q 503 447 564 474 q 367 421 442 421 l 207 421 l 207 889 l 382 889 m 174 421 l 51 421 l 58 367 l 181 367 l 174 421 z "},"¢":{"ha":624,"x_min":56,"x_max":574,"o":"m 394 663 l 394 840 l 333 826 l 333 663 l 394 663 m 394 0 l 333 0 l 333 -154 l 394 -154 l 394 0 m 539 86 q 466 53 503 68 q 360 39 429 39 q 233 80 285 39 q 153 190 181 121 q 126 342 126 260 q 156 488 126 421 q 239 594 185 554 q 367 635 293 635 q 471 619 431 635 q 546 588 511 604 l 574 633 q 510 664 547 651 q 435 684 472 676 q 369 692 397 692 q 200 646 271 692 q 92 521 129 600 q 56 340 56 442 q 90 155 56 236 q 193 28 125 74 q 360 -18 261 -18 q 426 -11 389 -18 q 501 9 464 -4 q 567 39 539 22 l 539 86 z "},"£":{"ha":592,"x_min":83,"x_max":578,"o":"m 97 0 l 578 0 l 569 54 l 206 54 q 244 116 236 81 q 253 199 253 151 l 253 464 l 478 464 l 447 515 l 253 515 l 253 779 q 274 861 253 829 q 349 893 296 893 q 380 889 363 893 q 406 881 397 885 l 422 932 q 399 940 414 936 q 367 947 385 944 q 331 950 350 950 q 249 926 281 950 q 201 859 217 903 q 185 757 185 815 l 185 515 l 83 515 l 86 464 l 185 464 l 185 169 q 165 88 185 119 q 94 54 144 56 l 97 0 z "},"¤":{"ha":918,"x_min":42,"x_max":876,"o":"m 82 -75 l 228 67 q 327 4 271 26 q 451 -18 383 -18 q 582 6 522 -18 q 685 71 642 29 l 836 -75 l 876 -31 l 726 117 q 779 217 761 161 q 797 332 797 272 q 780 452 797 394 q 731 557 763 510 l 876 701 l 836 746 l 690 604 q 592 668 649 644 q 465 692 535 692 q 334 668 394 692 q 229 603 274 644 l 82 746 l 42 701 l 189 557 q 138 458 156 513 q 121 342 121 403 q 138 217 121 275 q 188 114 156 160 l 42 -31 l 82 -75 m 726 332 q 691 185 726 251 q 594 78 656 118 q 451 39 532 39 q 318 78 376 39 q 226 187 260 118 q 192 342 192 256 q 226 488 192 421 q 323 594 261 554 q 465 635 385 635 q 607 592 549 635 q 696 481 665 550 q 726 332 726 413 z "},"¥":{"ha":736,"x_min":14,"x_max":722,"o":"m 86 414 l 93 360 l 650 360 l 643 414 l 86 414 m 86 179 l 93 125 l 650 125 l 643 179 l 86 179 m 394 0 l 394 381 l 722 944 l 643 944 l 360 446 l 82 957 l 14 928 l 326 374 l 326 0 l 394 0 z "},"€":{"ha":824,"x_min":0,"x_max":782,"o":"m 0 619 l 7 565 l 564 565 l 557 619 l 0 619 m 0 368 l 7 314 l 564 314 l 557 368 l 0 368 m 782 913 q 714 942 757 931 q 628 958 671 953 q 556 964 585 964 q 374 926 454 964 q 238 819 293 888 q 154 661 183 751 q 125 467 125 571 q 151 283 125 371 q 228 128 176 196 q 359 20 279 60 q 547 -19 439 -19 q 632 -12 588 -19 q 717 6 676 -6 q 782 32 757 18 l 749 82 q 663 53 711 65 q 540 40 615 40 q 397 75 460 40 q 290 169 333 110 q 224 306 247 229 q 201 468 201 383 q 248 699 201 601 q 374 851 294 797 q 553 904 454 904 q 637 899 603 904 q 699 884 671 893 q 754 863 726 875 l 782 913 z "},"$":{"ha":742,"x_min":69,"x_max":644,"o":"m 268 -154 l 268 -14 q 191 0 231 -8 q 120 19 151 8 q 76 40 89 31 l 97 94 q 158 70 122 83 q 238 49 194 57 q 328 40 282 40 q 463 66 408 40 q 545 133 517 92 q 574 222 574 175 q 546 314 574 274 q 463 389 518 354 q 322 458 407 424 q 214 513 261 483 q 135 576 167 542 q 86 651 103 610 q 69 743 69 693 q 122 881 69 822 q 268 958 175 939 l 268 1093 l 324 1107 l 324 964 q 338 966 329 965 q 356 967 347 967 q 387 966 371 967 q 417 963 403 965 l 417 1097 l 474 1111 l 474 953 q 537 935 507 946 q 589 913 567 924 l 558 863 q 506 885 535 874 q 442 903 478 896 q 358 910 407 910 q 200 859 258 910 q 142 736 142 808 q 170 642 142 683 q 255 564 199 600 q 393 493 311 528 q 503 438 456 467 q 581 376 550 410 q 628 304 613 343 q 644 218 644 265 q 601 85 644 142 q 474 1 558 29 l 474 -154 l 417 -154 l 417 -11 q 375 -16 397 -14 q 329 -18 353 -18 l 324 -18 l 324 -154 l 268 -154 z "},",":{"ha":211,"x_min":28,"x_max":169,"o":"m 115 106 q 87 98 99 106 q 69 78 75 90 q 63 51 63 65 q 68 30 63 42 q 85 8 74 18 q 113 -1 96 -1 q 88 -67 111 -39 q 28 -115 64 -96 l 50 -150 q 115 -101 89 -131 q 156 -35 142 -72 q 169 46 169 3 q 155 86 169 67 q 115 106 140 106 z "},".":{"ha":190,"x_min":42,"x_max":149,"o":"m 94 0 q 133 15 117 0 q 149 53 149 31 q 133 90 149 75 q 94 106 117 106 q 56 90 71 106 q 42 53 42 75 q 56 15 42 31 q 94 0 71 0 z "},"!":{"ha":192,"x_min":42,"x_max":150,"o":"m 75 257 l 138 228 l 150 975 l 75 975 l 75 257 m 94 106 q 56 90 71 106 q 42 53 42 75 q 56 15 42 31 q 94 0 71 0 q 133 15 117 0 q 149 53 149 31 q 133 90 149 75 q 94 106 117 106 z "},"¡":{"ha":192,"x_min":42,"x_max":150,"o":"m 97 869 q 135 885 121 869 q 150 922 150 900 q 135 960 150 944 q 97 975 121 975 q 59 960 75 975 q 43 922 43 944 q 59 885 43 900 q 97 869 75 869 m 117 718 l 54 747 l 42 0 l 117 0 l 117 718 z "},":":{"ha":190,"x_min":42,"x_max":149,"o":"m 94 507 q 133 522 117 507 q 149 560 149 538 q 133 597 149 582 q 94 613 117 613 q 56 597 71 613 q 42 560 42 582 q 56 522 42 538 q 94 507 71 507 m 94 64 q 133 79 117 64 q 149 117 149 94 q 133 154 149 139 q 94 169 117 169 q 56 154 71 169 q 42 117 42 139 q 56 79 42 94 q 94 64 71 64 z "},";":{"ha":211,"x_min":28,"x_max":169,"o":"m 115 507 q 153 522 138 507 q 169 560 169 538 q 153 597 169 582 q 115 613 138 613 q 77 597 92 613 q 63 560 63 582 q 77 522 63 538 q 115 507 92 507 m 115 169 q 87 162 99 169 q 69 142 75 154 q 63 115 63 129 q 68 94 63 107 q 85 72 74 82 q 113 63 96 63 q 88 -3 111 25 q 28 -51 64 -32 l 50 -86 q 115 -37 89 -67 q 156 30 142 -8 q 169 110 169 68 q 155 150 169 131 q 115 169 140 169 z "},"?":{"ha":544,"x_min":14,"x_max":503,"o":"m 258 975 q 113 949 176 975 q 14 890 50 922 l 25 833 q 130 895 79 872 q 256 918 181 918 q 382 874 335 918 q 429 746 429 829 q 365 603 429 667 q 193 504 301 539 l 203 219 l 249 190 l 263 461 q 394 542 340 496 q 475 642 447 589 q 503 747 503 694 q 476 865 503 814 q 396 946 450 917 q 258 975 342 975 m 214 106 q 176 90 190 106 q 161 53 161 75 q 176 15 161 31 q 214 0 190 0 q 252 15 236 0 q 268 53 268 31 q 252 90 268 75 q 214 106 236 106 z "},"¿":{"ha":544,"x_min":42,"x_max":531,"o":"m 331 758 q 369 774 354 758 q 383 811 383 789 q 369 849 383 833 q 331 864 354 864 q 292 849 308 864 q 276 811 276 833 q 292 774 276 789 q 331 758 308 758 m 286 -111 q 431 -85 368 -111 q 531 -26 494 -58 l 519 31 q 415 -31 465 -8 q 289 -54 364 -54 q 163 -10 210 -54 q 115 118 115 35 q 179 261 115 197 q 351 360 243 325 l 342 644 l 296 674 l 282 403 q 151 322 206 369 q 69 222 97 275 q 42 117 42 169 q 68 -1 42 50 q 149 -82 94 -53 q 286 -111 204 -111 z "},"*":{"ha":435,"x_min":14,"x_max":421,"o":"m 239 1075 l 190 1075 l 190 908 l 31 951 l 14 907 l 174 867 l 64 701 l 114 679 l 217 836 l 326 679 l 369 701 l 260 867 l 421 907 l 403 951 l 239 908 l 239 1075 z "},"\"":{"ha":382,"x_min":28,"x_max":340,"o":"m 286 975 q 258 967 269 975 q 240 947 246 960 q 233 921 233 935 q 246 888 233 907 q 283 868 258 868 q 258 802 282 831 q 199 754 235 774 l 221 719 q 286 768 260 739 q 326 835 313 797 q 340 915 340 874 q 326 956 340 936 q 286 975 311 975 m 115 975 q 87 967 99 975 q 69 947 75 960 q 63 921 63 935 q 68 900 63 913 q 85 878 74 888 q 113 868 96 868 q 88 802 111 831 q 28 754 64 774 l 50 719 q 115 768 89 739 q 156 835 142 797 q 169 915 169 874 q 155 956 169 936 q 115 975 140 975 z "},"'":{"ha":211,"x_min":28,"x_max":169,"o":"m 115 975 q 87 967 99 975 q 69 947 75 960 q 63 921 63 935 q 68 900 63 913 q 85 878 74 888 q 113 868 96 868 q 88 802 111 831 q 28 754 64 774 l 50 719 q 115 768 89 739 q 156 835 142 797 q 169 915 169 874 q 155 956 169 936 q 115 975 140 975 z "},"‘":{"ha":211,"x_min":42,"x_max":183,"o":"m 96 719 q 125 727 114 719 q 142 747 136 735 q 149 774 149 760 q 136 807 149 788 q 99 826 124 826 q 124 892 100 864 q 183 940 147 921 l 161 975 q 96 927 122 957 q 56 860 69 897 q 42 779 42 822 q 56 739 42 758 q 96 719 71 719 z "},"’":{"ha":211,"x_min":28,"x_max":169,"o":"m 115 975 q 87 967 99 975 q 69 947 75 960 q 63 921 63 935 q 68 900 63 913 q 85 878 74 888 q 113 868 96 868 q 88 802 111 831 q 28 754 64 774 l 50 719 q 115 768 89 739 q 156 835 142 797 q 169 915 169 874 q 155 956 169 936 q 115 975 140 975 z "},"‚":{"ha":211,"x_min":28,"x_max":169,"o":"m 115 106 q 87 98 99 106 q 69 78 75 90 q 63 51 63 65 q 68 30 63 42 q 85 8 74 18 q 113 -1 96 -1 q 88 -67 111 -39 q 28 -115 64 -96 l 50 -150 q 115 -101 89 -131 q 156 -35 142 -72 q 169 46 169 3 q 155 86 169 67 q 115 106 140 106 z "},"“":{"ha":382,"x_min":42,"x_max":354,"o":"m 96 719 q 125 727 114 719 q 142 747 136 735 q 149 774 149 760 q 136 807 149 788 q 99 826 124 826 q 124 892 100 864 q 183 940 147 921 l 161 975 q 96 927 122 957 q 56 860 69 897 q 42 779 42 822 q 56 739 42 758 q 96 719 71 719 m 267 719 q 296 727 285 719 q 313 747 307 735 q 319 774 319 760 q 314 795 319 783 q 297 817 308 807 q 269 826 286 826 q 294 892 271 864 q 354 940 318 921 l 332 975 q 267 927 293 957 q 226 860 240 897 q 213 779 213 822 q 227 739 213 758 q 267 719 242 719 z "},"”":{"ha":382,"x_min":28,"x_max":340,"o":"m 286 975 q 258 967 269 975 q 240 947 246 960 q 233 921 233 935 q 246 888 233 907 q 283 868 258 868 q 258 802 282 831 q 199 754 235 774 l 221 719 q 286 768 260 739 q 326 835 313 797 q 340 915 340 874 q 326 956 340 936 q 286 975 311 975 m 115 975 q 87 967 99 975 q 69 947 75 960 q 63 921 63 935 q 68 900 63 913 q 85 878 74 888 q 113 868 96 868 q 88 802 111 831 q 28 754 64 774 l 50 719 q 115 768 89 739 q 156 835 142 797 q 169 915 169 874 q 155 956 169 936 q 115 975 140 975 z "},"„":{"ha":382,"x_min":28,"x_max":340,"o":"m 115 106 q 87 98 99 106 q 69 78 75 90 q 63 51 63 65 q 68 30 63 42 q 85 8 74 18 q 113 -1 96 -1 q 88 -67 111 -39 q 28 -115 64 -96 l 50 -150 q 115 -101 89 -131 q 156 -35 142 -72 q 169 46 169 3 q 155 86 169 67 q 115 106 140 106 m 286 106 q 258 98 269 106 q 240 78 246 90 q 233 51 233 65 q 246 18 233 38 q 283 -1 258 -1 q 258 -67 282 -39 q 199 -115 235 -96 l 221 -150 q 286 -101 260 -131 q 326 -35 313 -72 q 340 46 340 3 q 326 86 340 67 q 286 106 311 106 z "},"·":{"ha":190,"x_min":42,"x_max":149,"o":"m 94 311 q 133 326 117 311 q 149 364 149 342 q 133 401 149 386 q 94 417 117 417 q 56 401 71 417 q 42 364 42 386 q 56 326 42 342 q 94 311 71 311 z "},"(":{"ha":332,"x_min":69,"x_max":290,"o":"m 290 -26 q 233 63 260 6 q 185 191 206 121 q 152 328 164 261 q 140 446 140 396 q 152 562 140 496 q 185 696 164 628 q 233 822 206 764 q 290 913 260 879 l 235 938 q 140 777 176 864 q 87 604 104 690 q 69 444 69 518 q 87 284 69 371 q 140 110 104 197 q 235 -51 176 24 l 290 -26 z "},")":{"ha":332,"x_min":42,"x_max":263,"o":"m 42 913 q 98 822 71 879 q 147 695 125 764 q 180 560 168 626 q 192 443 192 493 q 180 326 192 393 q 147 190 168 260 q 98 63 125 121 q 42 -26 71 6 l 97 -51 q 190 110 154 24 q 244 284 226 197 q 263 444 263 371 q 244 604 263 518 q 190 777 226 690 q 97 938 154 864 l 42 913 z "},"[":{"ha":368,"x_min":139,"x_max":354,"o":"m 139 -122 l 354 -122 l 343 -68 l 207 -68 l 207 913 l 343 913 l 354 967 l 139 967 l 139 -122 z "},"]":{"ha":368,"x_min":14,"x_max":229,"o":"m 229 967 l 14 967 l 25 913 l 161 913 l 161 -68 l 25 -68 l 14 -122 l 229 -122 l 229 967 z "},"{":{"ha":368,"x_min":42,"x_max":354,"o":"m 179 426 q 241 482 214 443 q 268 582 268 521 q 262 624 268 600 q 242 679 256 649 q 222 735 228 710 q 215 778 215 760 q 240 834 215 807 q 315 861 264 861 l 342 861 l 354 915 l 318 915 q 188 876 231 915 q 146 769 146 836 q 152 722 146 747 q 171 669 158 697 q 190 617 183 642 q 196 569 196 592 q 163 485 196 518 q 88 453 129 453 l 42 453 l 42 400 l 88 400 q 163 367 129 400 q 196 283 196 335 q 190 236 196 261 q 171 183 183 211 q 152 131 158 156 q 146 83 146 106 q 188 -23 146 17 q 318 -62 231 -62 l 354 -62 l 342 -8 l 315 -8 q 240 19 264 -8 q 215 75 215 46 q 222 119 215 94 q 242 174 228 143 q 262 228 256 204 q 268 271 268 253 q 241 371 268 332 q 179 426 214 410 z "},"}":{"ha":368,"x_min":14,"x_max":326,"o":"m 189 426 q 127 371 154 410 q 100 271 100 332 q 106 228 100 253 q 126 174 113 204 q 147 119 140 143 q 153 75 153 94 q 128 19 153 46 q 53 -8 104 -8 l 26 -8 l 14 -62 l 50 -62 q 180 -23 138 -62 q 222 83 222 17 q 216 131 222 106 q 197 183 210 156 q 178 236 185 211 q 172 283 172 261 q 206 367 172 335 q 281 400 239 400 l 326 400 l 326 453 l 281 453 q 206 485 239 453 q 172 569 172 518 q 178 617 172 592 q 197 669 185 642 q 216 722 210 697 q 222 769 222 747 q 180 876 222 836 q 50 915 138 915 l 14 915 l 26 861 l 53 861 q 128 834 104 861 q 153 778 153 807 q 147 735 153 760 q 126 679 140 710 q 106 624 113 649 q 100 582 100 600 q 127 482 100 521 q 189 426 154 443 z "},"/":{"ha":521,"x_min":14,"x_max":507,"o":"m 442 986 l 14 0 l 78 -6 l 507 981 l 442 986 z "},"\\":{"ha":521,"x_min":14,"x_max":507,"o":"m 507 0 l 79 986 l 14 981 l 442 -6 l 507 0 z "},"|":{"ha":346,"x_min":139,"x_max":207,"o":"m 139 986 l 139 0 l 207 -6 l 207 981 l 139 986 z "},"¦":{"ha":346,"x_min":139,"x_max":207,"o":"m 139 986 l 139 569 l 207 564 l 207 981 l 139 986 m 139 406 l 139 0 l 207 -6 l 207 400 l 139 406 z "},"«":{"ha":504,"x_min":42,"x_max":476,"o":"m 253 318 l 447 117 l 476 160 l 306 340 l 476 521 l 447 564 l 253 363 l 253 318 m 42 318 l 236 117 l 265 160 l 96 340 l 265 521 l 236 564 l 42 363 l 42 318 z "},"»":{"ha":504,"x_min":28,"x_max":463,"o":"m 251 363 l 57 564 l 28 521 l 199 340 l 28 160 l 57 117 l 251 318 l 251 363 m 463 363 l 268 564 l 239 521 l 408 340 l 239 160 l 268 117 l 463 318 l 463 363 z "},"π":{"ha":751,"x_min":14,"x_max":738,"o":"m 219 0 l 219 619 l 531 619 l 531 0 l 599 0 l 599 619 l 738 619 l 738 674 l 14 674 l 14 619 l 151 619 l 151 0 l 219 0 z "},"†":{"ha":508,"x_min":42,"x_max":467,"o":"m 214 1088 l 214 860 l 42 860 l 68 808 l 214 808 l 214 0 l 282 -6 l 282 808 l 467 808 l 440 860 l 282 860 l 282 1083 l 214 1088 z "},"‡":{"ha":522,"x_min":42,"x_max":481,"o":"m 293 1 l 293 267 l 481 267 l 454 318 l 293 318 l 293 750 l 481 750 l 454 801 l 293 801 l 293 1083 l 225 1088 l 225 801 l 42 801 l 68 750 l 225 750 l 225 318 l 42 318 l 68 267 l 225 267 l 225 -8 l 293 1 z "},"•":{"ha":254,"x_min":42,"x_max":213,"o":"m 128 368 q 170 380 151 368 q 201 411 189 392 q 213 453 213 431 q 201 497 213 478 q 170 528 189 517 q 128 539 151 539 q 84 528 104 539 q 53 497 64 517 q 42 453 42 478 q 53 411 42 431 q 84 380 64 392 q 128 368 104 368 z "},"…":{"ha":496,"x_min":42,"x_max":454,"o":"m 94 0 q 129 14 115 0 q 143 50 143 28 q 129 86 143 72 q 94 100 115 100 q 57 86 72 100 q 42 50 42 72 q 57 14 42 28 q 94 0 72 0 m 250 0 q 285 14 271 0 q 299 50 299 28 q 285 86 299 72 q 250 100 271 100 q 213 86 228 100 q 197 50 197 72 q 213 14 197 28 q 250 0 228 0 m 406 0 q 440 14 426 0 q 454 50 454 28 q 440 86 454 72 q 406 100 426 100 q 368 86 383 100 q 353 50 353 72 q 368 14 353 28 q 406 0 383 0 z "},"‹":{"ha":293,"x_min":42,"x_max":265,"o":"m 42 321 l 236 115 l 265 163 l 100 340 l 265 518 l 236 567 l 42 360 l 42 321 z "},"›":{"ha":293,"x_min":28,"x_max":251,"o":"m 251 361 l 57 567 l 28 519 l 193 342 l 28 164 l 57 115 l 251 322 l 251 361 z "},"-":{"ha":432,"x_min":42,"x_max":390,"o":"m 379 406 l 42 406 l 53 351 l 390 351 l 379 406 z "},"_":{"ha":596,"x_min":42,"x_max":554,"o":"m 543 54 l 42 54 l 53 0 l 554 0 l 543 54 z "},"–":{"ha":600,"x_min":42,"x_max":558,"o":"m 547 407 l 42 407 l 53 353 l 558 353 l 547 407 z "},"—":{"ha":728,"x_min":42,"x_max":686,"o":"m 675 407 l 42 407 l 53 353 l 686 353 l 675 407 z "},"#":{"ha":690,"x_min":42,"x_max":649,"o":"m 528 697 l 482 515 l 300 515 l 346 697 l 281 697 l 235 515 l 42 515 l 53 461 l 221 461 l 168 249 l 42 249 l 53 194 l 154 194 l 107 6 l 171 0 l 219 194 l 401 194 l 354 6 l 418 0 l 467 194 l 649 194 l 639 249 l 481 249 l 533 461 l 649 461 l 639 515 l 547 515 l 593 697 l 528 697 m 468 461 l 415 249 l 233 249 l 286 461 l 468 461 z "},"%":{"ha":1124,"x_min":56,"x_max":1068,"o":"m 731 986 l 303 0 l 367 -6 l 796 981 l 731 986 m 267 975 q 160 946 208 975 q 84 864 113 917 q 56 739 56 811 q 83 612 56 664 q 159 532 111 560 q 268 504 207 504 q 372 533 325 504 q 449 614 419 561 q 478 739 478 667 q 451 867 478 814 q 378 947 425 919 q 267 975 331 975 m 267 924 q 372 875 331 924 q 413 739 413 826 q 392 638 413 679 q 338 576 371 597 q 268 556 306 556 q 165 604 210 556 q 121 739 121 653 q 142 841 121 800 q 197 903 164 882 q 267 924 231 924 m 857 469 q 751 440 799 469 q 674 358 703 411 q 646 233 646 306 q 674 106 646 158 q 749 26 701 53 q 858 -1 797 -1 q 963 27 915 -1 q 1039 108 1010 56 q 1068 233 1068 161 q 1042 361 1068 308 q 968 442 1015 414 q 857 469 921 469 m 857 417 q 962 369 921 417 q 1003 233 1003 321 q 982 133 1003 174 q 928 71 961 92 q 858 50 896 50 q 756 99 800 50 q 711 233 711 147 q 733 335 711 294 q 788 396 754 375 q 857 417 821 417 z "},"+":{"ha":732,"x_min":42,"x_max":690,"o":"m 676 406 l 399 406 l 399 738 l 331 742 l 331 406 l 42 406 l 53 354 l 331 354 l 331 11 l 399 6 l 399 354 l 690 354 l 676 406 z "},"÷":{"ha":690,"x_min":42,"x_max":649,"o":"m 344 524 q 383 539 367 524 q 399 576 399 554 q 383 614 399 599 q 344 629 367 629 q 306 614 321 629 q 292 576 292 599 q 306 539 292 554 q 344 524 321 524 m 635 406 l 42 406 l 53 354 l 649 354 l 635 406 m 349 103 q 387 118 371 103 q 403 156 403 133 q 387 193 403 178 q 349 208 371 208 q 310 193 325 208 q 296 156 296 178 q 310 118 296 133 q 349 103 325 103 z "},"×":{"ha":653,"x_min":42,"x_max":611,"o":"m 357 340 l 588 43 l 519 43 l 321 288 l 113 43 l 42 43 l 296 347 l 65 644 l 133 644 l 328 400 l 540 644 l 611 644 l 357 340 z "},"±":{"ha":683,"x_min":42,"x_max":642,"o":"m 621 479 l 369 479 l 369 738 l 301 742 l 301 479 l 42 479 l 53 428 l 301 428 l 301 157 l 369 150 l 369 428 l 632 428 l 621 479 m 631 51 l 42 51 l 53 0 l 642 0 l 631 51 z "},"<":{"ha":447,"x_min":42,"x_max":419,"o":"m 419 75 l 106 340 l 419 606 l 388 653 l 42 360 l 42 321 l 388 26 l 419 75 z "},"=":{"ha":690,"x_min":42,"x_max":649,"o":"m 639 515 l 42 515 l 53 461 l 649 461 l 639 515 m 639 249 l 42 249 l 53 194 l 649 194 l 639 249 z "},">":{"ha":447,"x_min":28,"x_max":406,"o":"m 406 358 l 60 653 l 28 604 l 342 339 l 28 74 l 60 26 l 406 319 l 406 358 z "},"°":{"ha":338,"x_min":14,"x_max":310,"o":"m 161 975 q 86 956 119 975 q 33 904 53 936 q 14 832 14 872 q 33 759 14 790 q 86 710 53 728 q 161 692 119 692 q 238 710 204 692 q 290 759 271 728 q 310 832 310 790 q 290 904 310 872 q 238 956 271 936 q 161 975 204 975 m 167 735 q 96 767 122 735 q 69 833 69 799 q 94 899 69 868 q 161 931 118 931 q 230 899 204 931 q 256 833 256 868 q 234 767 256 799 q 167 735 213 735 z "},"¹":{"ha":333,"x_min":14,"x_max":222,"o":"m 222 467 l 222 1063 l 189 1063 l 14 972 l 46 938 l 163 994 l 163 467 l 222 467 z "},"²":{"ha":475,"x_min":35,"x_max":447,"o":"m 239 1071 q 169 1063 206 1071 q 98 1043 132 1056 q 40 1018 64 1031 l 64 975 q 112 994 82 983 q 175 1014 142 1006 q 236 1022 208 1022 q 312 1002 283 1022 q 353 953 340 982 q 365 899 365 925 q 343 823 365 868 q 251 715 321 778 l 35 518 l 35 467 l 447 467 l 439 513 l 106 513 l 288 674 q 395 795 363 742 q 428 907 428 849 q 408 983 428 946 q 346 1046 388 1021 q 239 1071 304 1071 z "},"³":{"ha":492,"x_min":0,"x_max":429,"o":"m 215 1071 q 103 1053 151 1071 q 13 1010 54 1036 l 43 968 q 112 1003 69 985 q 214 1021 154 1021 q 315 985 278 1021 q 353 903 353 950 q 335 833 353 864 q 280 784 317 801 q 185 767 243 767 l 133 767 l 143 721 l 178 721 q 326 683 286 721 q 367 576 367 644 q 344 504 367 535 q 283 457 321 474 q 204 440 246 440 q 107 452 144 440 q 33 486 69 464 l 0 442 q 88 403 36 421 q 199 386 140 386 q 324 412 272 386 q 402 481 375 438 q 429 578 429 525 q 415 657 429 622 q 373 715 400 692 q 306 747 346 739 q 363 781 338 758 q 402 835 388 803 q 417 904 417 867 q 368 1022 417 972 q 215 1071 319 1071 z "},"¼":{"ha":986,"x_min":14,"x_max":958,"o":"m 222 467 l 222 1063 l 189 1063 l 14 972 l 46 938 l 163 994 l 163 467 l 222 467 m 958 -44 l 840 -44 l 840 444 l 801 444 l 450 -44 l 456 -92 l 779 -92 l 779 -228 l 840 -228 l 840 -92 l 953 -92 l 958 -44 m 779 329 l 779 -44 l 515 -44 l 779 329 m 738 972 l 35 -186 l 104 -186 l 800 972 l 738 972 z "},"½":{"ha":1053,"x_min":14,"x_max":1025,"o":"m 222 467 l 222 1063 l 189 1063 l 14 972 l 46 938 l 163 994 l 163 467 l 222 467 m 817 451 q 747 444 783 451 q 676 424 710 436 q 618 399 642 411 l 642 356 q 690 375 660 364 q 753 394 719 386 q 814 403 786 403 q 890 383 861 403 q 931 334 918 363 q 943 279 943 306 q 921 203 943 249 q 829 96 899 158 l 613 -101 l 613 -153 l 1025 -153 l 1017 -107 l 683 -107 l 865 54 q 973 176 940 122 q 1006 288 1006 229 q 985 364 1006 326 q 924 426 965 401 q 817 451 882 451 m 751 972 l 49 -186 l 118 -186 l 814 972 l 751 972 z "},"¾":{"ha":1074,"x_min":0,"x_max":1046,"o":"m 215 1071 q 103 1053 151 1071 q 13 1010 54 1036 l 43 968 q 112 1003 69 985 q 214 1021 154 1021 q 315 985 278 1021 q 353 903 353 950 q 335 833 353 864 q 280 784 317 801 q 185 767 243 767 l 133 767 l 143 721 l 178 721 q 326 683 286 721 q 367 576 367 644 q 344 504 367 535 q 283 457 321 474 q 204 440 246 440 q 107 452 144 440 q 33 486 69 464 l 0 442 q 88 403 36 421 q 199 386 140 386 q 324 412 272 386 q 402 481 375 438 q 429 578 429 525 q 415 657 429 622 q 373 715 400 692 q 306 747 346 739 q 363 781 338 758 q 402 835 388 803 q 417 904 417 867 q 368 1022 417 972 q 215 1071 319 1071 m 863 972 l 160 -186 l 229 -186 l 925 972 l 863 972 m 1046 -44 l 928 -44 l 928 444 l 889 444 l 538 -44 l 543 -92 l 867 -92 l 867 -228 l 928 -228 l 928 -92 l 1040 -92 l 1046 -44 m 867 329 l 867 -44 l 603 -44 l 867 329 z "},"℮":{"ha":667,"x_min":56,"x_max":611,"o":"m 611 336 l 611 343 q 577 522 611 443 q 485 646 543 600 q 350 692 426 692 q 185 646 251 692 q 88 521 119 600 q 56 340 56 442 q 90 155 56 236 q 194 28 124 74 q 375 -18 265 -18 q 442 -12 403 -18 q 522 6 482 -6 q 590 35 563 18 l 563 86 q 483 53 528 68 q 364 39 438 39 q 228 80 281 39 q 152 188 176 121 q 126 336 128 256 l 611 336 m 129 388 q 160 510 136 454 q 229 601 185 567 q 340 635 274 635 q 449 601 407 635 q 512 510 490 567 q 539 388 533 454 l 129 388 z "},"∂":{"ha":726,"x_min":56,"x_max":671,"o":"m 671 333 q 640 556 671 450 q 547 752 610 661 q 388 916 485 843 q 158 1042 292 989 l 140 997 q 361 864 272 939 q 502 702 450 789 q 577 522 554 615 q 600 332 600 428 q 571 187 600 254 q 488 79 542 119 q 360 39 435 39 q 233 80 285 39 q 153 190 181 121 q 126 342 126 260 q 156 488 126 421 q 239 594 185 554 q 367 635 293 635 q 447 622 408 635 q 522 585 486 608 q 586 529 557 561 l 617 558 q 548 629 583 600 q 469 675 513 658 q 368 692 426 692 q 199 645 269 692 q 92 519 129 599 q 56 340 56 440 q 90 156 56 236 q 192 29 125 75 q 360 -18 260 -17 q 528 29 458 -17 q 634 154 597 75 q 671 333 671 233 z "},"∏":{"ha":831,"x_min":139,"x_max":692,"o":"m 139 0 l 207 0 l 207 890 l 624 890 l 624 0 l 692 0 l 692 944 l 139 944 l 139 0 z "},"∑":{"ha":607,"x_min":42,"x_max":579,"o":"m 542 944 l 42 944 l 42 882 l 326 479 l 42 69 l 42 0 l 579 0 l 572 69 l 129 69 l 396 458 l 396 500 l 129 882 l 550 882 l 542 944 z "},"−":{"ha":647,"x_min":42,"x_max":606,"o":"m 594 407 l 42 407 l 53 353 l 606 353 l 594 407 z "},"√":{"ha":725,"x_min":14,"x_max":711,"o":"m 644 986 l 276 78 l 81 446 l 14 440 l 250 0 l 303 -6 l 711 981 l 644 986 z "},"∞":{"ha":1136,"x_min":56,"x_max":1081,"o":"m 326 636 q 183 597 244 636 q 89 490 122 557 q 56 342 56 424 q 88 197 56 260 q 180 99 119 133 q 324 64 240 64 q 415 90 372 64 q 494 156 458 115 q 551 240 529 196 q 618 154 576 194 q 710 89 660 114 q 810 64 760 64 q 954 103 893 64 q 1048 210 1015 143 q 1081 358 1081 278 q 1049 504 1081 442 q 956 601 1017 567 q 813 636 896 636 q 722 610 765 636 q 643 544 678 585 q 586 460 608 504 q 519 547 561 507 q 427 611 478 586 q 326 636 376 636 m 585 296 l 601 346 q 632 417 613 378 q 678 493 651 457 q 738 553 706 529 q 808 576 771 576 q 915 550 869 576 q 987 475 961 524 q 1013 360 1013 426 q 987 235 1013 289 q 915 153 961 182 q 808 124 869 124 q 716 149 758 124 q 641 213 674 174 q 585 296 608 253 m 551 404 l 535 354 q 503 279 522 319 q 457 203 483 239 q 399 146 431 168 q 329 124 367 124 q 222 150 268 124 q 149 225 175 176 q 124 340 124 274 q 149 465 124 413 q 222 547 175 518 q 329 576 268 576 q 421 551 379 576 q 496 488 463 526 q 551 404 529 449 z "},"∫":{"ha":407,"x_min":0,"x_max":407,"o":"m 238 917 q 259 999 238 967 q 333 1031 281 1031 q 365 1026 347 1031 q 390 1018 382 1022 l 407 1069 q 384 1078 399 1074 q 352 1085 369 1082 q 315 1088 335 1088 q 233 1064 265 1088 q 185 997 201 1040 q 169 894 169 953 l 169 -78 q 148 -160 169 -128 q 74 -192 126 -192 q 42 -187 60 -192 q 17 -179 25 -183 l 0 -231 q 24 -238 10 -233 q 56 -246 38 -243 q 92 -249 74 -249 q 174 -224 142 -249 q 222 -157 207 -200 q 238 -56 238 -114 l 238 917 z "},"≈":{"ha":697,"x_min":42,"x_max":656,"o":"m 603 529 q 581 498 597 510 q 545 481 565 486 q 503 475 525 475 q 438 483 476 475 q 351 507 400 492 q 193 538 256 538 q 145 532 169 538 q 99 514 121 526 q 61 483 76 501 q 42 440 46 465 l 94 428 q 116 459 101 447 q 151 476 131 471 q 194 482 172 482 q 356 451 256 482 q 444 428 407 436 q 504 419 481 419 q 552 425 528 419 q 599 443 576 431 q 636 474 621 456 q 656 517 651 492 l 603 529 m 603 276 q 581 245 597 257 q 545 228 565 233 q 503 222 525 222 q 438 231 476 222 q 351 254 400 239 q 193 285 256 285 q 145 279 169 285 q 99 261 121 274 q 61 231 76 249 q 42 188 46 213 l 94 175 q 116 206 101 194 q 151 224 131 218 q 194 229 172 229 q 356 199 256 229 q 444 175 407 183 q 504 167 481 167 q 552 172 528 167 q 599 190 576 178 q 636 221 621 203 q 656 264 651 239 l 603 276 z "},"≠":{"ha":690,"x_min":42,"x_max":649,"o":"m 476 726 l 383 515 l 42 515 l 53 461 l 360 461 l 267 249 l 42 249 l 53 194 l 243 194 l 151 -14 l 213 -19 l 307 194 l 649 194 l 639 249 l 331 249 l 424 461 l 649 461 l 639 515 l 447 515 l 539 721 l 476 726 z "},"≤":{"ha":447,"x_min":42,"x_max":419,"o":"m 419 199 l 113 404 l 419 607 l 388 653 l 42 424 l 42 385 l 388 157 l 419 199 m 407 54 l 43 54 l 54 0 l 415 0 l 407 54 z "},"≥":{"ha":447,"x_min":28,"x_max":406,"o":"m 406 425 l 60 653 l 28 611 l 335 406 l 28 203 l 60 157 l 406 386 l 406 425 m 392 54 l 28 54 l 39 0 l 400 0 l 392 54 z "},"‰":{"ha":1624,"x_min":56,"x_max":1568,"o":"m 731 986 l 303 0 l 367 -6 l 796 981 l 731 986 m 267 975 q 160 946 208 975 q 84 864 113 917 q 56 739 56 811 q 83 612 56 664 q 159 532 111 560 q 268 504 207 504 q 372 533 325 504 q 449 614 419 561 q 478 739 478 667 q 451 867 478 814 q 378 947 425 919 q 267 975 331 975 m 267 924 q 372 875 331 924 q 413 739 413 826 q 392 638 413 679 q 338 576 371 597 q 268 556 306 556 q 165 604 210 556 q 121 739 121 653 q 142 841 121 800 q 197 903 164 882 q 267 924 231 924 m 1357 469 q 1251 440 1299 469 q 1174 358 1203 411 q 1146 233 1146 306 q 1174 106 1146 158 q 1249 26 1201 53 q 1358 -1 1297 -1 q 1463 27 1415 -1 q 1539 108 1510 56 q 1568 233 1568 161 q 1542 361 1568 308 q 1468 442 1515 414 q 1357 469 1421 469 m 857 469 q 751 440 799 469 q 674 358 703 411 q 646 233 646 306 q 674 106 646 158 q 749 26 701 53 q 858 -1 797 -1 q 963 27 915 -1 q 1039 108 1010 56 q 1068 233 1068 161 q 1042 361 1068 308 q 968 442 1015 414 q 857 469 921 469 m 1357 417 q 1462 369 1421 417 q 1503 233 1503 321 q 1482 133 1503 174 q 1428 71 1461 92 q 1358 50 1396 50 q 1256 99 1300 50 q 1211 233 1211 147 q 1233 335 1211 294 q 1288 396 1254 375 q 1357 417 1321 417 m 857 417 q 962 369 921 417 q 1003 233 1003 321 q 982 133 1003 174 q 928 71 961 92 q 858 50 896 50 q 756 99 800 50 q 711 233 711 147 q 733 335 711 294 q 788 396 754 375 q 857 417 821 417 z "},"⁄":{"ha":521,"x_min":-122,"x_max":643,"o":"m 581 972 l -122 -186 l -53 -186 l 643 972 l 581 972 z "},"◊":{"ha":722,"x_min":42,"x_max":681,"o":"m 375 0 l 681 407 l 681 425 l 375 832 l 347 832 l 42 425 l 42 407 l 347 0 l 375 0 m 360 757 l 613 415 l 360 76 l 113 415 l 360 757 z "},"©":{"ha":1093,"x_min":56,"x_max":1038,"o":"m 1038 467 q 1003 659 1038 571 q 903 813 968 747 q 747 916 838 879 q 546 953 657 953 q 343 916 433 953 q 189 813 253 879 q 90 659 125 747 q 56 467 56 571 q 89 276 56 364 q 185 122 122 188 q 340 20 249 57 q 546 -17 431 -17 q 747 20 657 -17 q 903 122 838 57 q 1003 276 968 188 q 1038 467 1038 364 m 121 468 q 173 688 121 590 q 321 842 225 785 q 546 900 417 900 q 772 842 676 900 q 919 688 867 785 q 972 468 972 590 q 919 249 972 347 q 772 92 867 150 q 546 35 676 35 q 321 92 417 35 q 173 249 225 150 q 121 468 121 347 m 564 167 q 625 174 592 167 q 690 195 658 182 q 740 225 721 208 l 713 268 q 646 235 685 250 q 561 221 607 221 q 407 288 468 221 q 346 474 346 356 q 374 609 346 553 q 451 696 401 665 q 561 726 500 726 q 619 719 592 726 q 671 702 647 713 q 713 679 694 692 l 740 722 q 690 753 721 740 q 625 773 658 765 q 564 781 592 781 q 421 746 486 781 q 317 643 356 711 q 278 474 278 575 q 317 305 278 374 q 421 201 356 236 q 564 167 486 167 z "},"®":{"ha":993,"x_min":56,"x_max":938,"o":"m 938 676 q 881 897 938 799 q 726 1051 825 994 q 497 1108 628 1108 q 265 1051 365 1108 q 110 897 165 994 q 56 676 56 799 q 112 458 56 556 q 268 304 168 361 q 497 247 368 247 q 726 304 628 247 q 881 458 825 361 q 938 676 938 556 m 122 678 q 168 872 122 786 q 299 1006 214 957 q 497 1056 383 1056 q 694 1006 611 1056 q 824 872 778 957 q 869 678 869 786 q 824 487 869 572 q 694 351 778 401 q 497 299 611 300 q 299 351 383 300 q 168 487 214 401 q 122 678 122 572 m 468 899 q 540 891 508 899 q 589 861 571 883 q 607 793 607 839 q 587 728 607 751 q 533 695 567 704 q 461 686 500 686 l 413 686 l 413 899 l 468 899 m 701 422 l 565 651 q 635 705 604 668 q 667 794 667 742 q 642 883 667 850 q 576 930 618 915 q 478 944 533 944 l 357 944 l 357 422 l 413 422 l 413 642 l 471 642 q 490 642 481 642 q 511 643 500 643 l 636 422 l 701 422 z "},"™":{"ha":988,"x_min":14,"x_max":918,"o":"m 400 944 l 14 944 l 14 900 l 179 900 l 179 425 l 240 425 l 240 900 l 404 900 l 400 944 m 721 599 l 865 811 l 865 425 l 918 425 l 918 944 l 890 944 l 713 671 l 528 944 l 501 944 l 501 425 l 558 425 l 558 810 l 704 596 l 721 599 z "},"&":{"ha":899,"x_min":69,"x_max":843,"o":"m 629 163 q 531 74 589 108 q 401 39 472 39 q 274 68 335 39 q 174 152 213 97 q 135 281 135 207 q 164 412 135 351 q 253 515 193 472 q 292 472 271 493 q 336 431 314 450 l 629 163 m 808 0 l 843 38 l 704 167 q 763 306 743 231 q 782 456 782 381 l 732 471 q 713 338 732 407 q 660 208 694 268 l 385 465 q 303 553 338 511 q 251 638 269 594 q 233 731 233 681 q 257 819 233 778 q 322 885 281 860 q 415 910 364 910 q 515 895 479 910 q 585 864 550 881 l 613 913 q 526 949 581 932 q 403 967 472 967 q 283 934 336 967 q 199 847 229 901 q 168 725 168 792 q 182 638 168 678 q 219 561 196 597 q 111 443 153 517 q 69 278 69 369 q 113 119 69 186 q 231 17 157 53 q 397 -18 306 -18 q 556 20 485 -18 q 674 122 626 58 l 808 0 z "},"@":{"ha":1056,"x_min":56,"x_max":1000,"o":"m 732 533 l 710 561 l 611 561 q 497 541 551 561 q 403 485 443 521 q 339 401 363 450 q 315 293 315 351 q 376 148 315 204 q 533 92 436 92 q 601 105 565 92 q 664 138 638 118 q 710 99 682 114 q 775 85 738 85 q 869 106 828 85 q 940 171 910 128 q 985 276 969 214 q 1000 422 1000 339 q 969 583 1000 510 q 883 710 939 656 q 751 795 828 765 q 579 825 674 825 q 355 783 453 825 q 190 668 257 742 q 90 499 124 594 q 56 296 56 404 q 90 117 56 196 q 184 -19 124 38 q 322 -104 244 -75 q 483 -133 399 -133 q 618 -122 551 -133 q 743 -81 685 -111 l 725 -28 q 659 -54 697 -43 q 580 -71 621 -65 q 499 -76 539 -76 q 311 -31 396 -76 q 176 98 226 14 q 126 297 126 182 q 160 490 126 404 q 253 639 193 576 q 396 735 314 701 q 575 768 478 768 q 767 723 688 768 q 890 598 847 678 q 933 413 933 518 q 912 261 933 321 q 856 172 890 201 q 778 142 821 142 q 713 168 735 142 q 699 254 692 194 l 732 533 m 533 143 q 456 161 489 143 q 404 213 422 179 q 386 293 386 246 q 417 408 386 360 q 497 483 447 457 q 604 510 546 510 l 667 510 l 635 264 q 633 221 633 244 q 642 174 632 197 q 594 152 624 161 q 533 143 564 143 z "},"^":{"ha":579,"x_min":14,"x_max":551,"o":"m 283 483 l 485 199 l 551 199 l 313 542 l 253 542 l 14 199 l 81 199 l 283 483 z "},"~":{"ha":519,"x_min":42,"x_max":478,"o":"m 42 299 l 97 299 q 117 341 97 325 q 163 357 136 357 q 211 349 186 357 q 261 324 236 340 q 310 299 286 307 q 358 290 335 290 q 422 304 394 290 q 463 344 449 318 q 478 401 478 369 l 422 401 q 403 359 422 375 q 357 343 383 343 q 317 351 339 343 q 271 376 296 360 q 219 401 246 393 q 163 410 192 410 q 99 396 126 410 q 56 357 71 382 q 42 299 42 332 z "},"§":{"ha":792,"x_min":69,"x_max":736,"o":"m 600 132 q 675 182 644 151 q 721 251 706 213 q 736 335 736 290 q 720 421 736 382 q 673 493 704 460 q 594 555 642 526 q 485 610 547 583 q 347 681 403 644 q 262 758 290 717 q 233 853 233 800 q 292 976 233 925 q 450 1026 350 1026 q 534 1019 499 1026 q 598 1001 569 1013 q 650 979 626 990 l 681 1029 q 578 1067 639 1050 q 447 1083 517 1083 q 294 1054 358 1083 q 196 974 231 1025 q 161 860 161 924 q 178 768 161 810 q 226 692 194 726 q 306 629 258 658 q 414 575 353 600 q 554 506 499 540 q 638 431 610 471 q 665 339 665 390 q 644 258 665 296 q 579 196 622 221 l 600 132 m 76 -107 q 118 -127 89 -117 q 185 -147 147 -137 q 262 -160 224 -156 q 329 -165 300 -165 q 502 -135 432 -165 q 608 -52 572 -106 q 644 71 644 1 q 628 157 644 118 q 581 229 613 196 q 503 291 550 263 q 393 346 456 319 q 255 417 311 381 q 170 494 199 453 q 142 589 142 536 q 165 672 142 633 q 232 733 189 711 l 204 790 q 131 743 161 772 q 85 676 101 714 q 69 596 69 639 q 86 504 69 546 q 135 428 103 463 q 214 365 167 394 q 322 311 261 336 q 463 242 407 276 q 546 167 518 207 q 574 75 574 126 q 545 -14 574 28 q 463 -81 517 -56 q 328 -107 408 -107 q 238 -99 282 -107 q 158 -77 194 -90 q 97 -53 122 -64 l 76 -107 z "},"ª":{"ha":461,"x_min":56,"x_max":406,"o":"m 118 647 q 147 713 118 686 q 235 740 175 740 l 342 740 l 342 621 q 287 571 319 590 q 215 551 254 551 q 144 582 171 551 q 118 647 118 613 m 103 890 q 156 910 128 900 q 231 921 183 921 q 314 892 286 921 q 342 815 342 863 l 342 783 l 222 783 q 103 747 151 783 q 56 647 56 711 q 98 546 56 588 q 215 504 140 504 q 287 522 251 504 q 346 567 322 539 l 361 517 l 406 517 l 406 806 q 386 888 406 850 q 328 951 367 926 q 229 975 289 975 q 184 970 211 975 q 131 956 157 965 q 86 935 104 947 l 103 890 z "},"¬":{"ha":701,"x_min":14,"x_max":660,"o":"m 649 564 l 14 564 l 25 510 l 592 510 l 592 163 l 660 156 l 660 494 l 649 564 z "},"¶":{"ha":1122,"x_min":56,"x_max":1067,"o":"m 532 0 l 532 890 l 843 890 l 843 0 l 911 0 l 911 890 l 1067 890 l 1067 944 l 396 944 q 220 913 297 944 q 99 819 143 882 q 56 660 56 757 q 83 533 56 588 q 160 441 111 478 q 273 385 208 404 q 411 367 338 367 l 464 367 l 464 0 l 532 0 z "},"º":{"ha":478,"x_min":28,"x_max":450,"o":"m 238 975 q 135 946 183 975 q 58 864 88 917 q 28 739 28 811 q 58 612 28 664 q 135 532 88 560 q 239 504 183 504 q 344 533 296 504 q 421 614 392 561 q 450 739 450 667 q 420 867 450 814 q 342 947 390 919 q 238 975 293 975 m 238 926 q 344 876 301 926 q 388 739 388 826 q 366 638 388 679 q 310 575 344 596 q 239 554 276 554 q 135 603 181 554 q 90 739 90 653 q 112 842 90 800 q 167 905 133 883 q 238 926 201 926 z "},"ழ":{"ha":1092,"x_min":139,"x_max":1008,"o":"m 578 14 l 517 6 l 517 -60 q 529 -159 517 -115 q 597 -226 542 -203 q 518 -328 569 -296 q 404 -360 467 -360 q 275 -319 315 -360 q 235 -212 235 -279 l 174 -212 q 199 -319 174 -272 q 276 -392 225 -365 q 403 -419 326 -419 q 508 -397 457 -419 q 596 -334 558 -375 q 650 -237 633 -293 l 899 -237 l 893 -189 l 658 -189 q 597 -161 615 -189 q 578 -76 578 -133 l 578 14 m 200 49 l 200 719 l 139 713 l 139 0 l 746 0 q 898 42 840 0 q 982 156 956 83 q 1008 321 1008 228 q 975 536 1008 442 q 879 684 942 631 q 729 738 817 738 q 619 711 668 738 q 544 631 571 685 q 517 493 517 576 l 517 29 l 578 29 l 578 494 q 622 638 578 597 q 733 679 667 679 q 847 633 800 679 q 917 506 893 588 q 942 321 942 425 q 924 181 942 243 q 865 84 907 119 q 746 49 822 49 l 200 49 z "},"ய":{"ha":1231,"x_min":125,"x_max":1092,"o":"m 1092 713 l 1092 0 l 526 0 l 526 713 l 588 713 l 588 49 l 1031 49 l 1031 713 l 1092 713 m 125 713 l 186 719 l 186 243 q 233 79 186 125 q 350 33 279 33 q 481 100 436 33 q 526 268 526 167 l 575 268 q 549 117 575 183 q 472 13 522 50 q 350 -25 422 -25 q 234 2 285 -25 q 154 89 183 29 q 125 244 125 149 l 125 713 z "},"௭":{"ha":1011,"x_min":83,"x_max":872,"o":"m 872 713 l 872 0 l 811 0 l 811 664 l 651 664 l 650 713 l 872 713 m 150 329 q 189 172 150 240 q 300 63 228 103 q 471 24 372 24 q 592 71 544 24 q 639 190 639 118 q 592 310 639 264 q 471 357 544 357 q 351 311 399 357 q 303 193 303 265 q 351 72 303 119 q 471 24 399 24 l 471 -11 q 353 15 406 -11 q 272 88 301 42 q 243 193 243 133 q 272 306 243 257 q 353 383 301 354 q 471 411 406 411 q 591 383 539 411 q 674 305 643 354 q 704 190 704 256 q 674 79 704 128 q 591 3 643 31 q 471 -25 539 -25 q 265 21 353 -25 q 131 147 178 67 q 83 329 83 226 q 135 531 83 444 q 287 665 186 617 q 535 713 388 713 l 785 713 l 785 664 l 547 664 q 328 622 417 664 q 194 506 239 581 q 150 329 150 431 z "},"௸":{"ha":2514,"x_min":83,"x_max":2375,"o":"m 1878 738 q 1992 708 1946 738 q 2064 628 2039 679 q 2089 513 2089 578 l 2089 -337 l 2028 -337 l 2028 506 q 1990 631 2028 583 q 1878 679 1953 679 q 1765 636 1806 679 q 1725 526 1725 593 q 1780 400 1725 453 q 1936 347 1835 347 q 2081 388 2008 347 q 2215 499 2153 428 q 2314 664 2276 571 l 2364 646 q 2262 462 2329 543 q 2110 335 2194 381 q 1936 289 2025 289 q 1788 321 1850 289 q 1693 407 1726 353 q 1658 526 1660 461 q 1685 635 1658 588 q 1762 710 1713 683 q 1878 738 1811 738 m 1513 376 q 1482 535 1513 467 q 1390 641 1451 603 q 1235 679 1328 679 q 1080 644 1151 679 q 956 549 1008 610 q 874 409 903 489 q 844 238 844 329 q 885 91 844 149 q 996 33 926 33 q 1103 91 1065 33 q 1142 238 1142 149 q 1102 413 1142 332 q 992 553 1063 493 q 826 646 921 613 q 621 679 732 679 q 369 633 475 679 q 207 506 264 588 q 150 317 150 424 q 192 165 150 232 q 306 61 233 99 q 471 24 378 24 q 592 71 544 24 q 639 190 639 118 q 592 310 639 264 q 471 357 544 357 q 351 311 399 357 q 303 193 303 265 q 351 72 303 119 q 471 24 399 24 l 471 -11 q 353 15 406 -11 q 272 88 301 42 q 243 193 243 133 q 272 306 243 257 q 353 383 301 354 q 471 411 406 411 q 591 383 539 411 q 674 305 643 354 q 704 190 704 256 q 674 79 704 128 q 591 3 643 31 q 471 -25 539 -25 q 271 19 358 -25 q 133 141 183 64 q 83 317 83 218 q 149 533 83 439 q 336 683 215 628 q 621 738 457 738 q 851 699 744 738 q 1038 593 958 661 q 1163 434 1118 525 q 1208 238 1208 343 q 1183 102 1208 161 q 1110 9 1157 43 q 996 -25 1063 -25 q 881 9 931 -25 q 805 102 832 43 q 778 238 778 161 q 813 429 778 339 q 909 589 847 519 q 1054 698 971 658 q 1235 738 1138 738 q 1424 690 1347 738 q 1539 561 1500 643 q 1578 374 1578 479 q 1559 220 1578 306 q 1497 49 1540 135 l 2314 49 l 2314 664 l 2375 664 l 2375 0 l 1428 0 l 1428 49 q 1492 219 1472 129 q 1513 376 1513 308 z "},"ஒ":{"ha":1138,"x_min":83,"x_max":1054,"o":"m 568 742 q 763 716 674 742 q 917 643 851 690 q 1018 532 982 596 q 1054 392 1054 468 q 1033 280 1054 329 q 973 203 1013 231 q 874 175 933 175 q 786 201 825 175 q 725 272 747 226 q 703 374 703 317 l 751 374 q 788 272 754 311 q 874 233 822 233 q 961 277 935 233 q 988 392 988 321 q 933 542 988 476 q 783 644 878 607 q 568 682 689 682 q 350 642 446 682 q 199 533 254 603 q 144 374 144 464 q 164 281 144 321 q 219 217 183 240 q 301 194 254 194 q 375 224 346 194 q 406 296 404 253 q 377 371 406 342 q 304 400 349 400 q 226 371 257 400 q 196 294 196 342 q 226 223 196 251 q 301 194 256 194 l 301 147 q 191 190 235 147 q 147 299 147 233 q 192 412 147 368 q 306 456 238 456 q 422 410 376 456 q 468 296 468 365 q 422 185 468 229 q 301 142 375 142 q 190 172 239 142 q 112 254 140 201 q 83 374 83 307 q 119 522 83 454 q 221 638 156 589 q 374 715 286 688 q 568 742 463 742 m 1000 -49 l 918 -49 q 744 13 799 -49 q 690 185 690 75 l 690 374 l 744 374 l 744 185 q 785 48 744 96 q 918 0 825 0 l 1000 0 l 1000 -49 m 575 -250 q 710 -199 657 -250 q 763 -69 763 -147 l 763 26 l 824 0 l 824 -69 q 792 -190 824 -137 q 703 -274 760 -243 q 575 -304 647 -304 q 447 -274 503 -304 q 358 -190 390 -243 q 326 -69 326 -137 l 326 0 l 388 0 l 388 -69 q 441 -199 388 -147 q 575 -250 494 -250 z "},"ஞ":{"ha":1651,"x_min":111,"x_max":1568,"o":"m 471 329 q 510 172 471 240 q 621 63 549 103 q 793 24 693 24 q 913 71 867 24 q 960 190 960 118 q 913 310 960 264 q 793 357 867 357 q 672 311 719 357 q 625 193 625 265 q 672 72 625 119 q 793 24 719 24 l 793 -11 q 675 15 726 -11 q 594 88 624 42 q 565 193 565 133 q 594 306 565 257 q 675 383 624 354 q 793 411 726 411 q 913 383 861 411 q 996 305 965 354 q 1026 190 1026 256 q 996 79 1026 128 q 913 3 965 31 q 793 -25 861 -25 q 588 21 675 -25 q 453 147 500 67 q 406 329 406 226 q 457 531 406 444 q 608 665 508 617 q 856 713 708 713 l 947 713 l 947 664 l 868 664 q 649 622 738 664 q 515 506 560 581 q 471 329 471 431 m 1346 476 q 1467 438 1417 476 q 1542 337 1517 400 q 1568 199 1568 274 q 1521 -23 1568 76 q 1385 -194 1474 -122 q 1169 -303 1296 -265 q 885 -342 1043 -342 q 563 -299 706 -342 q 319 -175 421 -256 q 165 17 218 -94 q 111 264 111 128 q 136 428 111 340 q 206 595 161 515 q 306 726 250 675 l 369 713 q 271 592 314 668 q 203 428 228 515 q 178 261 178 342 q 226 38 178 139 q 367 -134 275 -62 q 590 -244 460 -206 q 885 -283 721 -283 q 1216 -223 1078 -283 q 1428 -53 1354 -162 q 1503 201 1503 56 q 1485 308 1503 258 q 1431 388 1467 357 q 1343 418 1396 418 q 1217 365 1267 418 q 1168 231 1168 313 l 1168 0 l 1107 0 l 1107 664 l 947 664 l 946 713 l 1442 713 l 1447 664 l 1168 664 l 1168 392 q 1245 454 1200 432 q 1346 476 1290 476 z "},"Ț":{"ha":742,"x_min":14,"x_max":728,"o":"m 721 944 l 14 944 l 14 890 l 336 890 l 336 0 l 404 0 l 404 890 l 728 890 l 721 944 m 372 -29 q 344 -37 356 -29 q 326 -57 332 -44 q 319 -83 319 -69 q 332 -117 319 -97 q 369 -136 344 -136 q 344 -202 368 -174 q 285 -250 321 -231 l 307 -285 q 372 -236 346 -265 q 413 -169 399 -207 q 426 -89 426 -131 q 412 -49 426 -68 q 372 -29 397 -29 z "},"ெ":{"ha":1088,"x_min":83,"x_max":949,"o":"m 949 479 l 949 0 l 888 0 l 888 479 q 844 699 888 610 q 719 833 800 788 q 526 879 638 879 q 326 825 411 879 q 196 675 242 771 q 150 454 150 579 q 192 232 150 329 q 306 79 233 135 q 471 24 378 24 q 592 71 544 24 q 639 190 639 118 q 592 310 639 264 q 471 357 544 357 q 351 311 399 357 q 303 193 303 265 q 351 72 303 119 q 471 24 399 24 l 471 -11 q 353 15 406 -11 q 272 88 301 42 q 243 193 243 133 q 272 306 243 257 q 353 383 301 354 q 471 411 406 411 q 591 383 539 411 q 674 305 643 354 q 704 190 704 256 q 674 79 704 128 q 591 3 643 31 q 471 -25 539 -25 q 271 37 358 -25 q 133 207 183 99 q 83 454 83 315 q 138 703 83 594 q 292 875 193 813 q 526 938 392 938 q 750 883 656 938 q 897 727 844 829 q 949 479 949 625 z "},"ண":{"ha":2317,"x_min":83,"x_max":2303,"o":"m 1963 0 l 1963 664 l 1824 664 q 1649 631 1731 664 q 1507 540 1568 599 q 1412 404 1446 482 q 1378 238 1378 326 q 1415 91 1378 149 q 1524 33 1453 33 q 1634 91 1593 33 q 1675 238 1675 149 q 1645 406 1675 326 q 1560 547 1615 486 q 1429 644 1506 608 q 1260 679 1353 679 q 1042 619 1136 679 q 897 460 949 560 q 844 238 844 360 q 885 91 844 149 q 996 33 926 33 q 1103 91 1065 33 q 1142 238 1142 149 q 1102 413 1142 332 q 992 553 1063 493 q 826 646 921 613 q 621 679 732 679 q 369 633 475 679 q 207 506 264 588 q 150 317 150 424 q 192 165 150 232 q 306 61 233 99 q 471 24 378 24 q 592 71 544 24 q 639 190 639 118 q 592 310 639 264 q 471 357 544 357 q 351 311 399 357 q 303 193 303 265 q 351 72 303 119 q 471 24 399 24 l 471 -11 q 353 15 406 -11 q 272 88 301 42 q 243 193 243 133 q 272 306 243 257 q 353 383 301 354 q 471 411 406 411 q 591 383 539 411 q 674 305 643 354 q 704 190 704 256 q 674 79 704 128 q 591 3 643 31 q 471 -25 539 -25 q 271 19 358 -25 q 133 141 183 64 q 83 317 83 218 q 149 533 83 439 q 336 683 215 628 q 621 738 457 738 q 851 699 744 738 q 1038 593 958 661 q 1163 434 1118 525 q 1208 238 1208 343 q 1183 102 1208 161 q 1110 9 1157 43 q 996 -25 1063 -25 q 881 9 931 -25 q 805 102 832 43 q 778 238 778 161 q 813 429 778 339 q 912 589 847 519 q 1065 698 976 658 q 1260 738 1153 738 q 1455 698 1367 738 q 1607 589 1543 658 q 1706 429 1671 519 q 1740 238 1740 339 q 1713 102 1740 161 q 1638 9 1686 43 q 1524 -25 1589 -25 q 1410 9 1457 -25 q 1337 102 1363 43 q 1311 238 1311 161 q 1351 425 1311 339 q 1460 576 1390 511 q 1624 676 1531 640 q 1824 713 1717 713 l 2296 713 l 2303 664 l 2024 664 l 2024 0 l 1963 0 z "},"ஓ":{"ha":1138,"x_min":83,"x_max":1054,"o":"m 1000 0 l 1000 -49 l 918 -49 q 868 -45 892 -49 q 824 -36 844 -42 l 824 -69 q 787 -190 824 -137 q 685 -274 750 -243 q 538 -304 621 -304 q 402 -281 461 -304 q 309 -215 343 -257 q 275 -119 275 -172 q 322 -12 275 -54 q 440 29 368 29 l 469 29 l 469 -19 l 440 -19 q 365 -47 394 -19 q 336 -119 336 -75 q 393 -213 336 -176 q 538 -250 450 -250 q 653 -226 603 -250 q 733 -162 704 -203 q 763 -69 763 -121 l 763 -4 q 708 73 725 25 q 690 185 690 121 l 690 374 l 751 374 q 788 272 754 311 q 874 233 822 233 q 961 277 935 233 q 988 392 988 321 q 933 542 988 476 q 783 644 878 607 q 568 682 689 682 q 333 635 433 682 q 183 507 233 588 q 149 325 133 426 q 201 419 158 383 q 306 456 244 456 q 422 410 376 456 q 468 296 468 365 q 422 185 468 229 q 301 142 375 142 q 190 172 239 142 q 112 254 140 201 q 83 374 83 307 q 119 522 83 454 q 221 638 156 589 q 374 715 286 688 q 568 742 463 742 q 763 716 674 742 q 917 643 851 690 q 1018 532 982 596 q 1054 392 1054 468 q 1033 280 1054 329 q 973 203 1013 231 q 874 175 933 175 q 801 192 835 175 q 744 239 768 208 l 744 185 q 785 48 744 96 q 918 0 825 0 l 1000 0 m 196 294 q 226 223 196 251 q 301 194 256 194 q 375 224 346 194 q 406 296 404 253 q 377 371 406 342 q 304 400 349 400 q 226 371 257 400 q 196 294 196 342 z "},"ஆ":{"ha":1733,"x_min":56,"x_max":1719,"o":"m 1293 125 l 208 125 q 142 103 161 125 q 122 44 122 81 q 165 -53 122 -11 q 282 -118 207 -94 q 454 -142 357 -142 q 719 -83 604 -142 q 901 81 835 -24 q 967 319 967 185 q 929 506 967 425 q 822 633 892 588 q 654 679 753 679 q 517 651 578 679 q 423 574 457 624 q 389 457 389 525 q 421 385 389 414 q 500 353 453 356 q 581 381 549 351 q 613 457 613 410 q 581 532 613 503 q 501 561 550 561 q 422 532 454 561 q 389 457 389 503 l 351 457 q 372 538 351 503 q 426 592 392 572 q 501 613 461 613 q 626 568 576 613 q 674 457 675 524 q 624 343 672 388 q 500 300 575 299 q 381 347 428 301 q 335 461 335 393 q 376 603 335 542 q 490 701 418 665 q 654 738 563 738 q 856 683 771 738 q 988 535 942 629 q 1033 319 1033 440 q 990 112 1033 207 q 869 -53 947 17 q 686 -162 792 -124 q 454 -200 581 -200 q 249 -168 339 -200 q 107 -81 158 -136 q 56 44 56 -25 q 93 138 56 101 q 203 174 131 174 l 1293 174 l 1293 125 m 1504 117 q 1620 85 1572 117 q 1694 1 1668 54 q 1719 -119 1719 -53 q 1683 -283 1719 -208 q 1578 -411 1646 -357 q 1422 -494 1511 -465 q 1225 -524 1332 -524 q 1071 -500 1139 -524 q 965 -434 1003 -476 q 926 -339 926 -392 q 974 -233 926 -275 q 1093 -192 1021 -192 l 1122 -192 l 1122 -240 l 1093 -240 q 1020 -268 1047 -240 q 993 -339 993 -296 q 1058 -431 993 -396 q 1225 -465 1122 -465 q 1447 -422 1350 -465 q 1598 -299 1543 -378 q 1653 -117 1653 -219 q 1613 7 1653 -43 q 1500 57 1574 57 q 1376 4 1425 57 q 1326 -131 1326 -49 l 1326 -175 l 1265 -175 l 1265 713 l 1326 713 l 1326 32 q 1403 94 1358 72 q 1504 117 1449 117 z "},"அ":{"ha":1465,"x_min":56,"x_max":1326,"o":"m 1326 -175 l 1326 713 l 1265 713 l 1265 -175 l 1326 -175 m 654 738 q 490 701 563 738 q 376 603 418 665 q 335 461 335 542 q 381 347 335 393 q 500 300 428 301 q 624 343 575 299 q 674 457 672 388 q 626 568 675 524 q 501 613 576 613 q 426 592 461 613 q 372 538 392 572 q 351 457 351 503 l 389 457 q 422 532 389 503 q 501 561 454 561 q 581 532 550 561 q 613 457 613 503 q 581 381 613 410 q 500 353 549 351 q 421 385 453 356 q 389 457 389 414 q 423 574 389 525 q 517 651 457 624 q 654 679 578 679 q 822 633 753 679 q 929 506 892 588 q 967 319 967 425 q 901 81 967 185 q 719 -83 835 -24 q 454 -142 604 -142 q 282 -118 357 -142 q 165 -53 207 -94 q 122 44 122 -11 q 142 103 122 81 q 208 125 161 125 l 1265 125 l 1265 174 l 203 174 q 93 138 131 174 q 56 44 56 101 q 107 -81 56 -25 q 249 -168 158 -136 q 454 -200 339 -200 q 686 -162 581 -200 q 869 -53 792 -124 q 990 112 947 17 q 1033 319 1033 207 q 988 535 1033 440 q 856 683 942 629 q 654 738 771 738 z "},"ஊ":{"ha":2360,"x_min":56,"x_max":2346,"o":"m 104 49 l 439 49 q 602 92 532 49 q 712 209 672 135 q 751 379 751 283 q 712 535 751 468 q 603 641 672 603 q 440 679 533 679 q 271 641 343 679 q 159 535 199 603 q 119 379 119 468 q 163 273 119 314 q 275 232 207 232 q 385 273 342 232 q 429 376 429 314 q 388 478 429 438 q 282 519 346 519 q 165 480 211 519 q 119 379 119 440 l 72 379 q 99 474 72 429 q 174 545 126 518 q 282 572 222 572 q 392 547 344 572 q 468 478 440 522 q 496 376 496 433 q 467 272 496 318 q 389 200 439 226 q 275 174 339 174 q 163 201 213 174 q 84 275 113 228 q 56 382 56 322 q 103 565 56 485 q 238 692 151 646 q 440 738 325 738 q 635 691 550 738 q 769 564 721 644 q 818 379 818 483 q 770 179 818 265 q 633 49 722 93 l 2346 49 l 2346 0 l 104 0 l 104 49 m 1015 394 q 1043 274 1015 329 q 1130 185 1071 218 q 1282 153 1189 153 q 1379 191 1342 153 q 1417 289 1417 229 q 1379 387 1417 349 q 1282 425 1342 425 q 1185 388 1222 425 q 1147 292 1147 350 q 1185 192 1147 232 q 1282 153 1222 153 l 1282 117 q 1142 166 1197 117 q 1088 292 1088 215 q 1142 426 1088 374 q 1282 479 1197 479 q 1423 425 1368 479 q 1478 289 1478 371 q 1453 194 1478 236 q 1383 128 1428 151 q 1282 104 1339 104 q 1098 144 1172 104 q 987 251 1024 185 q 950 394 950 317 q 996 571 950 494 q 1124 691 1042 647 q 1313 735 1206 735 q 1492 690 1414 735 q 1615 568 1571 644 l 1615 713 l 2276 713 l 2283 664 l 2051 664 l 2051 125 l 1990 125 l 1990 664 l 1676 664 l 1676 125 l 1615 125 l 1615 372 q 1576 529 1615 461 q 1469 637 1538 597 q 1313 676 1400 676 q 1158 640 1225 676 q 1053 540 1090 603 q 1015 394 1015 476 z "},"ஶ":{"ha":1386,"x_min":125,"x_max":1303,"o":"m 1040 713 q 1194 671 1136 713 q 1277 557 1251 629 q 1303 392 1303 485 q 1269 177 1303 271 q 1174 29 1236 83 q 1024 -25 1111 -25 q 914 1 963 -25 q 838 82 865 28 q 811 219 811 136 l 811 664 l 575 664 l 575 244 q 546 94 575 154 q 466 5 517 35 q 350 -25 415 -25 q 234 5 285 -25 q 154 94 183 35 q 125 244 125 154 l 125 713 l 186 719 l 186 243 q 233 86 186 139 q 350 33 279 33 q 467 86 421 33 q 514 243 514 139 l 514 713 l 1040 713 m 1029 33 q 1142 79 1096 33 q 1212 206 1188 125 q 1236 392 1236 288 q 1219 532 1236 471 q 1160 628 1203 593 q 1040 664 1118 664 l 872 664 l 872 218 q 917 75 872 117 q 1029 33 961 33 z "},"ஏ":{"ha":1165,"x_min":83,"x_max":1151,"o":"m 150 329 q 184 180 150 246 q 282 74 218 114 q 253 128 264 97 q 243 193 243 158 q 272 306 243 257 q 353 383 301 354 q 471 411 406 411 q 591 383 539 411 q 674 305 643 354 q 704 190 704 256 q 674 79 704 128 q 591 3 643 31 q 471 -25 539 -25 q 265 21 353 -25 q 131 147 178 67 q 83 329 83 226 q 135 531 83 444 q 287 665 186 617 q 535 713 388 713 l 1144 713 l 1151 664 l 872 664 l 872 36 q 867 -55 872 -18 q 841 -117 861 -92 q 778 -160 821 -142 l 338 -347 l 308 -299 l 722 -119 q 778 -87 758 -104 q 804 -43 797 -69 q 811 28 811 -17 l 811 664 l 547 664 q 328 622 417 664 q 194 506 239 581 q 150 329 150 431 m 303 193 q 351 72 303 119 q 471 24 399 24 q 592 71 544 24 q 639 190 639 118 q 592 310 639 264 q 471 357 544 357 q 351 311 399 357 q 303 193 303 265 z "},"ஸ":{"ha":1774,"x_min":83,"x_max":1690,"o":"m 838 0 l 838 354 q 796 528 838 456 q 681 640 754 601 q 511 679 607 679 q 315 634 396 679 q 192 510 233 589 q 150 329 150 431 q 189 172 150 240 q 300 63 228 103 q 471 24 372 24 q 592 71 544 24 q 639 190 639 118 q 592 310 639 264 q 471 357 544 357 q 351 311 399 357 q 303 193 303 265 q 351 72 303 119 q 471 24 399 24 l 471 -11 q 353 15 406 -11 q 272 88 301 42 q 243 193 243 133 q 272 306 243 257 q 353 383 301 354 q 471 411 406 411 q 591 383 539 411 q 674 305 643 354 q 704 190 704 256 q 674 79 704 128 q 591 3 643 31 q 471 -25 539 -25 q 265 21 353 -25 q 131 147 178 67 q 83 329 83 226 q 134 540 83 449 q 281 685 185 632 q 511 738 376 738 q 721 685 631 738 q 858 539 811 633 q 933 683 882 629 q 1068 738 983 738 q 1174 710 1128 738 q 1248 624 1221 683 q 1275 468 1275 564 l 1275 292 q 1324 93 1275 153 q 1447 33 1372 33 q 1578 111 1532 33 q 1625 324 1625 189 q 1613 446 1625 376 q 1576 586 1601 515 q 1511 713 1551 657 l 1574 732 q 1641 591 1615 664 q 1678 449 1667 518 q 1690 326 1690 381 q 1663 142 1690 221 q 1581 19 1635 63 q 1447 -25 1526 -25 q 1328 8 1381 -25 q 1244 110 1275 40 q 1214 292 1214 181 l 1214 469 q 1172 634 1214 589 q 1068 679 1131 679 q 971 638 1008 679 q 916 522 933 596 q 899 354 899 449 l 899 0 l 838 0 z "},"ை":{"ha":1661,"x_min":83,"x_max":1578,"o":"m 1235 679 q 1080 644 1151 679 q 956 549 1008 610 q 874 409 903 489 q 844 238 844 329 q 885 91 844 149 q 996 33 926 33 q 1103 91 1065 33 q 1142 238 1142 149 q 1102 413 1142 332 q 992 553 1063 493 q 826 646 921 613 q 621 679 732 679 q 369 633 475 679 q 207 506 264 588 q 150 317 150 424 q 192 165 150 232 q 306 61 233 99 q 471 24 378 24 q 592 71 544 24 q 639 190 639 118 q 592 310 639 264 q 471 357 544 357 q 351 311 399 357 q 303 193 303 265 q 351 72 303 119 q 471 24 399 24 l 471 -11 q 353 15 406 -11 q 272 88 301 42 q 243 193 243 133 q 272 306 243 257 q 353 383 301 354 q 471 411 406 411 q 591 383 539 411 q 674 305 643 354 q 704 190 704 256 q 674 79 704 128 q 591 3 643 31 q 471 -25 539 -25 q 271 19 358 -25 q 133 141 183 64 q 83 317 83 218 q 149 533 83 439 q 336 683 215 628 q 621 738 457 738 q 851 699 744 738 q 1038 593 958 661 q 1163 434 1118 525 q 1208 238 1208 343 q 1183 102 1208 161 q 1110 9 1157 43 q 996 -25 1063 -25 q 881 9 931 -25 q 805 102 832 43 q 778 238 778 161 q 813 429 778 339 q 909 589 847 519 q 1054 698 971 658 q 1235 738 1138 738 q 1424 690 1347 738 q 1539 561 1500 643 q 1578 374 1578 479 q 1550 188 1578 293 q 1461 -19 1522 83 l 1399 0 q 1464 124 1439 57 q 1501 258 1489 192 q 1513 376 1513 324 q 1482 535 1513 467 q 1390 641 1451 603 q 1235 679 1328 679 z "},"ஷ":{"ha":1860,"x_min":83,"x_max":1728,"o":"m 1728 664 l 1728 0 l 765 0 l 765 49 l 1667 49 l 1667 664 l 1728 664 m 1232 738 q 1345 708 1299 738 q 1417 628 1392 679 q 1442 513 1442 578 l 1442 -337 l 1381 -337 l 1381 506 q 1343 631 1381 583 q 1232 679 1306 679 q 1119 636 1160 679 q 1078 526 1078 593 q 1133 400 1078 453 q 1290 347 1189 347 q 1435 388 1363 347 q 1568 499 1507 428 q 1667 664 1629 571 l 1717 646 q 1615 462 1682 543 q 1464 335 1549 381 q 1290 289 1379 289 q 1142 321 1204 289 q 1047 407 1079 353 q 1013 526 1014 461 q 1040 635 1013 588 q 1116 710 1067 683 q 1232 738 1165 738 m 526 738 q 752 688 657 738 q 900 552 847 639 q 953 354 953 465 q 922 177 953 261 q 839 36 890 93 l 765 49 q 853 179 818 101 q 888 354 888 257 q 844 522 888 449 q 719 638 800 596 q 526 679 638 679 q 326 634 411 679 q 196 510 242 589 q 150 329 150 431 q 189 172 150 240 q 300 63 228 103 q 471 24 372 24 q 592 71 544 24 q 639 190 639 118 q 592 310 639 264 q 471 357 544 357 q 351 311 399 357 q 303 193 303 265 q 351 72 303 119 q 471 24 399 24 l 471 -11 q 353 15 406 -11 q 272 88 301 42 q 243 193 243 133 q 272 306 243 257 q 353 383 301 354 q 471 411 406 411 q 591 383 539 411 q 674 305 643 354 q 704 190 704 256 q 674 79 704 128 q 591 3 643 31 q 471 -25 539 -25 q 265 21 353 -25 q 131 147 178 67 q 83 329 83 226 q 138 540 83 449 q 292 685 193 632 q 526 738 392 738 z "},"ா":{"ha":901,"x_min":139,"x_max":888,"o":"m 608 664 l 608 0 l 547 0 l 547 664 l 200 664 l 200 0 l 139 0 l 139 713 l 881 713 l 888 664 l 608 664 z "},"ி":{"ha":339,"x_min":-504,"x_max":200,"o":"m -190 1107 q 17 1054 -71 1107 q 152 910 104 1001 q 200 699 200 818 l 200 0 l 139 0 l 139 699 q 99 881 139 803 q -14 1004 60 960 q -190 1049 -87 1049 q -372 1000 -307 1049 q -437 871 -437 951 q -383 755 -437 797 q -226 713 -328 713 l -193 713 l -193 663 l -226 663 q -374 689 -312 663 q -469 763 -436 715 q -504 871 -503 810 q -466 993 -504 940 q -358 1076 -428 1046 q -190 1107 -287 1107 z "},"ț":{"ha":406,"x_min":28,"x_max":364,"o":"m 318 653 l 196 653 l 196 865 l 128 835 l 128 653 l 28 653 l 28 601 l 128 601 l 128 161 q 146 63 128 103 q 197 3 164 24 q 272 -18 229 -18 q 308 -15 290 -18 q 340 -8 325 -12 q 364 -1 354 -4 l 347 51 q 323 44 340 49 q 290 39 306 39 q 217 80 239 39 q 196 171 196 121 l 196 601 l 347 601 l 318 653 m 258 -35 q 230 -42 242 -35 q 212 -62 218 -50 q 206 -89 206 -75 q 218 -122 206 -103 q 256 -142 231 -142 q 231 -208 254 -179 q 171 -256 207 -236 l 193 -290 q 258 -242 232 -271 q 299 -174 285 -212 q 313 -94 313 -136 q 298 -54 313 -74 q 258 -35 283 -35 z "},"வ":{"ha":1426,"x_min":83,"x_max":1288,"o":"m 888 354 q 845 522 888 449 q 722 638 803 596 q 526 679 642 679 q 326 634 411 679 q 196 510 242 589 q 150 329 150 431 q 189 172 150 240 q 300 63 228 103 q 471 24 372 24 q 592 71 544 24 q 639 190 639 118 q 592 310 639 264 q 471 357 544 357 q 351 311 399 357 q 303 193 303 265 q 351 72 303 119 q 471 24 399 24 l 471 -11 q 353 15 406 -11 q 272 88 301 42 q 243 193 243 133 q 272 306 243 257 q 353 383 301 354 q 471 411 406 411 q 591 383 539 411 q 674 305 643 354 q 704 190 704 256 q 674 79 704 128 q 591 3 643 31 q 471 -25 539 -25 q 265 21 353 -25 q 131 147 178 67 q 83 329 83 226 q 138 540 83 449 q 292 685 193 632 q 526 738 392 738 q 752 688 657 738 q 900 552 847 639 q 953 354 953 465 q 925 185 953 265 q 850 49 897 106 l 1226 49 l 1226 713 l 1288 713 l 1288 0 l 765 0 l 765 49 q 853 179 818 101 q 888 354 888 257 z "},"ீ":{"ha":0,"x_min":-515,"x_max":54,"o":"m -228 1219 q -76 1183 -139 1219 q 20 1088 -14 1147 q 54 961 54 1029 q 17 858 54 899 q -78 817 -21 817 q -176 852 -137 817 q -218 940 -215 888 q -181 1035 -219 997 q -82 1072 -143 1072 q 14 1036 -24 1072 q 51 943 51 1000 l -1 944 q -23 998 -1 976 q -78 1019 -44 1019 q -134 998 -112 1019 q -156 944 -156 976 q -134 890 -156 911 q -78 868 -112 868 q -23 890 -44 868 q -1 944 -1 911 q -26 1056 -1 1007 q -100 1132 -50 1104 q -228 1160 -150 1160 q -348 1131 -299 1160 q -423 1051 -397 1101 q -449 933 -449 1000 q -424 819 -449 869 q -358 741 -400 769 q -262 713 -315 713 l -262 664 q -392 699 -335 664 q -483 794 -450 733 q -515 933 -515 856 q -481 1081 -515 1017 q -383 1183 -447 1146 q -228 1219 -318 1219 z "},"ப":{"ha":981,"x_min":139,"x_max":842,"o":"m 842 713 l 842 0 l 139 0 l 139 713 l 200 719 l 200 49 l 781 49 l 781 713 l 842 713 z "},"Ģ":{"ha":853,"x_min":69,"x_max":769,"o":"m 486 421 l 699 421 l 699 72 q 622 50 664 60 q 529 40 579 40 q 331 95 418 40 q 195 247 244 150 q 146 467 146 343 q 175 643 146 563 q 258 783 204 724 q 383 874 311 842 q 542 907 456 907 q 626 902 592 907 q 688 888 660 897 q 743 867 715 879 l 769 913 q 701 942 744 931 q 613 958 657 953 q 539 964 568 964 q 351 927 438 964 q 202 824 265 890 q 104 666 139 757 q 69 467 69 575 q 125 219 69 329 q 284 44 181 108 q 531 -19 388 -19 q 615 -11 571 -19 q 701 12 660 -3 q 767 43 742 26 l 767 475 l 494 475 l 486 421 m 532 -29 q 503 -37 515 -29 q 485 -57 492 -44 q 479 -83 479 -69 q 492 -117 479 -97 q 529 -136 504 -136 q 504 -202 528 -174 q 444 -250 481 -231 l 467 -285 q 532 -236 506 -265 q 572 -169 558 -207 q 586 -89 586 -131 q 572 -49 586 -68 q 532 -29 557 -29 z "},"ட":{"ha":992,"x_min":139,"x_max":978,"o":"m 971 49 l 200 49 l 200 719 l 139 713 l 139 0 l 978 0 l 971 49 z "},"ļ":{"ha":290,"x_min":61,"x_max":203,"o":"m 179 0 l 179 981 l 111 967 l 111 0 l 179 0 m 149 -29 q 120 -37 132 -29 q 102 -57 108 -44 q 96 -83 96 -69 q 108 -117 96 -97 q 146 -136 121 -136 q 121 -202 144 -174 q 61 -250 97 -231 l 83 -285 q 149 -236 122 -265 q 189 -169 175 -207 q 203 -89 203 -131 q 188 -49 203 -68 q 149 -29 174 -29 z "},"௪":{"ha":1097,"x_min":69,"x_max":1028,"o":"m 1028 350 l 967 357 l 967 713 l 1028 713 l 1028 350 m 629 285 q 590 114 629 183 q 483 10 551 44 q 328 -25 415 -25 q 192 3 250 -25 q 101 79 133 31 q 69 189 69 128 q 133 339 69 279 q 313 399 197 399 l 1022 399 l 1028 350 l 314 350 q 182 304 228 350 q 136 188 136 258 q 187 76 136 118 q 328 33 238 33 q 451 61 397 33 q 537 145 506 89 q 568 285 568 201 l 568 664 l 293 664 l 293 365 l 232 365 l 232 713 l 864 713 l 871 664 l 629 664 l 629 285 z "},"உ":{"ha":1339,"x_min":56,"x_max":1325,"o":"m 1325 0 l 104 0 l 104 49 l 1325 49 l 1325 0 m 72 379 q 99 474 72 429 q 174 545 126 518 q 282 572 222 572 q 392 547 344 572 q 468 478 440 522 q 496 376 496 433 q 467 272 496 318 q 389 200 439 226 q 275 174 339 174 q 163 201 213 174 q 84 275 113 228 q 56 382 56 322 q 103 565 56 485 q 238 692 151 646 q 440 738 325 738 q 635 691 550 738 q 769 564 721 644 q 818 379 818 483 q 773 185 818 269 q 643 54 728 101 q 439 7 558 7 l 439 49 q 602 92 532 49 q 712 209 672 135 q 751 379 751 283 q 712 535 751 468 q 603 641 672 603 q 440 679 533 679 q 271 641 343 679 q 159 535 199 603 q 119 379 119 468 q 163 273 119 314 q 275 232 207 232 q 385 273 342 232 q 429 376 429 314 q 388 478 429 438 q 282 519 346 519 q 165 480 211 519 q 119 379 119 440 l 72 379 z "},"௶":{"ha":1319,"x_min":139,"x_max":1181,"o":"m 1181 -178 l 315 -178 q 231 -203 257 -178 q 206 -267 206 -228 q 271 -360 206 -331 q 436 -390 336 -390 q 614 -360 536 -390 q 736 -276 692 -329 q 781 -154 781 -222 l 781 139 l 842 139 l 842 -147 q 789 -306 842 -237 q 645 -412 736 -375 q 436 -450 554 -450 q 283 -428 350 -450 q 177 -365 215 -407 q 139 -267 139 -324 q 181 -168 139 -207 q 315 -129 222 -129 l 1119 -129 l 1119 713 l 1181 713 l 1181 -178 m 842 713 l 842 0 l 139 0 l 139 713 l 200 719 l 200 49 l 781 49 l 781 713 l 842 713 z "},"ற":{"ha":1076,"x_min":125,"x_max":993,"o":"m 718 738 q 872 684 811 738 q 963 536 933 631 q 993 321 993 442 q 949 38 993 161 q 808 -157 906 -86 q 550 -228 711 -228 l 403 -228 q 263 -258 322 -228 q 172 -337 203 -289 l 125 -308 q 235 -215 160 -251 q 403 -179 310 -179 l 550 -179 q 774 -114 692 -179 q 891 65 856 -49 q 926 321 926 178 q 904 507 926 426 q 837 633 882 588 q 722 679 792 679 q 639 656 675 679 q 583 587 603 633 q 563 469 563 540 l 563 0 l 501 0 l 501 444 q 482 565 501 513 q 426 649 463 618 q 338 679 389 679 q 226 628 267 679 q 186 469 186 576 l 186 0 l 125 0 l 125 468 q 151 617 125 557 q 224 707 176 676 q 332 738 271 738 q 450 701 400 738 q 526 601 500 664 q 606 703 554 668 q 718 738 658 738 z "},"௺":{"ha":1342,"x_min":139,"x_max":1342,"o":"m 1128 1004 q 1072 1117 1128 1075 q 931 1160 1017 1160 q 790 1131 851 1160 q 695 1049 729 1101 q 661 928 661 997 q 684 849 661 881 q 747 818 707 818 q 807 849 783 818 q 831 928 831 881 q 803 1048 831 996 q 728 1130 776 1100 q 619 1160 681 1160 q 506 1131 556 1160 q 427 1051 456 1101 q 399 933 399 1000 q 423 819 399 869 q 490 741 447 769 q 585 713 532 713 l 585 664 q 456 699 513 664 q 366 794 399 733 q 333 933 333 856 q 370 1081 333 1017 q 472 1183 407 1146 q 619 1219 536 1219 q 763 1181 700 1219 q 860 1078 825 1143 q 896 928 896 1013 q 877 843 896 882 q 825 781 858 804 q 747 758 792 758 q 666 781 700 758 q 614 843 632 804 q 596 928 596 882 q 621 1044 596 990 q 690 1137 646 1097 q 797 1198 735 1176 q 931 1219 858 1219 q 1067 1192 1007 1219 q 1160 1115 1126 1164 q 1194 1004 1194 1067 q 1171 906 1194 950 q 1103 832 1147 861 l 1342 832 l 1342 783 l 939 783 l 939 832 q 1080 881 1032 832 q 1128 1004 1128 931 m 714 476 q 838 438 789 476 q 912 330 888 399 q 936 171 936 261 q 894 -28 936 63 q 766 -174 851 -119 q 551 -228 681 -228 l 417 -228 q 276 -258 336 -228 q 186 -337 217 -289 l 139 -308 q 248 -215 172 -251 q 417 -179 324 -179 l 551 -179 q 731 -131 660 -179 q 836 -2 801 -82 q 871 174 871 78 q 832 351 871 283 q 710 418 793 418 q 585 365 633 418 q 536 231 536 313 l 536 0 l 475 0 l 475 664 l 200 664 l 200 0 l 139 0 l 139 713 l 808 713 l 815 664 l 536 664 l 536 392 q 613 454 568 432 q 714 476 658 476 z "},"ŗ":{"ha":419,"x_min":46,"x_max":406,"o":"m 165 0 l 165 496 q 231 553 192 525 q 317 601 271 582 q 406 621 364 621 l 382 674 q 305 656 347 674 q 224 613 263 638 q 161 567 186 588 l 136 674 l 97 674 l 97 0 l 165 0 m 133 -29 q 105 -37 117 -29 q 87 -57 93 -44 q 81 -83 81 -69 q 93 -117 81 -97 q 131 -136 106 -136 q 106 -202 129 -174 q 46 -250 82 -231 l 68 -285 q 133 -236 107 -265 q 174 -169 160 -207 q 188 -89 188 -131 q 173 -49 188 -68 q 133 -29 158 -29 z "},"௲":{"ha":1399,"x_min":69,"x_max":1343,"o":"m 1097 350 l 1097 186 l 1124 186 q 1242 156 1193 186 q 1317 71 1290 125 q 1343 -53 1343 17 q 1304 -185 1343 -128 q 1194 -276 1265 -243 q 1026 -310 1124 -310 l 854 -310 q 744 -334 790 -310 q 675 -396 699 -358 l 626 -368 q 710 -292 654 -324 q 839 -261 767 -261 l 1026 -261 q 1210 -202 1143 -261 q 1276 -53 1276 -143 q 1259 45 1276 3 q 1208 113 1242 88 q 1124 138 1174 138 l 1097 138 l 1097 92 q 1067 -38 1097 17 q 983 -122 1038 -93 q 851 -151 928 -151 q 744 -130 790 -151 q 672 -70 697 -108 q 646 17 646 -32 q 699 138 646 90 q 849 186 751 186 l 1036 186 l 1036 350 l 629 350 l 629 285 q 590 114 629 183 q 483 10 551 44 q 328 -25 415 -25 q 192 3 250 -25 q 101 79 133 31 q 69 189 69 128 q 112 317 69 263 q 232 389 154 371 l 232 713 l 864 713 l 871 664 l 629 664 l 629 399 l 1279 399 l 1286 350 l 1097 350 m 293 664 l 293 399 l 568 399 l 568 664 l 293 664 m 328 33 q 451 61 397 33 q 537 145 506 89 q 568 285 568 201 l 568 350 l 314 350 q 182 304 228 350 q 136 188 136 258 q 187 76 136 118 q 328 33 238 33 m 713 15 q 750 -63 713 -33 q 851 -93 788 -93 q 952 -72 911 -93 q 1015 -9 993 -50 q 1036 92 1036 32 l 1036 138 l 851 138 q 747 103 781 138 q 713 15 713 68 z "},"௷":{"ha":1739,"x_min":83,"x_max":1725,"o":"m 872 399 l 1040 399 q 1091 394 1067 399 q 1138 382 1115 390 q 1230 421 1179 407 q 1339 435 1281 435 q 1469 407 1413 435 q 1558 330 1525 379 q 1590 214 1590 281 q 1568 119 1590 163 q 1503 49 1546 76 l 1725 49 l 1725 0 l 1347 0 l 1347 49 q 1478 97 1433 49 q 1524 214 1524 144 q 1472 332 1524 288 q 1339 376 1419 376 q 1265 369 1300 376 q 1200 347 1231 363 q 1276 259 1249 313 q 1304 144 1304 206 q 1285 60 1304 99 q 1233 -2 1267 21 q 1156 -25 1200 -25 q 1074 -2 1108 -25 q 1021 60 1039 21 q 1003 144 1003 99 q 1026 256 1003 206 q 1089 344 1049 307 q 1065 349 1078 347 q 1040 350 1053 350 l 872 350 l 872 0 l 811 0 l 811 664 l 547 664 q 328 622 417 664 q 194 506 239 581 q 150 329 150 431 q 184 180 150 246 q 282 74 218 114 q 253 128 264 97 q 243 193 243 158 q 272 306 243 257 q 353 383 301 354 q 471 411 406 411 q 591 383 539 411 q 674 305 643 354 q 704 190 704 256 q 674 79 704 128 q 591 3 643 31 q 471 -25 539 -25 q 265 21 353 -25 q 131 147 178 67 q 83 329 83 226 q 135 531 83 444 q 287 665 186 617 q 535 713 388 713 l 1144 713 l 1151 664 l 872 664 l 872 399 m 303 193 q 351 72 303 119 q 471 24 399 24 q 592 71 544 24 q 639 190 639 118 q 592 310 639 264 q 471 357 544 357 q 351 311 399 357 q 303 193 303 265 m 1069 144 q 1092 65 1069 97 q 1156 33 1115 33 q 1215 65 1192 33 q 1239 144 1239 97 q 1216 247 1239 201 q 1153 318 1193 292 q 1092 243 1114 288 q 1069 144 1069 199 z "},"௫":{"ha":1696,"x_min":111,"x_max":1557,"o":"m 879 0 l 879 664 l 582 664 l 582 0 l 521 0 l 521 713 l 1214 713 l 1219 664 l 940 664 l 940 392 q 1017 454 972 432 q 1118 476 1063 476 q 1239 437 1189 476 q 1315 328 1289 397 q 1340 171 1340 260 q 1299 -44 1340 50 q 1182 -206 1258 -139 q 1001 -307 1106 -272 q 768 -342 896 -342 q 495 -292 617 -342 q 288 -152 374 -243 q 156 65 201 -61 q 111 346 111 192 q 163 640 111 504 q 313 878 214 776 q 555 1038 413 981 q 881 1094 697 1094 q 1145 1052 1022 1094 q 1360 929 1268 1010 q 1505 733 1453 849 q 1557 469 1557 617 l 1557 0 l 1496 0 l 1496 467 q 1449 707 1496 601 q 1317 886 1401 813 q 1121 998 1232 960 q 881 1036 1010 1036 q 582 983 713 1036 q 361 836 451 931 q 224 615 271 742 q 178 343 178 489 q 218 88 178 203 q 335 -110 258 -28 q 522 -238 413 -193 q 768 -283 631 -283 q 1033 -229 919 -283 q 1211 -73 1147 -175 q 1275 174 1275 29 q 1257 299 1275 244 q 1203 386 1239 354 q 1115 418 1168 418 q 990 365 1039 418 q 940 231 940 313 l 940 0 l 879 0 z "},"ன":{"ha":1783,"x_min":83,"x_max":1769,"o":"m 1429 0 l 1429 664 l 1290 664 q 1116 631 1197 664 q 974 540 1035 599 q 878 404 913 482 q 844 238 844 326 q 884 91 844 149 q 993 33 924 33 q 1102 91 1063 33 q 1142 238 1142 149 q 1102 413 1142 332 q 992 553 1063 493 q 826 646 921 613 q 621 679 732 679 q 369 633 475 679 q 207 506 264 588 q 150 317 150 424 q 192 165 150 232 q 306 61 233 99 q 471 24 378 24 q 592 71 544 24 q 639 190 639 118 q 592 310 639 264 q 471 357 544 357 q 351 311 399 357 q 303 193 303 265 q 351 72 303 119 q 471 24 399 24 l 471 -11 q 353 15 406 -11 q 272 88 301 42 q 243 193 243 133 q 272 306 243 257 q 353 383 301 354 q 471 411 406 411 q 591 383 539 411 q 674 305 643 354 q 704 190 704 256 q 674 79 704 128 q 591 3 643 31 q 471 -25 539 -25 q 271 19 358 -25 q 133 141 183 64 q 83 317 83 218 q 149 533 83 439 q 336 683 215 628 q 621 738 457 738 q 851 699 744 738 q 1038 593 958 661 q 1163 434 1118 525 q 1208 238 1208 343 q 1182 102 1208 161 q 1108 9 1156 43 q 993 -25 1060 -25 q 879 9 928 -25 q 804 102 831 43 q 778 238 778 161 q 817 425 778 339 q 927 576 857 511 q 1090 676 997 640 q 1290 713 1183 713 l 1764 713 l 1769 664 l 1490 664 l 1490 0 l 1429 0 z "},"ஂ":{"ha":0,"x_min":-144,"x_max":144,"o":"m 0 886 q 74 904 42 886 q 126 953 107 922 q 144 1024 144 985 q 125 1097 144 1065 q 73 1145 106 1128 q 0 1163 40 1163 q -70 1145 -37 1163 q -124 1097 -103 1128 q -144 1024 -144 1065 q -124 953 -144 985 q -72 904 -104 922 q 0 886 -39 886 m 0 938 q -60 962 -36 938 q -85 1024 -85 986 q -60 1085 -85 1061 q 0 1110 -36 1110 q 62 1085 38 1110 q 86 1024 86 1061 q 62 962 86 986 q 0 938 38 938 z "},"ள":{"ha":1665,"x_min":83,"x_max":1651,"o":"m 150 329 q 189 172 150 240 q 300 63 228 103 q 471 24 372 24 q 592 71 544 24 q 639 190 639 118 q 592 310 639 264 q 471 357 544 357 q 351 311 399 357 q 303 193 303 265 q 351 72 303 119 q 471 24 399 24 l 471 -11 q 353 15 406 -11 q 272 88 301 42 q 243 193 243 133 q 272 306 243 257 q 353 383 301 354 q 471 411 406 411 q 591 383 539 411 q 674 305 643 354 q 704 190 704 256 q 674 79 704 128 q 591 3 643 31 q 471 -25 539 -25 q 265 21 353 -25 q 131 147 178 67 q 83 329 83 226 q 135 540 83 449 q 283 685 186 632 q 514 738 379 738 q 729 683 635 738 q 875 533 824 628 l 875 713 l 1644 713 l 1651 664 l 1372 664 l 1372 0 l 1311 0 l 1311 664 l 936 664 l 936 0 l 875 0 l 875 317 q 828 503 875 422 q 701 632 782 585 q 514 679 619 679 q 317 634 399 679 q 192 510 235 589 q 150 329 150 431 z "},"ņ":{"ha":694,"x_min":97,"x_max":603,"o":"m 165 0 l 165 499 q 245 569 204 539 q 327 617 286 600 q 408 635 368 635 q 510 586 485 635 q 535 468 535 538 l 535 0 l 603 0 l 603 468 q 583 583 603 533 q 519 663 563 633 q 403 692 475 692 q 317 674 361 692 q 233 629 272 657 q 164 568 193 601 l 150 674 l 97 674 l 97 0 l 165 0 m 353 -29 q 324 -37 336 -29 q 306 -57 313 -44 q 300 -83 300 -69 q 313 -117 300 -97 q 350 -136 325 -136 q 325 -202 349 -174 q 265 -250 301 -231 l 288 -285 q 353 -236 326 -265 q 393 -169 379 -207 q 407 -89 407 -131 q 392 -49 407 -68 q 353 -29 378 -29 z "},"௮":{"ha":1465,"x_min":56,"x_max":1326,"o":"m 1326 -175 l 1326 713 l 1265 713 l 1265 -175 l 1326 -175 m 1265 125 l 996 125 q 878 -46 957 28 q 692 -160 800 -119 q 454 -200 583 -200 q 249 -168 339 -200 q 107 -81 158 -136 q 56 43 56 -26 q 93 137 56 100 q 203 174 131 174 l 467 174 q 365 278 403 213 q 328 424 328 343 q 370 586 328 515 q 486 697 413 657 q 654 738 560 738 q 812 706 742 738 q 931 619 882 675 q 1007 486 981 563 q 1033 319 1033 410 q 1028 244 1033 281 q 1013 174 1024 208 l 1265 174 l 1265 125 m 394 424 q 427 295 394 351 q 517 206 460 239 q 647 174 574 174 l 944 174 q 961 244 956 207 q 967 319 967 281 q 929 506 967 425 q 822 633 892 588 q 654 679 753 679 q 520 646 579 679 q 428 555 461 613 q 394 424 394 497 m 454 -142 q 745 -69 621 -142 q 925 125 869 3 l 208 125 q 142 102 161 125 q 122 43 122 79 q 165 -53 122 -11 q 282 -118 207 -94 q 454 -142 357 -142 z "},"௹":{"ha":1451,"x_min":111,"x_max":1368,"o":"m 582 0 l 521 0 l 521 713 l 1242 713 l 1247 664 l 968 664 l 968 392 q 1044 454 999 432 q 1146 476 1090 476 q 1267 437 1217 476 q 1342 328 1317 397 q 1368 171 1368 260 q 1328 -34 1368 60 q 1213 -197 1288 -128 q 1032 -303 1138 -265 q 796 -342 926 -342 q 505 -289 632 -342 q 290 -140 378 -236 q 157 88 203 -43 q 111 374 111 218 q 163 722 111 567 q 308 989 214 878 q 528 1160 401 1100 q 806 1219 656 1219 q 984 1197 903 1219 q 1125 1135 1065 1174 q 1218 1049 1185 1096 q 1251 954 1251 1003 q 1213 853 1251 890 q 1118 817 1175 817 q 1020 852 1060 817 q 979 940 981 888 q 1019 1038 976 1000 q 1129 1072 1061 1075 q 988 1137 1074 1114 q 806 1160 901 1160 q 553 1106 668 1160 q 354 949 439 1051 q 224 700 269 846 q 178 371 178 554 q 218 109 178 229 q 338 -99 258 -11 q 532 -235 417 -186 q 796 -283 647 -283 q 1006 -249 913 -283 q 1165 -154 1099 -215 q 1267 -10 1232 -93 q 1303 174 1303 74 q 1285 299 1303 244 q 1231 386 1267 354 q 1143 418 1196 418 q 1017 365 1067 418 q 968 231 968 313 l 968 0 l 907 0 l 907 664 l 582 664 l 582 0 m 1036 944 q 1060 885 1036 908 q 1118 861 1083 861 q 1179 885 1156 861 q 1203 944 1203 908 q 1179 1003 1203 981 q 1118 1026 1156 1026 q 1060 1003 1083 1026 q 1036 944 1036 981 z "},"ொ":{"ha":2650,"x_min":83,"x_max":2608,"o":"m 949 479 l 949 0 l 888 0 l 888 479 q 844 699 888 610 q 719 833 800 788 q 526 879 638 879 q 326 825 411 879 q 196 675 242 771 q 150 454 150 579 q 192 232 150 329 q 306 79 233 135 q 471 24 378 24 q 592 71 544 24 q 639 190 639 118 q 592 310 639 264 q 471 357 544 357 q 351 311 399 357 q 303 193 303 265 q 351 72 303 119 q 471 24 399 24 l 471 -11 q 353 15 406 -11 q 272 88 301 42 q 243 193 243 133 q 272 306 243 257 q 353 383 301 354 q 471 411 406 411 q 591 383 539 411 q 674 305 643 354 q 704 190 704 256 q 674 79 704 128 q 591 3 643 31 q 471 -25 539 -25 q 271 37 358 -25 q 133 207 183 99 q 83 454 83 315 q 138 703 83 594 q 292 875 193 813 q 526 938 392 938 q 750 883 656 938 q 897 727 844 829 q 949 479 949 625 m 2329 664 l 2329 0 l 2268 0 l 2268 664 l 1921 664 l 1921 0 l 1860 0 l 1860 713 l 2601 713 l 2608 664 l 2329 664 m 1408 638 q 1438 649 1426 638 q 1449 678 1449 660 q 1438 708 1449 696 q 1408 719 1426 719 q 1379 708 1390 719 q 1368 678 1368 696 q 1379 649 1368 660 q 1408 638 1390 638 m 1533 617 q 1563 628 1551 617 q 1574 657 1574 639 q 1563 686 1574 675 q 1533 697 1551 697 q 1504 686 1515 697 q 1493 657 1493 675 q 1533 617 1493 617 m 1285 697 q 1256 686 1267 697 q 1244 657 1244 675 q 1256 628 1244 639 q 1285 617 1267 617 q 1314 628 1303 617 q 1325 657 1325 639 q 1314 686 1325 675 q 1285 697 1303 697 m 1639 546 q 1669 557 1657 546 q 1681 586 1681 568 q 1669 616 1681 604 q 1639 628 1657 628 q 1610 616 1621 628 q 1599 586 1599 604 q 1610 557 1599 568 q 1639 546 1621 546 m 1179 628 q 1149 616 1161 628 q 1138 586 1138 604 q 1149 557 1138 568 q 1179 546 1161 546 q 1208 557 1197 546 q 1219 586 1219 568 q 1208 616 1219 604 q 1179 628 1197 628 m 1706 436 q 1735 447 1724 436 q 1746 476 1746 458 q 1735 506 1746 494 q 1706 518 1724 518 q 1676 506 1688 518 q 1665 476 1665 494 q 1676 447 1665 458 q 1706 436 1688 436 m 1113 518 q 1083 506 1094 518 q 1071 476 1071 494 q 1083 447 1071 458 q 1113 436 1094 436 q 1142 447 1131 436 q 1153 476 1153 458 q 1142 506 1153 494 q 1113 518 1131 518 m 1725 318 q 1755 328 1743 318 q 1767 357 1767 339 q 1755 388 1767 376 q 1725 399 1743 399 q 1696 388 1707 399 q 1685 357 1685 376 q 1696 328 1685 339 q 1725 318 1707 318 m 1093 399 q 1063 388 1075 399 q 1051 357 1051 376 q 1063 328 1051 339 q 1093 318 1075 318 q 1122 328 1111 318 q 1133 357 1133 339 q 1122 388 1133 376 q 1093 399 1111 399 m 1706 201 q 1735 213 1724 201 q 1746 242 1746 224 q 1735 271 1746 260 q 1706 282 1724 282 q 1676 271 1688 282 q 1665 242 1665 260 q 1676 213 1665 224 q 1706 201 1688 201 m 1113 282 q 1083 271 1094 282 q 1071 242 1071 260 q 1083 213 1071 224 q 1113 201 1094 201 q 1142 213 1131 201 q 1153 242 1153 224 q 1142 271 1153 260 q 1113 282 1131 282 m 1640 90 q 1670 101 1658 90 q 1682 131 1682 113 q 1670 160 1682 149 q 1640 171 1658 171 q 1611 160 1622 171 q 1600 131 1600 149 q 1611 101 1600 113 q 1640 90 1622 90 m 1178 171 q 1148 160 1160 171 q 1136 131 1136 149 q 1148 101 1136 113 q 1178 90 1160 90 q 1207 101 1196 90 q 1218 131 1218 113 q 1207 160 1218 149 q 1178 171 1196 171 m 1285 103 q 1256 91 1267 103 q 1244 61 1244 79 q 1256 32 1244 43 q 1285 21 1267 21 q 1314 32 1303 21 q 1325 61 1325 43 q 1314 91 1325 79 q 1285 103 1303 103 m 1533 21 q 1563 32 1551 21 q 1574 61 1574 43 q 1563 91 1574 79 q 1533 103 1551 103 q 1504 91 1515 103 q 1493 61 1493 79 q 1504 32 1493 43 q 1533 21 1515 21 m 1408 0 q 1438 11 1426 0 q 1449 40 1449 22 q 1438 70 1449 58 q 1408 82 1426 82 q 1379 70 1390 82 q 1368 40 1368 58 q 1379 11 1368 22 q 1408 0 1390 0 z "},"௴":{"ha":1608,"x_min":139,"x_max":1608,"o":"m 200 49 l 200 719 l 139 713 l 139 0 l 746 0 q 898 42 840 0 q 982 156 956 83 q 1008 321 1008 228 q 975 536 1008 442 q 879 684 942 631 q 729 738 817 738 q 619 711 668 738 q 544 631 571 685 q 517 493 517 576 l 517 14 l 578 26 l 578 494 q 622 638 578 597 q 733 679 667 679 q 847 633 800 679 q 917 506 893 588 q 942 321 942 425 q 924 181 942 243 q 865 84 907 119 q 746 49 822 49 l 200 49 m 1608 783 l 1608 832 l 1369 832 q 1437 905 1414 860 q 1460 1004 1460 950 q 1426 1115 1460 1067 q 1332 1192 1392 1164 q 1196 1219 1272 1219 q 1063 1198 1124 1219 q 956 1137 1001 1176 q 886 1044 911 1097 q 861 928 861 990 q 879 843 861 882 q 932 781 897 804 q 1014 758 967 758 q 1092 781 1058 758 q 1144 843 1125 804 q 1163 928 1163 882 q 1126 1078 1163 1013 q 1028 1181 1090 1143 q 885 1219 965 1219 q 738 1183 803 1219 q 635 1081 672 1146 q 599 933 599 1017 q 628 803 599 861 q 707 708 657 744 l 788 725 q 699 802 732 747 q 665 933 665 857 q 694 1051 665 1000 q 772 1131 722 1101 q 885 1160 822 1160 q 994 1130 947 1160 q 1069 1048 1042 1100 q 1096 928 1096 996 q 1073 849 1096 881 q 1014 818 1050 818 q 950 849 972 818 q 928 928 928 881 q 962 1049 928 997 q 1057 1131 996 1101 q 1196 1160 1118 1160 q 1339 1117 1283 1160 q 1394 1004 1394 1075 q 1347 881 1394 931 q 1206 832 1299 832 l 1206 783 l 1608 783 z "},"க":{"ha":1004,"x_min":69,"x_max":949,"o":"m 629 285 q 590 114 629 183 q 483 10 551 44 q 328 -25 415 -25 q 192 3 250 -25 q 101 79 133 31 q 69 189 69 128 q 133 339 69 279 q 313 399 197 399 l 700 399 q 833 372 778 399 q 919 300 889 346 q 949 194 949 254 q 917 82 949 132 q 826 3 886 32 q 683 -25 767 -25 l 683 24 q 832 72 782 24 q 882 194 882 119 q 837 306 882 261 q 701 350 792 350 l 314 350 q 182 304 228 350 q 136 188 136 258 q 187 76 136 118 q 328 33 238 33 q 451 61 397 33 q 537 145 506 89 q 568 285 568 201 l 568 664 l 293 664 l 293 365 l 232 365 l 232 713 l 864 713 l 871 664 l 629 664 l 629 285 z "},"ு":{"ha":639,"x_min":-200,"x_max":583,"o":"m 350 664 l -200 664 l -200 713 l 350 713 q 470 685 418 713 q 553 608 522 657 q 583 497 583 560 q 553 383 583 433 q 470 305 522 333 q 350 276 418 276 q 233 305 285 276 q 151 383 181 333 q 122 494 122 432 q 151 606 122 557 q 233 683 181 656 q 350 711 285 711 l 350 664 q 230 616 278 664 q 182 494 182 568 q 230 376 182 422 q 350 331 278 331 q 471 378 424 331 q 518 497 518 425 q 471 617 518 571 q 350 664 424 664 z "},"௦":{"ha":1011,"x_min":83,"x_max":928,"o":"m 506 738 q 726 689 631 738 q 874 554 821 640 q 928 357 928 468 q 874 159 928 246 q 726 24 821 72 q 506 -25 631 -25 q 286 24 381 -25 q 138 159 192 72 q 83 357 85 246 q 138 554 85 468 q 286 689 192 640 q 506 738 381 738 m 506 33 q 695 76 615 33 q 819 191 775 118 q 863 357 863 264 q 819 522 864 450 q 695 637 775 594 q 506 679 615 679 q 317 637 397 679 q 194 522 238 594 q 150 357 150 450 q 194 191 151 264 q 317 76 238 118 q 506 33 397 33 z "},"எ":{"ha":1165,"x_min":83,"x_max":1151,"o":"m 872 664 l 872 0 l 811 0 l 811 664 l 651 664 l 650 713 l 1144 713 l 1151 664 l 872 664 m 150 329 q 189 172 150 240 q 300 63 228 103 q 471 24 372 24 q 592 71 544 24 q 639 190 639 118 q 592 310 639 264 q 471 357 544 357 q 351 311 399 357 q 303 193 303 265 q 351 72 303 119 q 471 24 399 24 l 471 -11 q 353 15 406 -11 q 272 88 301 42 q 243 193 243 133 q 272 306 243 257 q 353 383 301 354 q 471 411 406 411 q 591 383 539 411 q 674 305 643 354 q 704 190 704 256 q 674 79 704 128 q 591 3 643 31 q 471 -25 539 -25 q 265 21 353 -25 q 131 147 178 67 q 83 329 83 226 q 135 531 83 444 q 287 665 186 617 q 535 713 388 713 l 785 713 l 785 664 l 547 664 q 328 622 417 664 q 194 506 239 581 q 150 329 150 431 z "},"ௗ":{"ha":1665,"x_min":83,"x_max":1651,"o":"m 150 329 q 189 172 150 240 q 300 63 228 103 q 471 24 372 24 q 592 71 544 24 q 639 190 639 118 q 592 310 639 264 q 471 357 544 357 q 351 311 399 357 q 303 193 303 265 q 351 72 303 119 q 471 24 399 24 l 471 -11 q 353 15 406 -11 q 272 88 301 42 q 243 193 243 133 q 272 306 243 257 q 353 383 301 354 q 471 411 406 411 q 591 383 539 411 q 674 305 643 354 q 704 190 704 256 q 674 79 704 128 q 591 3 643 31 q 471 -25 539 -25 q 265 21 353 -25 q 131 147 178 67 q 83 329 83 226 q 135 540 83 449 q 283 685 186 632 q 514 738 379 738 q 729 683 635 738 q 875 533 824 628 l 875 713 l 1644 713 l 1651 664 l 1372 664 l 1372 0 l 1311 0 l 1311 664 l 936 664 l 936 0 l 875 0 l 875 317 q 828 503 875 422 q 701 632 782 585 q 514 679 619 679 q 317 634 399 679 q 192 510 235 589 q 150 329 150 431 z "},"ஃ":{"ha":931,"x_min":83,"x_max":847,"o":"m 465 456 q 538 473 506 456 q 590 522 571 490 q 610 593 610 553 q 590 665 610 633 q 537 714 569 696 q 465 732 504 732 q 395 714 428 732 q 342 665 363 696 q 321 593 321 633 q 341 522 321 553 q 394 473 361 490 q 465 456 426 456 m 465 507 q 403 531 428 507 q 379 593 379 556 q 403 655 379 631 q 465 679 428 679 q 527 655 503 679 q 551 593 551 631 q 527 531 551 556 q 465 507 503 507 m 228 -19 q 301 -1 268 -19 q 353 48 333 17 q 372 119 372 79 q 352 191 372 160 q 299 240 332 222 q 228 257 267 257 q 158 240 190 257 q 104 191 125 222 q 83 119 83 160 q 103 48 83 79 q 156 -1 124 17 q 228 -19 189 -19 m 703 -19 q 776 -1 743 -19 q 828 48 808 17 q 847 119 847 79 q 827 191 847 160 q 774 240 807 222 q 703 257 742 257 q 633 240 665 257 q 579 191 600 222 q 558 119 558 160 q 578 48 558 79 q 631 -1 599 17 q 703 -19 664 -19 m 228 32 q 166 57 190 32 q 142 119 142 82 q 166 182 142 157 q 228 207 190 207 q 290 182 265 207 q 314 119 314 157 q 290 57 314 82 q 228 32 265 32 m 703 32 q 641 57 665 32 q 617 119 617 82 q 641 181 617 157 q 703 206 665 206 q 765 181 740 206 q 789 119 789 157 q 765 57 789 82 q 703 32 740 32 z "},"ல":{"ha":1399,"x_min":83,"x_max":1315,"o":"m 1135 713 l 1197 732 q 1265 591 1239 664 q 1303 449 1290 518 q 1315 326 1315 381 q 1287 142 1315 221 q 1204 19 1258 63 q 1071 -25 1150 -25 q 951 8 1004 -25 q 868 110 899 40 q 838 292 838 181 l 838 354 q 796 528 838 456 q 681 640 754 601 q 511 679 607 679 q 315 634 396 679 q 192 510 233 589 q 150 329 150 431 q 189 172 150 240 q 300 63 228 103 q 471 24 372 24 q 592 71 544 24 q 639 190 639 118 q 592 310 639 264 q 471 357 544 357 q 351 311 399 357 q 303 193 303 265 q 351 72 303 119 q 471 24 399 24 l 471 -11 q 353 15 406 -11 q 272 88 301 42 q 243 193 243 133 q 272 306 243 257 q 353 383 301 354 q 471 411 406 411 q 591 383 539 411 q 674 305 643 354 q 704 190 704 256 q 674 79 704 128 q 591 3 643 31 q 471 -25 539 -25 q 265 21 353 -25 q 131 147 178 67 q 83 329 83 226 q 134 540 83 449 q 281 685 185 632 q 511 738 376 738 q 711 690 624 738 q 849 558 799 643 q 899 354 899 472 l 899 292 q 947 93 899 153 q 1071 33 996 33 q 1202 111 1156 33 q 1249 324 1249 189 q 1237 446 1249 376 q 1200 586 1225 515 q 1135 713 1175 657 z "},"Ļ":{"ha":682,"x_min":139,"x_max":668,"o":"m 661 54 l 207 54 l 207 944 l 139 944 l 139 0 l 668 0 l 661 54 m 426 -29 q 398 -37 410 -29 q 380 -57 386 -44 q 374 -83 374 -69 q 386 -117 374 -97 q 424 -136 399 -136 q 399 -202 422 -174 q 339 -250 375 -231 l 361 -285 q 426 -236 400 -265 q 467 -169 453 -207 q 481 -89 481 -131 q 466 -49 481 -68 q 426 -29 451 -29 z "},"௵":{"ha":2390,"x_min":111,"x_max":2307,"o":"m 847 738 q 1074 688 978 738 q 1222 552 1169 639 q 1275 354 1275 465 q 1244 177 1275 261 q 1160 36 1213 93 l 1086 49 q 1174 179 1139 101 q 1208 354 1208 257 q 1167 522 1208 449 q 1044 638 1125 596 q 847 679 964 679 q 647 634 732 679 q 517 510 563 589 q 471 329 471 431 q 510 172 471 240 q 621 63 549 103 q 793 24 693 24 q 913 71 867 24 q 960 190 960 118 q 913 310 960 264 q 793 357 867 357 q 672 311 719 357 q 625 193 625 265 q 672 72 625 119 q 793 24 719 24 l 793 -11 q 675 15 726 -11 q 594 88 624 42 q 565 193 565 133 q 594 306 565 257 q 675 383 624 354 q 793 411 726 411 q 913 383 861 411 q 996 305 965 354 q 1026 190 1026 256 q 996 79 1026 128 q 913 3 965 31 q 793 -25 861 -25 q 588 21 675 -25 q 453 147 500 67 q 406 329 406 226 q 460 540 406 449 q 615 685 515 632 q 847 738 714 738 m 2085 476 q 2206 437 2156 476 q 2281 328 2256 397 q 2307 171 2307 260 q 2257 -56 2307 36 q 2115 -206 2207 -149 q 1899 -288 2024 -262 q 1624 -314 1774 -314 l 801 -314 q 516 -271 643 -314 q 299 -150 389 -228 q 160 33 208 -72 q 111 264 111 139 q 136 428 111 340 q 206 595 161 515 q 306 726 250 675 l 369 713 q 271 592 314 668 q 203 428 228 515 q 178 261 178 342 q 254 -10 178 108 q 471 -197 331 -129 q 801 -265 611 -265 l 1624 -265 q 1868 -241 1756 -265 q 2065 -165 1981 -217 q 2195 -29 2149 -112 q 2242 174 2242 54 q 2201 349 2242 281 q 2081 418 2160 418 q 1956 365 2006 418 q 1907 231 1907 313 l 1907 0 l 1846 0 l 1846 664 l 1558 664 l 1558 0 l 1086 0 l 1086 49 l 1497 49 l 1497 713 l 2181 713 l 2186 664 l 1907 664 l 1907 392 q 1984 454 1939 432 q 2085 476 2029 476 z "},"இ":{"ha":1431,"x_min":56,"x_max":1292,"o":"m 681 738 q 528 701 594 738 q 424 603 461 665 q 386 461 386 542 q 433 347 386 393 q 551 300 479 301 q 675 343 626 299 q 725 457 724 388 q 677 568 726 524 q 553 613 628 613 q 478 592 513 613 q 423 538 443 572 q 403 457 403 503 l 440 457 q 473 532 440 503 q 553 561 506 561 q 633 532 601 561 q 664 457 664 503 q 632 381 664 410 q 551 353 600 351 q 472 385 504 356 q 440 457 440 414 q 508 619 440 558 q 681 679 575 679 q 860 613 803 679 q 918 444 918 547 q 878 276 918 365 q 769 99 838 186 q 615 -60 701 11 q 436 -174 529 -131 q 254 -217 343 -217 q 153 -194 185 -217 q 122 -132 122 -171 q 163 -17 122 -69 q 272 73 203 35 q 431 132 342 111 q 617 153 519 153 q 778 132 701 153 q 917 73 856 111 q 1013 -17 978 35 q 1049 -132 1049 -69 q 1017 -194 1049 -171 q 915 -217 986 -217 q 714 -181 813 -217 q 529 -79 615 -144 q 378 74 443 -14 q 277 267 314 163 q 240 485 240 371 q 306 726 240 628 q 487 877 371 825 q 753 929 603 929 q 1001 876 893 929 q 1169 725 1108 822 q 1231 494 1231 628 l 1231 -206 l 1292 -206 l 1292 497 q 1252 699 1292 608 q 1140 853 1213 789 q 968 953 1067 918 q 753 988 869 988 q 521 953 626 988 q 338 855 415 919 q 217 697 260 790 q 175 485 175 604 q 215 253 175 365 q 326 46 256 142 q 491 -122 397 -50 q 693 -235 585 -194 q 915 -275 801 -275 q 1063 -235 1013 -275 q 1114 -132 1114 -194 q 1074 6 1114 -57 q 964 115 1033 68 q 805 186 894 161 q 617 211 715 211 q 403 186 504 211 q 224 115 303 161 q 101 6 146 68 q 56 -132 56 -57 q 106 -235 56 -194 q 254 -275 157 -275 q 422 -242 336 -275 q 590 -153 508 -210 q 742 -25 671 -97 q 869 128 814 47 q 954 291 924 210 q 985 444 985 372 q 951 595 985 529 q 849 699 917 661 q 681 738 782 738 z "},"ந":{"ha":1019,"x_min":139,"x_max":936,"o":"m 714 476 q 838 438 789 476 q 912 330 888 399 q 936 171 936 261 q 894 -28 936 63 q 766 -174 851 -119 q 551 -228 681 -228 l 417 -228 q 276 -258 336 -228 q 186 -337 217 -289 l 139 -308 q 248 -215 172 -251 q 417 -179 324 -179 l 551 -179 q 731 -131 660 -179 q 836 -2 801 -82 q 871 174 871 78 q 832 351 871 283 q 710 418 793 418 q 585 365 633 418 q 536 231 536 313 l 536 0 l 475 0 l 475 664 l 200 664 l 200 0 l 139 0 l 139 713 l 808 713 l 815 664 l 536 664 l 536 392 q 613 454 568 432 q 714 476 658 476 z "},"ங":{"ha":1317,"x_min":139,"x_max":1178,"o":"m 536 664 l 536 197 l 475 197 l 475 664 l 200 664 l 200 0 l 139 0 l 139 713 l 808 713 l 815 664 l 536 664 m 1178 713 l 1178 0 l 475 0 l 475 49 l 1117 49 l 1117 713 l 1178 713 m 863 274 q 823 397 863 347 q 710 447 783 447 q 585 394 633 447 q 536 260 536 342 l 483 260 q 513 388 483 332 q 595 475 543 443 q 714 507 647 507 q 830 476 782 507 q 903 391 878 444 q 929 271 929 338 q 894 128 929 188 q 793 38 858 69 q 639 7 728 7 l 639 49 q 755 78 704 49 q 834 158 806 107 q 863 274 863 210 z "},"ம":{"ha":1092,"x_min":139,"x_max":1008,"o":"m 200 49 l 200 719 l 139 713 l 139 0 l 746 0 q 898 42 840 0 q 982 156 956 83 q 1008 321 1008 228 q 975 536 1008 442 q 879 684 942 631 q 729 738 817 738 q 619 711 668 738 q 544 631 571 685 q 517 493 517 576 l 517 14 l 578 26 l 578 494 q 622 638 578 597 q 733 679 667 679 q 847 633 800 679 q 917 506 893 588 q 942 321 942 425 q 924 181 942 243 q 865 84 907 119 q 746 49 822 49 l 200 49 z "},"௬":{"ha":1429,"x_min":69,"x_max":1415,"o":"m 1415 0 l 1001 0 l 1001 49 l 1415 49 l 1415 0 m 1201 219 q 1161 332 1201 288 q 1042 376 1121 376 q 919 326 965 376 q 872 194 872 276 l 811 194 q 842 318 811 264 q 925 403 872 372 q 1046 435 978 435 q 1167 407 1117 435 q 1242 331 1217 379 q 1268 218 1268 282 q 1239 109 1268 157 q 1151 34 1210 61 q 1001 7 1092 7 l 1001 49 q 1154 97 1107 49 q 1201 219 1201 146 m 629 285 q 590 114 629 183 q 483 10 551 44 q 328 -25 415 -25 q 192 3 250 -25 q 101 79 133 31 q 69 189 69 128 q 133 339 69 279 q 313 399 197 399 l 628 399 q 761 372 707 399 q 844 300 815 346 q 872 194 872 254 l 872 0 l 811 0 l 811 194 q 765 306 811 261 q 628 350 718 350 l 314 350 q 182 304 228 350 q 136 188 136 258 q 187 76 136 118 q 328 33 238 33 q 451 61 397 33 q 537 145 506 89 q 568 285 568 201 l 568 664 l 293 664 l 293 365 l 232 365 l 232 713 l 864 713 l 871 664 l 629 664 l 629 285 z "},"த":{"ha":1018,"x_min":69,"x_max":949,"o":"m 663 350 l 314 350 q 182 304 228 350 q 136 188 136 258 q 187 76 136 118 q 328 33 238 33 q 451 61 397 33 q 537 145 506 89 q 568 285 568 201 l 568 664 l 293 664 l 293 365 l 232 365 l 232 713 l 864 713 l 871 664 l 629 664 l 629 285 q 590 114 629 183 q 483 10 551 44 q 328 -25 415 -25 q 192 3 250 -25 q 101 79 133 31 q 69 189 69 128 q 133 339 69 279 q 313 399 197 399 l 661 399 q 810 361 746 399 q 912 258 875 324 q 949 107 949 192 q 899 -66 949 10 q 758 -185 849 -142 q 544 -228 668 -228 l 347 -228 q 207 -258 267 -228 q 117 -337 147 -289 l 69 -308 q 178 -215 103 -251 q 347 -179 254 -179 l 544 -179 q 724 -142 649 -179 q 841 -40 800 -106 q 882 107 882 25 q 854 233 882 178 q 777 319 826 288 q 663 350 728 350 z "},"௱":{"ha":1317,"x_min":125,"x_max":1303,"o":"m 125 0 l 125 468 q 154 624 125 564 q 234 710 183 683 q 350 738 285 738 q 453 712 408 738 q 526 640 497 686 l 526 713 l 1296 713 l 1303 664 l 1024 664 l 1024 0 l 963 0 l 963 664 l 588 664 l 588 0 l 526 0 l 526 444 q 481 613 526 547 q 350 679 436 679 q 233 634 279 679 q 186 469 186 589 l 186 0 l 125 0 z "},"ஐ":{"ha":1168,"x_min":83,"x_max":1085,"o":"m 999 -69 q 985 30 999 -25 q 950 132 972 85 l 1013 140 q 1051 40 1036 88 q 1065 -69 1065 -7 q 1036 -181 1065 -132 q 953 -257 1007 -229 q 821 -285 899 -285 q 703 -262 750 -285 q 626 -203 657 -240 q 572 -119 596 -165 l 572 -44 l 614 -42 l 614 -119 q 557 -203 590 -165 q 473 -262 524 -240 q 346 -285 422 -285 q 210 -253 269 -285 q 117 -168 150 -222 q 83 -44 83 -114 q 129 97 83 40 q 259 187 175 153 q 458 236 343 221 l 710 269 q 864 308 794 281 q 976 383 933 336 q 1018 497 1018 431 q 969 629 1018 579 q 840 679 921 679 q 739 653 783 679 q 669 582 694 628 q 643 476 643 536 l 643 381 l 582 381 l 582 476 q 524 623 582 567 q 376 679 467 679 q 254 653 304 679 q 179 580 204 626 q 154 471 154 533 q 178 413 154 436 q 236 389 201 389 q 297 412 272 389 q 322 469 321 435 q 299 532 322 507 q 239 557 275 557 q 177 532 201 557 q 154 471 153 507 l 113 469 q 148 569 111 531 q 240 607 185 607 q 345 569 306 607 q 382 469 385 531 q 340 376 381 414 q 236 340 299 339 q 133 379 174 342 q 93 475 93 417 q 130 610 93 551 q 231 703 167 669 q 376 738 294 738 q 488 715 440 738 q 572 656 536 693 q 631 572 607 619 l 631 511 l 592 511 l 592 572 q 688 690 628 642 q 840 738 747 738 q 966 706 911 738 q 1053 621 1021 675 q 1085 497 1085 567 q 1040 354 1085 411 q 911 265 994 297 q 710 217 828 232 l 458 182 q 305 143 375 171 q 193 69 235 115 q 150 -44 151 24 q 203 -176 150 -125 q 346 -226 257 -226 q 458 -201 410 -226 q 535 -129 507 -175 q 563 -24 563 -83 l 563 72 l 624 72 l 624 -24 q 648 -129 624 -83 q 717 -201 672 -175 q 821 -226 761 -226 q 954 -183 910 -226 q 999 -69 999 -140 z "},"Ŗ":{"ha":794,"x_min":139,"x_max":781,"o":"m 368 889 q 501 868 440 889 q 599 800 563 847 q 636 672 636 753 q 594 545 636 594 q 488 474 553 496 q 353 451 424 451 l 207 451 l 207 889 l 368 889 m 139 944 l 139 0 l 207 0 l 207 397 l 350 397 q 414 401 382 397 q 476 411 446 404 l 704 0 l 781 0 l 535 429 q 658 519 610 458 q 706 675 706 579 q 661 834 706 775 q 540 919 617 893 q 365 944 464 944 l 139 944 m 458 -29 q 430 -37 442 -29 q 412 -57 418 -44 q 406 -83 406 -69 q 418 -117 406 -97 q 456 -136 431 -136 q 431 -202 454 -174 q 371 -250 407 -231 l 393 -285 q 458 -236 432 -265 q 499 -169 485 -207 q 513 -89 513 -131 q 498 -49 513 -68 q 458 -29 483 -29 z "},"௩":{"ha":1131,"x_min":139,"x_max":1117,"o":"m 536 664 l 536 197 l 475 197 l 475 664 l 200 664 l 200 0 l 139 0 l 139 713 l 808 713 l 815 664 l 536 664 m 1117 49 l 1117 0 l 475 0 l 475 49 l 639 49 q 755 78 704 49 q 834 158 806 107 q 863 274 863 210 q 823 397 863 347 q 710 447 783 447 q 585 394 633 447 q 536 260 536 342 l 483 260 q 513 388 483 332 q 595 475 543 443 q 714 507 647 507 q 830 476 782 507 q 903 391 878 444 q 929 271 929 338 q 899 138 929 194 q 814 49 868 82 l 1117 49 z "},"௰":{"ha":1061,"x_min":83,"x_max":978,"o":"m 860 732 q 927 591 901 664 q 965 449 953 518 q 978 326 978 381 q 949 142 978 221 q 867 19 921 63 q 733 -25 813 -25 q 613 8 665 -25 q 531 111 560 40 q 447 8 500 40 q 328 -25 394 -25 q 194 19 249 -25 q 111 142 139 63 q 83 326 83 221 q 95 449 83 381 q 133 591 107 518 q 201 732 160 664 l 264 713 q 199 586 225 657 q 162 446 174 515 q 150 324 150 376 q 197 111 150 189 q 328 33 243 33 q 451 93 403 33 q 500 292 500 153 l 500 469 l 561 469 l 561 292 q 610 93 561 153 q 733 33 658 33 q 865 111 818 33 q 911 324 911 189 q 899 446 911 376 q 863 586 888 515 q 797 713 838 657 l 860 732 z "},"ச":{"ha":926,"x_min":69,"x_max":871,"o":"m 629 285 q 590 114 629 183 q 483 10 551 44 q 328 -25 415 -25 q 192 3 250 -25 q 101 79 133 31 q 69 189 69 128 q 133 339 69 279 q 313 399 197 399 l 864 399 l 871 350 l 314 350 q 182 304 228 350 q 136 188 136 258 q 187 76 136 118 q 328 33 238 33 q 451 61 397 33 q 537 145 506 89 q 568 285 568 201 l 568 664 l 293 664 l 293 365 l 232 365 l 232 713 l 864 713 l 871 664 l 629 664 l 629 285 z "},"ģ":{"ha":706,"x_min":56,"x_max":600,"o":"m 356 799 q 385 806 374 799 q 402 826 396 814 q 408 853 408 839 q 403 874 408 863 q 386 896 397 886 q 358 906 375 906 q 383 972 360 943 q 443 1019 407 1000 l 421 1054 q 356 1006 382 1036 q 315 939 329 976 q 301 858 301 901 q 316 818 301 838 q 356 799 331 799 m 600 674 l 563 674 l 532 572 l 532 -100 q 474 -223 532 -183 q 331 -262 415 -262 q 222 -249 267 -262 q 131 -214 178 -235 l 104 -262 q 153 -285 124 -275 q 217 -303 183 -296 q 282 -315 251 -311 q 333 -319 313 -319 q 481 -289 422 -319 q 570 -206 540 -258 q 600 -86 600 -153 l 600 674 m 539 138 q 459 68 503 97 q 346 39 415 39 q 222 80 271 39 q 150 190 174 121 q 126 342 126 260 q 152 488 126 421 q 228 594 178 554 q 353 635 279 635 q 464 607 417 635 q 546 546 511 579 l 574 592 q 521 635 556 613 q 443 675 486 658 q 356 692 400 692 q 190 646 257 692 q 89 521 122 600 q 56 340 56 442 q 87 155 56 236 q 183 28 118 74 q 346 -18 247 -18 q 431 -5 392 -18 q 505 33 471 8 q 567 90 539 58 l 539 138 z "},"ோ":{"ha":2519,"x_min":83,"x_max":2478,"o":"m 150 457 q 201 241 150 338 q 341 88 251 144 q 546 32 431 32 q 667 40 621 32 q 736 65 713 47 q 767 110 760 82 q 775 182 775 139 q 740 275 775 239 q 650 311 704 311 q 560 275 596 311 q 525 182 525 239 q 560 87 525 125 q 651 49 596 49 q 740 87 704 49 q 775 182 775 125 l 822 163 l 778 60 l 669 -3 l 653 -3 q 516 49 569 -3 q 463 182 463 101 q 486 276 463 235 q 552 342 510 318 q 647 365 594 365 q 746 342 703 365 q 814 277 789 318 q 839 182 839 236 q 803 73 839 119 q 703 1 767 26 q 558 -25 640 -25 q 363 13 450 -25 q 213 116 275 50 q 117 269 150 182 q 83 457 83 357 q 117 644 83 557 q 213 797 150 731 q 363 900 275 863 q 558 938 450 938 q 703 912 640 938 q 803 840 767 886 q 839 731 839 794 q 814 636 839 678 q 746 571 789 594 q 647 547 703 547 q 552 571 594 547 q 486 637 510 594 q 463 732 463 679 q 487 826 463 785 q 554 892 511 868 q 653 915 597 915 l 669 915 l 778 853 l 822 750 l 775 731 q 740 826 775 788 q 651 864 704 864 q 560 826 596 864 q 525 732 525 789 q 560 639 525 676 q 650 601 596 601 q 740 638 704 601 q 775 731 775 675 q 767 803 775 774 q 736 849 760 832 q 667 874 713 867 q 546 882 621 882 q 341 825 431 882 q 201 672 251 768 q 150 457 150 576 m 2199 664 l 2199 0 l 2138 0 l 2138 664 l 1790 664 l 1790 0 l 1729 0 l 1729 713 l 2471 713 l 2478 664 l 2199 664 m 1272 638 q 1301 649 1290 638 q 1313 678 1313 660 q 1301 708 1313 696 q 1272 719 1290 719 q 1243 708 1254 719 q 1232 678 1232 696 q 1243 649 1232 660 q 1272 638 1254 638 m 1397 617 q 1426 628 1415 617 q 1438 657 1438 639 q 1426 686 1438 675 q 1397 697 1415 697 q 1368 686 1379 697 q 1357 657 1357 675 q 1397 617 1357 617 m 1149 697 q 1119 686 1131 697 q 1108 657 1108 675 q 1119 628 1108 639 q 1149 617 1131 617 q 1178 628 1167 617 q 1189 657 1189 639 q 1178 686 1189 675 q 1149 697 1167 697 m 1503 546 q 1533 557 1521 546 q 1544 586 1544 568 q 1533 616 1544 604 q 1503 628 1521 628 q 1474 616 1485 628 q 1463 586 1463 604 q 1474 557 1463 568 q 1503 546 1485 546 m 1043 628 q 1013 616 1025 628 q 1001 586 1001 604 q 1013 557 1001 568 q 1043 546 1025 546 q 1072 557 1061 546 q 1083 586 1083 568 q 1072 616 1083 604 q 1043 628 1061 628 m 1569 436 q 1599 447 1588 436 q 1610 476 1610 458 q 1599 506 1610 494 q 1569 518 1588 518 q 1540 506 1551 518 q 1529 476 1529 494 q 1540 447 1529 458 q 1569 436 1551 436 m 976 518 q 947 506 958 518 q 935 476 935 494 q 947 447 935 458 q 976 436 958 436 q 1006 447 994 436 q 1017 476 1017 458 q 1006 506 1017 494 q 976 518 994 518 m 1589 318 q 1619 328 1607 318 q 1631 357 1631 339 q 1619 388 1631 376 q 1589 399 1607 399 q 1560 388 1571 399 q 1549 357 1549 376 q 1560 328 1549 339 q 1589 318 1571 318 m 957 399 q 927 388 939 399 q 915 357 915 376 q 927 328 915 339 q 957 318 939 318 q 986 328 975 318 q 997 357 997 339 q 986 388 997 376 q 957 399 975 399 m 1569 201 q 1599 213 1588 201 q 1610 242 1610 224 q 1599 271 1610 260 q 1569 282 1588 282 q 1540 271 1551 282 q 1529 242 1529 260 q 1540 213 1529 224 q 1569 201 1551 201 m 976 282 q 947 271 958 282 q 935 242 935 260 q 947 213 935 224 q 976 201 958 201 q 1006 213 994 201 q 1017 242 1017 224 q 1006 271 1017 260 q 976 282 994 282 m 1504 90 q 1534 101 1522 90 q 1546 131 1546 113 q 1534 160 1546 149 q 1504 171 1522 171 q 1475 160 1486 171 q 1464 131 1464 149 q 1475 101 1464 113 q 1504 90 1486 90 m 1042 171 q 1012 160 1024 171 q 1000 131 1000 149 q 1012 101 1000 113 q 1042 90 1024 90 q 1071 101 1060 90 q 1082 131 1082 113 q 1071 160 1082 149 q 1042 171 1060 171 m 1149 103 q 1119 91 1131 103 q 1108 61 1108 79 q 1119 32 1108 43 q 1149 21 1131 21 q 1178 32 1167 21 q 1189 61 1189 43 q 1178 91 1189 79 q 1149 103 1167 103 m 1397 21 q 1426 32 1415 21 q 1438 61 1438 43 q 1426 91 1438 79 q 1397 103 1415 103 q 1368 91 1379 103 q 1357 61 1357 79 q 1368 32 1357 43 q 1397 21 1379 21 m 1272 0 q 1301 11 1290 0 q 1313 40 1313 22 q 1301 70 1313 58 q 1272 82 1290 82 q 1243 70 1254 82 q 1232 40 1232 58 q 1243 11 1232 22 q 1272 0 1254 0 z "}}}
